<?xml version="1.0" encoding="UTF-8"?> <svg xmlns="http://www.w3.org/2000/svg" width="498" height="435" viewBox="0 0 498 435" fill="none"><path d="M97.9485 2.79826C84.4603 6.10528 61.3014 17.807 48.3222 28.2368C31.7801 41.4649 13.711 68.9386 6.33072 92.0877C-4.867 127.702 -1.0496 170.184 16.5105 199.947C24.6543 214.193 39.1604 229.202 156.737 349.272C221.378 414.649 242.501 435 247.336 435C251.917 435 279.148 409.053 363.131 324.851C470.527 216.991 472.818 214.447 482.998 193.333C494.959 168.658 500.049 144.237 497.249 122.36C488.596 51.1316 433.371 -5.01932e-07 365.167 -5.01932e-07C328.265 -5.01932e-07 296.963 13.9912 266.678 44.0088L249.118 61.307L227.486 40.9562C205.345 19.8421 184.731 7.88598 162.844 2.79826C148.847 -0.508757 111.946 -0.254371 97.9485 2.79826Z" fill="#272727"></path></svg> 