<?xml version="1.0" encoding="UTF-8"?> <svg xmlns="http://www.w3.org/2000/svg" width="216" height="324" viewBox="0 0 216 324" fill="none"><path d="M103.726 76.9359C103.449 77.3901 103.222 77.8443 103.222 77.9705C103.222 78.0714 102.97 78.0966 102.642 78.0209C102.264 77.92 101.835 78.0462 101.457 78.349C100.953 78.7527 100.878 79.0303 100.903 80.3173C100.928 81.1248 100.852 81.6799 100.752 81.5285C100.374 80.9733 99.4914 80.6705 98.8613 80.8976C98.2059 81.15 97.2985 82.1846 97.0465 82.9669C96.9205 83.3201 96.6432 83.4463 96.0635 83.4463C95.0049 83.4463 90.2411 86.8025 87.8466 89.2502C86.9392 90.1587 86.0066 90.9914 85.7798 91.0671C85.074 91.3447 84.9984 93.0606 85.2505 102.019C85.4269 108.908 85.5529 110.523 85.8554 110.699C86.057 110.851 86.3091 110.826 86.4603 110.674C86.6116 110.523 86.7628 107.015 86.8384 101.615C86.914 96.7953 87.04 92.7578 87.1409 92.6569C87.2417 92.5559 87.8718 92.6569 88.5271 92.884C91.9046 93.9943 93.0641 94.0952 105.213 94.2214C124.243 94.4233 129.763 93.7672 134.098 90.7643C134.753 90.3101 135.333 90.0325 135.409 90.1082C135.484 90.1839 135.409 92.884 135.207 96.114C135.005 99.344 134.854 104.593 134.879 107.797C134.905 113.576 134.804 114.232 134.022 114.232C133.544 114.232 131.578 111.785 130.695 110.119L129.813 108.479L130.418 106.233C131.225 103.18 131.376 100 130.771 98.8393C130.216 97.7794 129.738 97.6533 128.881 98.3346C127.57 99.344 127.293 103.71 128.301 106.965L128.78 108.428L127.696 110.599C126.36 113.299 124.47 115.368 123.588 115.115C122.403 114.787 121.924 114.409 121.042 113.071C119.756 111.128 119.706 110.573 120.512 108.126C121.369 105.425 121.647 101.237 121.042 99.773C120.538 98.6122 119.605 98.486 118.925 99.4954C117.866 101.11 117.538 105.4 118.244 108.479L118.647 110.27L117.942 111.684C116.48 114.51 113.732 116.579 112.195 115.999C111.136 115.595 110.078 114.056 109.422 111.961C108.59 109.362 108.59 108.984 109.523 106.41C110.531 103.659 110.809 100.732 110.128 99.9244C109.75 99.5206 109.523 99.4449 109.12 99.5963C108.212 99.9496 107.733 101.867 107.582 105.526L107.431 108.807L106.095 111.507C104.709 114.257 103.978 114.964 103.978 113.526C103.953 112.567 103.146 110.851 102.44 110.346C101.684 109.816 100.6 109.841 99.6678 110.371C98.9369 110.826 97.9287 112.491 97.9287 113.299C97.9287 113.526 97.7774 113.728 97.6262 113.728C97.4498 113.728 96.9961 113.904 96.618 114.081C95.9627 114.434 95.9123 114.409 95.9123 113.98C95.9123 113.728 96.2399 113.299 96.6432 113.071C97.5002 112.567 98.0547 111.658 97.8531 111.103C97.6262 110.523 97.0717 110.599 96.1895 111.33L95.4334 111.986L95.0301 111.229C94.8284 110.8 94.4756 109.715 94.2487 108.782L93.8706 107.116L94.7528 105.047C96.366 101.312 96.6684 98.8898 95.7106 97.7542C95.2065 97.1738 94.8536 97.1991 94.1731 97.9308C93.2657 98.8898 92.8624 100.681 92.8372 103.886L92.812 106.788L90.3923 111.583C88.4011 115.544 87.9726 116.251 87.9222 115.62C87.6198 112.592 87.1913 111.709 86.0066 111.709C85.2001 111.709 82.1502 113.223 79.9826 114.686C78.1678 115.923 75.849 118.144 75.2944 119.203C75.118 119.506 74.6895 119.784 74.3114 119.834C72.9504 119.986 72.8747 120.49 72.8747 130.559C72.8495 138.356 72.7991 139.719 72.4967 139.719C71.9422 139.719 65.4392 144.16 64.3302 145.296C63.8009 145.851 63.2464 146.28 63.0951 146.28C62.9439 146.28 61.2048 147.239 59.2136 148.425C56.0377 150.343 55.5588 150.696 55.1051 151.655C54.8027 152.26 54.5758 152.841 54.5758 152.967C54.5758 153.093 54.3238 153.699 54.0213 154.33C53.5172 155.339 53.4416 155.97 53.366 159.301C53.2399 164.499 53.7692 167.124 54.8027 166.467C55.3068 166.165 55.5588 163.666 55.5588 158.695C55.584 156.449 55.6596 154.607 55.7857 154.607C55.8865 154.607 56.6426 155.188 57.4744 155.919C61.0787 159.023 65.1872 161.118 71.4885 163.061C74.4123 163.969 80.4867 165.281 83.6878 165.685C84.7968 165.837 86.662 166.064 87.8466 166.215C91.9803 166.72 100.374 167.224 105.112 167.224C112.321 167.224 119.177 166.594 127.545 165.18C129.208 164.878 131.199 164.55 131.956 164.449C132.712 164.323 136.921 163.616 141.282 162.834C145.642 162.077 151.263 161.092 153.758 160.689C156.253 160.26 158.547 159.831 158.85 159.755C159.404 159.604 159.429 159.654 159.278 160.815C158.673 165.559 158.446 166.594 158.018 166.846C157.766 166.972 157.236 167.426 156.858 167.805C156.203 168.486 156.153 168.486 155.422 168.133C154.413 167.603 154.061 167.628 153.506 168.234C153.078 168.713 153.052 168.865 153.355 169.95C153.859 171.792 153.859 171.868 152.826 172.019C151.54 172.246 151.061 172.7 151.162 173.634C151.238 174.517 152.372 175.4 153.985 175.829C154.565 175.981 155.144 176.157 155.321 176.208C155.497 176.258 154.817 177.066 153.834 178C150.633 181.103 148.415 184.889 149.095 186.125C149.952 187.765 153.809 185.393 157.665 180.876C158.421 179.968 158.32 180.674 157.287 183.677C156.102 187.033 154.817 189.456 153.279 191.121C150.129 194.579 146.978 195.058 145.541 192.307C145.037 191.399 145.012 191.147 145.264 190.566C145.44 190.213 145.566 189.532 145.566 189.052C145.566 188.346 145.466 188.169 145.088 188.169C144.457 188.169 144.13 188.598 143.928 189.734C143.726 190.743 143.399 190.894 142.517 190.44C141.66 189.961 141.256 188.825 141.534 187.614C141.836 186.276 141.861 184.384 141.559 183.93C141.156 183.248 140.399 183.728 140.046 184.863C139.769 185.721 139.769 186.302 139.946 187.387C140.173 188.623 140.122 189.027 139.467 191.121C139.063 192.408 138.685 193.468 138.635 193.468C138.585 193.468 137.526 193.14 136.291 192.711C133.644 191.828 130.872 191.525 129.939 192.005C129.486 192.257 129.309 192.56 129.309 193.064C129.309 194.528 132.409 196.143 135.711 196.421C137.198 196.547 137.476 196.471 138.333 195.891C138.862 195.537 139.366 195.235 139.467 195.235C139.87 195.235 141.584 196.976 141.433 197.228C141.13 197.708 138.383 198.061 136.114 197.935C133.014 197.758 131.552 197.228 129.536 195.512C128.629 194.73 127.595 193.922 127.267 193.721C126.486 193.241 126.511 193.064 127.318 192.863C129.158 192.383 129.738 190.44 128.427 189.254C127.898 188.8 127.746 188.497 127.923 188.32C128.351 187.891 128.2 186.68 127.671 186.15C126.814 185.292 125.906 185.065 123.562 185.09C121.773 185.09 120.991 184.964 119.706 184.485C118.824 184.157 117.816 183.879 117.513 183.879C116.656 183.879 115.875 184.838 115.774 186.024C115.724 186.857 115.572 187.109 114.942 187.412C114.211 187.79 114.161 187.79 113.178 186.983C111.892 185.898 110.456 185.444 109.876 185.923C109.523 186.201 109.397 186.175 108.994 185.595C108.716 185.217 108.112 184.788 107.633 184.636C106.272 184.182 105.465 184.687 104.885 186.428L104.381 187.866L103.045 187.992C100.651 188.245 99.441 189.405 99.441 191.449C99.441 192.005 99.315 192.459 99.1637 192.459C99.0377 192.459 98.3824 192.711 97.727 192.989C96.3407 193.645 94.778 193.67 93.669 193.115C93.2405 192.888 92.8876 192.635 92.8876 192.56C92.8876 192.484 93.1649 192.131 93.5178 191.752C95.2569 189.885 96.0131 186.251 94.9041 185.141C92.8876 183.122 90.0143 187.336 90.8712 190.995C91.2493 192.509 91.0981 192.711 89.5102 192.888C88.1743 193.039 88.2247 193.165 88.628 190.44C88.88 188.825 88.8548 188.396 88.5271 187.589C88.0735 186.529 87.645 186.276 86.6872 186.504C85.3009 186.857 84.8976 189.759 85.9562 191.853C86.3091 192.535 86.5864 193.266 86.5864 193.493C86.5864 194.15 84.7968 196.017 83.713 196.522C82.3771 197.127 80.764 197.127 79.5793 196.522C78.4955 195.966 76.7563 194.175 76.1262 192.964C75.6977 192.156 75.7229 192.131 76.7311 190.137C77.6133 188.421 77.7645 187.917 77.7645 186.529C77.7645 185.217 77.6637 184.788 77.1848 184.232C76.6807 183.652 76.5043 183.576 75.849 183.803C75.3449 183.955 74.9164 184.384 74.5383 185.141C73.9838 186.175 73.9586 186.504 74.0594 188.976C74.1854 192.03 74.135 192.156 72.5219 192.383C70.077 192.711 68.3882 191.172 65.3132 185.772C64.2042 183.854 63.0699 182.012 62.7675 181.684C62.2382 181.053 61.356 180.876 60.5494 181.204C60.1966 181.381 60.1209 181.28 60.1209 180.775C60.1209 179.943 60.2218 179.867 62.5406 179.589C63.6245 179.438 64.7587 179.16 65.1116 178.933C65.6157 178.605 65.6913 178.378 65.6157 177.343C65.54 176.284 65.6409 176.031 66.3718 175.199C67.8337 173.533 67.38 171.741 65.2628 170.858C64.6075 170.581 64.4058 170.354 64.4058 169.849C64.4058 168.966 63.7253 167.729 63.196 167.679C62.9691 167.679 62.465 167.679 62.0869 167.704C61.5828 167.754 61.3812 167.653 61.3812 167.351C61.3812 167.124 61.1039 166.669 60.7511 166.341C59.8689 165.433 58.533 165.483 57.5752 166.442C57.1719 166.846 56.8443 167.351 56.8443 167.578C56.8443 167.881 56.6174 167.931 55.6344 167.805C54.5002 167.679 54.3742 167.729 53.8449 168.385C53.3408 169.016 53.2903 169.319 53.3912 170.631C53.4668 171.464 53.5928 172.372 53.6936 172.675C53.8196 173.104 53.6936 173.23 52.635 173.558C51.4504 173.912 51.4252 173.937 51.4 174.946C51.4 175.628 51.1731 176.258 50.8454 176.687C50.0893 177.646 50.1397 178.757 50.9463 179.615L51.5764 180.271L50.795 180.422C49.2323 180.75 46.1573 181.987 45.023 182.718C43.6872 183.627 42.3513 185.469 41.948 186.983C41.1919 189.834 42.2001 194.553 44.4181 198.389C49.8876 207.902 59.4656 214.589 73.2528 218.551C78.924 220.166 83.4609 220.948 90.8964 221.605C97.9035 222.21 98.9117 222.513 99.7939 224.355C101.18 227.257 100.903 232.91 99.2393 236.468C97.5254 240.101 95.0553 242.448 91.577 243.786C87.771 245.224 86.4351 245.527 82.8308 245.678C80.5371 245.779 79.4029 245.93 79.3525 246.132C79.05 247.016 83.965 246.788 88.3255 245.678C94.4 244.164 97.7018 241.817 99.9199 237.477C101.004 235.332 101.483 233.364 101.634 230.31C101.785 227.181 101.306 224.683 100.273 223.169C99.0881 221.453 98.1555 221.176 91.1233 220.595C77.6385 219.485 65.6157 215.876 57.4996 210.501C47.6948 204.016 41.4187 193.998 42.9814 187.311C43.2587 185.999 44.3929 184.46 45.628 183.576C46.5606 182.92 50.795 181.28 50.9967 181.482C51.0471 181.532 50.6438 182.34 50.0893 183.299C48.8542 185.393 48.4005 186.832 48.6274 188.018C48.8038 188.926 49.7868 189.935 50.4926 189.935C50.7446 189.935 50.795 190.087 50.669 190.491C50.0389 192.535 50.5934 193.746 52.383 194.2C53.0131 194.351 53.7692 194.478 54.0717 194.478C54.5758 194.478 54.5758 194.503 54.1977 195.235C53.6432 196.32 53.7188 197.405 54.3742 197.859C55.0295 198.313 56.1637 198.389 56.8695 198.01C57.298 197.758 57.3484 197.834 57.3484 198.894C57.3484 201.619 59.1379 203.158 62.1878 203.007C63.6749 202.931 63.8261 202.982 64.4562 203.688C65.1116 204.42 65.1872 204.445 67.1784 204.42L69.2452 204.395L69.094 205.101C68.8923 206.212 69.1948 207.297 69.9509 208.104C70.5307 208.735 70.8583 208.861 71.8161 208.861C73.2024 208.861 74.3114 208.432 75.4457 207.473C75.8994 207.095 76.3027 206.817 76.3279 206.868C76.3783 206.918 76.5295 207.271 76.7059 207.65C77.1344 208.659 78.0418 209.189 78.8484 208.886C79.4533 208.634 79.5289 208.685 79.907 209.871C80.3607 211.208 81.4193 212.293 82.5031 212.545C82.8812 212.621 83.3097 212.722 83.4861 212.773C83.9902 212.924 85.4521 212.419 86.3343 211.763L87.1913 211.132L87.897 211.814C88.628 212.495 89.989 212.747 90.8712 212.318C91.1485 212.192 91.3249 212.394 91.577 213.201C92.2323 215.321 93.8202 216.684 95.5846 216.684C96.6684 216.659 98.332 215.801 99.2897 214.766C100.096 213.883 100.222 213.832 100.827 214.11C101.709 214.514 102.516 214.488 103.121 214.034C103.726 213.58 103.978 213.555 103.978 214.009C103.978 214.186 104.432 215.245 104.986 216.356C105.767 217.946 106.171 218.45 106.952 218.904C107.507 219.207 108.263 219.46 108.616 219.46C110.229 219.46 112.094 217.794 112.825 215.725C113.052 215.044 113.203 214.943 113.657 215.094C114.614 215.422 115.572 215.245 116.278 214.589L116.959 213.933L117.715 214.716C118.143 215.119 118.799 215.649 119.202 215.851C120.286 216.406 122.327 216.331 123.588 215.7C124.621 215.17 125.982 213.63 126.31 212.596C126.41 212.217 126.587 212.142 126.99 212.268C127.293 212.369 127.998 212.52 128.578 212.571C129.511 212.672 129.662 212.596 130.393 211.788C130.847 211.284 131.199 210.678 131.199 210.476C131.199 210.224 131.628 210.476 132.46 211.208C133.342 211.99 134.098 212.444 134.98 212.646C136.14 212.924 136.341 212.899 137.45 212.369C138.333 211.915 138.786 211.46 139.265 210.577C139.769 209.669 139.996 209.442 140.273 209.618C140.475 209.77 141.13 209.871 141.71 209.871C142.542 209.871 142.92 209.719 143.525 209.088C143.953 208.659 144.306 208.23 144.306 208.155C144.306 208.054 144.407 207.827 144.533 207.625C144.709 207.347 144.911 207.398 145.566 207.877C147.558 209.366 150.229 208.104 151.212 205.202L151.565 204.218L152.851 204.294C153.985 204.344 154.212 204.269 154.892 203.612C155.346 203.158 155.648 202.578 155.648 202.199C155.648 201.417 155.775 201.392 157.186 202.048C158.421 202.603 160.563 202.704 161.521 202.275C162.706 201.745 163.311 199.903 162.706 198.742C162.479 198.338 162.605 198.111 163.487 197.253C164.42 196.37 164.521 196.168 164.42 195.31C164.344 194.78 164.218 194.175 164.117 193.948C164.017 193.695 164.168 193.317 164.571 192.888C164.899 192.535 165.327 191.828 165.478 191.323C166.285 188.901 163.084 185.646 159.908 185.646H158.85L159.026 184.308C159.102 183.602 159.177 182.617 159.177 182.138V181.28L161.017 181.431C166.083 181.886 169.864 184.081 170.898 187.16C172.158 190.945 170.267 196.143 165.882 200.988C163.512 203.612 160.437 206.262 157.564 208.18C154.792 209.997 148.566 213.075 145.44 214.16C140.576 215.851 133.266 217.718 130.141 218.046C129.486 218.097 128.83 218.223 128.679 218.324C128.175 218.627 119.151 219.813 114.06 220.217C108.212 220.696 101.382 221.504 100.903 221.756C100.348 222.059 100.298 222.639 100.802 222.816C102.39 223.447 109.473 223.169 113.178 222.362C114.161 222.134 115.219 221.907 115.572 221.832C116.076 221.731 116.278 221.857 116.656 222.437C117.185 223.396 117.261 224.935 116.984 231.194C116.807 235.181 116.858 236.291 117.185 237.855C118.395 243.508 122.025 246.965 128.25 248.353C129.511 248.605 134.577 248.53 135.358 248.227C136.467 247.798 137.224 246.99 137.4 246.057C137.602 244.997 137.375 244.341 136.442 243.281C134.879 241.514 132.157 240.631 126.889 240.177C124.041 239.925 123.159 239.622 122.075 238.461C121.168 237.502 120.664 236.013 120.361 233.339C119.832 228.645 121.042 224.481 123.613 222.16C125.503 220.444 127.721 219.586 132.838 218.576C147.558 215.649 158.371 210.4 165.806 202.578C170.948 197.152 173.191 191.449 171.931 187.059C171.427 185.318 169.713 183.324 167.823 182.289C166.285 181.457 163.462 180.674 161.194 180.447L159.429 180.271V179.463C159.429 179.009 159.707 177.924 160.034 177.041C160.715 175.224 161.546 174.618 162.303 175.375C163.21 176.284 167.117 176.258 170.52 175.299C173.443 174.467 174.653 173.407 174.023 172.246C173.418 171.111 169.209 171.01 165.025 172.019C163.865 172.297 162.832 172.524 162.706 172.524C162.605 172.524 162.731 172.095 162.983 171.59C163.286 171.01 163.386 170.454 163.286 170.126C163.185 169.849 163.084 169.067 163.084 168.36C163.084 167.3 163.008 167.073 162.454 166.795C162.101 166.619 161.32 166.467 160.664 166.467H159.53L159.959 163.364C160.488 159.755 160.538 158.493 160.185 158.266C160.034 158.165 159.757 158.216 159.58 158.367C159.278 158.62 154.64 159.654 153.884 159.654C153.733 159.654 153.632 159.377 153.632 159.023C153.632 158.67 153.481 158.165 153.33 157.888C152.876 157.156 153.355 156.525 154.439 156.424C155.144 156.374 155.598 156.55 156.682 157.358C158.169 158.493 158.673 158.645 158.673 157.938C158.673 157.509 156.052 154.178 155.069 153.371C154.842 153.194 154.64 152.841 154.64 152.614C154.64 151.327 151.943 148.425 148.944 146.482L147.331 145.447L147.532 142.52C147.633 140.905 147.709 136.59 147.709 132.906C147.709 126.622 147.684 126.168 147.205 125.335C146.902 124.856 146.423 124.351 146.121 124.2C145.44 123.897 145.39 123.569 146.02 123.569C147.23 123.569 147.457 121.803 146.423 120.541C146.045 120.112 145.793 119.733 145.844 119.683C145.894 119.632 146.423 119.355 147.028 119.027C148.087 118.421 148.465 117.765 148.289 116.831C148.163 116.074 146.474 115.671 144.634 115.948C143.752 116.049 143.046 116.125 143.046 116.049C143.046 115.999 143.248 115.645 143.5 115.292C144.407 113.955 144.659 113.046 144.306 112.214C144.13 111.785 143.676 111.28 143.323 111.078C142.945 110.901 142.491 110.447 142.29 110.094C141.836 109.211 140.929 109.009 139.87 109.513C138.761 110.069 137.929 111.381 137.097 113.98L136.392 116.125L136.165 115.242C135.837 114.005 135.862 102.624 136.19 95.4579C136.442 90.0325 136.442 89.3259 136.064 88.5437C135.283 86.9034 132.888 85.9193 128.755 85.566L126.688 85.3894L127.419 84.4809C128.351 83.3958 128.477 81.8566 127.696 81.4276C126.99 81.0491 125.528 81.1248 124.47 81.5537C123.537 81.9575 123.537 81.9575 122.907 81.15C122.352 80.4182 122.226 80.3677 121.143 80.5191C120.16 80.6453 119.933 80.5948 119.656 80.1658C119.101 79.2574 117.816 79.6107 117.11 80.8472C116.908 81.2257 116.858 81.2257 116.454 80.8472C115.976 80.3677 115.295 80.292 114.892 80.6958C114.69 80.8976 114.488 80.7462 114.161 80.2163C113.556 79.1565 112.699 78.8032 111.64 79.1565C110.834 79.4341 110.708 79.3836 109.876 78.6518C109.12 77.9957 108.792 77.8695 107.96 77.9452C107.078 77.9957 106.902 77.92 106.599 77.3144C105.843 75.9012 104.457 75.7246 103.726 76.9359ZM105.667 77.7938C105.894 78.1471 106.095 79.0303 106.146 79.7369C106.171 80.4687 106.221 81.2005 106.272 81.4023C106.322 81.6042 106.196 81.8061 105.944 81.8566C105.667 81.9323 105.44 81.6799 105.238 80.9986C105.062 80.4687 104.759 79.8126 104.583 79.535C104.154 78.9546 104.129 78.2985 104.482 77.6172C104.835 76.9611 105.137 77.0116 105.667 77.7938ZM103.045 80.6705C103.222 82.3108 103.726 83.5473 104.381 83.9005C104.608 84.0267 104.759 84.2791 104.709 84.4305C104.457 85.1623 102.39 82.5631 101.987 81.0238C101.659 79.8126 101.835 79.1565 102.466 79.1565C102.818 79.1565 102.919 79.4593 103.045 80.6705ZM108.54 80.5948C109.019 81.7304 109.195 83.6987 108.817 83.6987C108.313 83.6987 107.456 82.4117 107.33 81.478C107.154 80.2415 107.406 79.0808 107.784 79.3079C107.935 79.3836 108.263 79.964 108.54 80.5948ZM110.027 80.4434C110.027 80.5696 109.926 80.6705 109.775 80.6705C109.649 80.6705 109.523 80.4939 109.523 80.2668C109.523 80.0649 109.649 79.964 109.775 80.0397C109.926 80.1154 110.027 80.292 110.027 80.4434ZM113.304 80.8976C113.43 81.1752 113.556 81.7304 113.556 82.1089C113.556 83.0678 112.346 85.4651 111.892 85.4651C111.439 85.4651 110.582 84.0772 110.38 82.9921C110.052 81.2509 112.522 79.4845 113.304 80.8976ZM119.101 81.1752C119.303 81.5537 119.303 81.9575 119.126 82.5126C119 82.9669 118.824 83.8501 118.723 84.5314C118.521 85.9698 118.219 85.8688 117.866 84.2286C117.589 82.9416 117.891 81.2257 118.446 80.8724C118.824 80.6201 118.799 80.5948 119.101 81.1752ZM122.075 81.7304C122.403 82.0584 122.504 83.194 122.201 83.194C122.075 83.194 121.622 83.7491 121.168 84.4305C120.588 85.2632 120.336 85.8941 120.412 86.3735C120.487 87.0296 120.639 87.1305 122 87.4838C124.344 88.1147 125.654 88.9222 125.654 89.7802C125.654 90.4615 125.226 90.5876 123.865 90.2596C122.957 90.0325 122.176 89.5783 121.168 88.6951C119.63 87.3324 119.529 87.0548 120.26 85.3389C120.462 84.8594 120.613 83.9258 120.613 83.2444C120.613 82.0584 120.916 81.4276 121.495 81.4276C121.647 81.4276 121.899 81.5537 122.075 81.7304ZM116.228 83.4968C116.328 84.8342 116.328 84.8342 115.95 84.0772C115.497 83.1435 115.421 81.4276 115.85 81.8566C116.026 82.0332 116.177 82.765 116.228 83.4968ZM100.046 82.4874C100.626 83.2949 100.55 84.0267 99.8191 84.708L99.1889 85.2884L98.6344 84.5566C98.3068 84.1529 98.0547 83.7491 98.0799 83.6482C98.1051 83.522 98.1303 83.2949 98.1555 83.093C98.1807 82.6136 98.8865 81.9323 99.315 81.9323C99.5166 81.9323 99.8443 82.1846 100.046 82.4874ZM127.217 82.8155C127.167 83.093 126.94 83.5473 126.713 83.7996C126.058 84.5314 124.092 85.7174 123.512 85.7174C123.235 85.7174 122.731 85.8941 122.428 86.1212C121.697 86.6259 121.722 86.5501 122.705 84.809C123.663 83.0678 125.024 82.1341 126.41 82.2351C127.141 82.3108 127.267 82.4117 127.217 82.8155ZM101.961 83.4968C101.961 83.5977 101.861 83.6987 101.709 83.6987C101.583 83.6987 101.457 83.5977 101.457 83.4716C101.457 83.3454 101.382 83.0173 101.306 82.765C101.18 82.3612 101.205 82.3612 101.558 82.7902C101.785 83.0678 101.961 83.3706 101.961 83.4968ZM107.229 84.4557L108.011 85.9698H107.305C106.725 85.9698 106.498 85.7931 106.171 85.0865C105.591 83.8501 105.616 82.9416 106.272 82.9416C106.372 82.9416 106.801 83.623 107.229 84.4557ZM114.564 84.38C114.564 84.6323 114.463 84.9856 114.337 85.1875C114.01 85.6922 114.262 86.1969 115.068 86.6006C115.471 86.8025 115.824 87.2315 115.875 87.61C116.051 88.4175 115.95 88.4175 114.816 87.4081C114.312 86.9791 113.682 86.4744 113.43 86.323C112.976 86.0707 112.976 86.0202 113.505 85.3389C113.808 84.9604 114.06 84.4809 114.06 84.3043C114.06 84.1024 114.186 83.951 114.312 83.951C114.463 83.951 114.564 84.1529 114.564 84.38ZM96.6684 84.6828C96.6684 85.0613 96.4416 85.1875 95.6602 85.2632C95.1057 85.3137 94.652 85.3137 94.652 85.2884C94.652 85.1623 96.2651 84.2034 96.492 84.2034C96.5928 84.2034 96.6684 84.4305 96.6684 84.6828ZM102.818 85.5155C103.549 86.5754 103.348 86.9791 102.113 86.9791C100.777 86.9791 100.626 86.8025 101.029 85.7426C101.382 84.7837 102.239 84.6828 102.818 85.5155ZM110.254 85.9445C109.851 86.0707 109.422 85.566 109.649 85.1875C109.8 84.9604 109.952 85.0108 110.204 85.3641C110.43 85.6922 110.456 85.8688 110.254 85.9445ZM93.6186 86.3987C92.8876 87.5848 93.8958 89.3259 95.6098 89.8559L96.1643 90.0325L95.6602 90.7643C95.3829 91.1428 95.1561 91.8241 95.1561 92.2531C95.1561 92.9849 95.1057 93.0354 94.2235 93.0354C92.2575 93.0354 87.5946 91.6475 87.5946 91.0671C87.5946 90.5876 93.5682 85.566 93.8454 85.8183C93.8958 85.8688 93.795 86.1464 93.6186 86.3987ZM104.936 86.424C104.986 86.6006 104.86 86.7268 104.633 86.7268C104.406 86.7268 104.23 86.5501 104.23 86.323C104.23 85.8941 104.784 85.9698 104.936 86.424ZM117.337 86.2221C117.337 86.3483 117.286 86.4744 117.236 86.4744C117.16 86.4744 117.034 86.3483 116.959 86.2221C116.883 86.0707 116.933 85.9698 117.059 85.9698C117.211 85.9698 117.337 86.0707 117.337 86.2221ZM97.0213 87.4838C97.1977 88.1399 97.5758 89.0484 97.9035 89.5783C98.5336 90.6129 98.4076 91.1176 97.2733 92.0008C95.8871 93.0858 95.7106 92.2027 97.0465 90.84C97.5254 90.3353 97.8531 89.8559 97.7774 89.7297C97.727 89.6035 97.1977 89.3764 96.6432 89.225C94.0975 88.4427 93.5682 86.0707 96.0131 86.2978C96.6432 86.3483 96.7692 86.4997 97.0213 87.4838ZM130.746 86.8277C132.863 87.2567 134.249 87.7866 134.728 88.367C135.031 88.7203 134.98 88.8717 134.325 89.4016C133.039 90.4615 130.141 91.7232 127.797 92.2531C124.873 92.884 119.076 93.2877 112.976 93.2877C108.49 93.2625 108.187 93.2373 108.843 92.884C109.246 92.6821 109.876 92.0008 110.254 91.3951C110.96 90.2848 110.96 90.2848 111.464 90.7391C112.144 91.3699 113.43 92.026 113.984 92.026C114.236 92.026 114.715 91.8746 115.068 91.698C115.648 91.3951 115.724 91.4204 115.95 92.1522C116.53 93.8934 117.69 92.783 117.992 90.1587L118.168 88.7708L119.378 89.8054C120.235 90.5119 120.865 90.84 121.546 90.8905C122.075 90.9409 123.008 91.1176 123.638 91.269C125.453 91.7232 126.663 91.1428 126.663 89.8054C126.663 88.8465 126.058 88.0894 124.823 87.4333L123.764 86.853L124.898 86.7016C126.94 86.424 128.855 86.4744 130.746 86.8277ZM98.6092 86.9287C99.0377 87.2062 99.315 88.6446 98.9873 88.8465C98.6848 89.0231 98.332 88.468 98.0799 87.4081C97.9035 86.7016 98.0547 86.5754 98.6092 86.9287ZM113.001 87.3324C114.816 88.4932 115.497 89.6287 114.917 90.4867C114.463 91.1176 114.035 91.1428 113.052 90.6381C111.59 89.8811 110.657 87.5343 111.565 86.9539C112.018 86.6763 111.918 86.6511 113.001 87.3324ZM106.877 87.5848C107.33 87.9128 107.33 87.9633 106.927 89.0484C106.347 90.5876 106.372 92.1522 107.003 92.783C107.28 93.0606 107.507 93.3634 107.507 93.4391C107.507 93.5148 106.599 93.5401 105.49 93.5148C103.776 93.4391 103.474 93.3887 103.625 93.0354C104.028 92.1774 104.003 90.5624 103.625 89.7802C103.045 88.6951 103.423 88.1147 104.936 87.6605C105.591 87.4586 106.196 87.2819 106.272 87.2567C106.347 87.2315 106.624 87.3829 106.877 87.5848ZM101.508 87.9885C101.81 87.9885 101.961 88.0642 101.861 88.1651C101.76 88.2661 101.483 88.367 101.256 88.367C100.525 88.367 100.752 89.3259 101.533 89.5278C101.936 89.6287 102.415 89.8559 102.617 90.0325C103.045 90.3858 103.096 92.0512 102.667 92.4802C102.113 93.0354 101.029 92.8335 100.348 92.0008C99.6174 91.1428 99.5418 90.7391 99.9955 89.9315C100.147 89.6287 100.273 88.9979 100.248 88.5437C100.222 87.8623 100.298 87.7109 100.6 87.8371C100.827 87.9128 101.231 87.9885 101.508 87.9885ZM110.027 88.8717C110.027 89.225 109.876 89.8811 109.674 90.3605C109.321 91.2185 108.086 92.354 107.759 92.1522C106.801 91.5718 107.759 88.5941 108.969 88.4175C109.347 88.367 109.725 88.2913 109.851 88.2661C109.952 88.2661 110.027 88.5184 110.027 88.8717ZM99.5166 92.6569L99.9703 93.2877H98.7856H97.601L98.1807 92.6569C98.9117 91.8746 98.9621 91.8746 99.5166 92.6569ZM94.652 102.524C93.9211 104.668 93.6186 104.769 93.795 102.826C93.9463 100.959 94.3243 99.3692 94.7276 98.8645C95.3073 98.1832 95.2317 100.757 94.652 102.524ZM130.04 99.4954C130.519 100.732 129.687 106.511 129.107 105.93C128.729 105.552 128.729 100.353 129.133 99.6468C129.511 98.9907 129.813 98.9402 130.04 99.4954ZM120.336 102.372C120.361 104.239 120.034 106.435 119.58 107.545L119.277 108.302L119.051 107.167C118.723 105.577 118.975 101.893 119.479 100.707C119.857 99.8234 119.933 99.773 120.109 100.227C120.235 100.505 120.336 101.464 120.336 102.372ZM109.447 102.423C109.372 103.306 109.12 104.467 108.893 105.022L108.515 106.031L108.616 104.265C108.742 102.599 109.145 100.858 109.447 100.858C109.523 100.858 109.523 101.565 109.447 102.423ZM93.5934 110.346C93.7698 110.927 94.1731 111.785 94.5008 112.289C95.0301 113.071 95.0805 113.324 94.8788 114.03C94.7528 114.485 94.652 115.999 94.652 117.412V119.96L92.0811 121.02C89.2077 122.232 88.1995 122.837 87.9726 123.594C87.7458 124.25 88.2499 124.831 89.006 124.831C89.9386 124.831 92.5096 123.695 93.9463 122.686C94.6268 122.181 95.2569 121.828 95.3073 121.878C95.3829 121.929 95.2821 122.307 95.1309 122.711C94.9797 123.115 94.652 124.402 94.4 125.588L93.9715 127.707L92.7364 127.632C89.863 127.48 85.5025 126.345 82.9316 125.083C80.4615 123.897 76.0002 120.793 76.0002 120.263C76.0002 119.632 77.7393 117.639 79.4029 116.402C81.6209 114.712 84.8976 112.895 85.7546 112.895C86.662 112.895 86.8384 113.324 86.8384 115.645C86.8384 117.008 86.9644 117.816 87.1913 118.169C87.5694 118.648 87.5694 118.648 88.0735 118.144C88.3507 117.866 89.5606 115.671 90.7452 113.248C91.9298 110.826 92.9885 108.958 93.1145 109.084C93.2153 109.211 93.4422 109.766 93.5934 110.346ZM130.796 112.264C131.326 113.097 132.309 114.182 132.964 114.712L134.148 115.645L133.846 116.806C133.266 119.153 131.905 120.465 129.057 121.5C125.957 122.61 124.369 122.862 118.849 123.064C115.875 123.19 113.127 123.392 112.749 123.544C111.237 124.124 111.741 124.705 113.934 124.957C116.127 125.209 119.782 124.78 127.797 123.291C129.007 123.064 131.477 122.232 133.392 121.399C133.594 121.298 133.569 121.55 133.342 122.232C132.863 123.519 132.888 124.604 133.367 125.285C133.947 126.118 134.879 126.017 135.484 125.033C135.938 124.25 136.089 123.594 136.367 121.071C136.417 120.465 136.518 119.91 136.593 119.86C136.921 119.506 137.526 120.188 138.635 122.105C139.29 123.241 140.046 124.452 140.324 124.755C140.803 125.285 140.803 125.31 140.349 125.537C139.442 126.017 134.123 127.606 132.132 127.985C125.906 129.171 116.732 129.499 108.112 128.843L103.852 128.515L102.919 126.572C101.835 124.376 101.785 124.225 102.415 124.553C102.642 124.679 103.726 124.982 104.835 125.209C108.011 125.916 111.035 125.386 111.035 124.124C111.035 123.443 109.826 122.408 108.263 121.777C107.028 121.247 106.423 121.197 102.793 121.172C98.7604 121.121 98.71 121.121 97.8279 120.44C96.6432 119.557 96.1643 118.573 96.1643 117.134C96.1643 116.226 96.3155 115.847 96.7944 115.343C97.5758 114.56 97.8279 114.686 98.0043 115.973C98.1807 117.462 98.9621 118.85 99.8191 119.279C100.248 119.481 100.676 119.809 100.777 119.96C101.407 120.945 102.541 119.885 103.373 117.513C104.129 115.393 104.18 115.368 104.054 117.311C103.927 118.825 104.003 119.38 104.306 119.86C105.515 121.702 108.011 119.834 108.011 117.084C108.011 116.175 107.229 114.485 106.826 114.485C106.7 114.485 106.473 114.384 106.297 114.257C106.045 114.106 106.146 113.702 106.776 112.39C107.255 111.456 107.683 110.699 107.784 110.699C107.885 110.699 108.086 111.229 108.238 111.86C109.725 117.765 114.161 118.774 117.69 113.98C118.294 113.147 118.874 112.314 118.95 112.163C119.051 111.936 119.151 111.936 119.227 112.113C120.714 115.115 122.605 116.554 124.394 116.024C125.654 115.645 127.167 113.98 128.326 111.658C129.133 110.043 129.284 109.867 129.536 110.27C129.687 110.523 130.242 111.431 130.796 112.264ZM140.777 110.447C140.273 110.775 139.946 110.775 140.147 110.447C140.223 110.296 140.5 110.195 140.727 110.195C141.105 110.195 141.105 110.245 140.777 110.447ZM102.289 111.759C102.566 112.113 102.844 112.971 102.894 113.652C102.995 114.737 102.919 114.989 102.188 115.948L101.357 117.008L100.903 116.15C100.676 115.696 100.122 115.015 99.6678 114.636C98.9873 114.056 98.9117 113.854 99.0377 113.122C99.4158 111.128 101.256 110.346 102.289 111.759ZM141.609 112.668C141.282 114.964 138.862 118.623 138.106 117.992C137.551 117.538 137.677 115.292 138.358 113.854C139.013 112.441 139.416 112.012 140.45 111.734C141.534 111.431 141.76 111.633 141.609 112.668ZM143.172 113.829C142.668 114.888 141.886 115.671 142.113 114.863C142.189 114.586 142.391 113.803 142.567 113.147C142.844 112.012 142.869 111.961 143.222 112.466C143.525 112.895 143.525 113.071 143.172 113.829ZM106.7 115.999C107.381 117.311 106.423 119.86 105.389 119.456C104.558 119.128 105.112 115.141 105.944 115.292C106.171 115.343 106.498 115.645 106.7 115.999ZM99.6426 116.175C100.222 117.033 100.575 118.27 100.197 118.27C99.9199 118.27 98.9369 116.453 98.9369 115.872C98.9369 115.343 99.0881 115.393 99.6426 116.175ZM134.93 118.699C134.123 119.557 133.972 119.405 134.501 118.27C134.753 117.74 134.98 117.084 135.005 116.831C135.031 116.579 135.131 116.781 135.232 117.26C135.409 117.992 135.358 118.245 134.93 118.699ZM146.776 116.907C147.633 117.159 147.432 117.664 146.247 118.245C144.936 118.875 144.105 118.875 142.416 118.295L141.156 117.841L142.542 117.437C144.835 116.756 145.743 116.63 146.776 116.907ZM136.997 118.27C136.997 118.396 136.871 118.522 136.719 118.522C136.593 118.522 136.543 118.396 136.619 118.27C136.694 118.118 136.82 118.017 136.896 118.017C136.946 118.017 136.997 118.118 136.997 118.27ZM139.568 120.188C139.517 120.869 139.668 121.146 140.677 122.03C141.332 122.585 142.29 123.19 142.819 123.367C143.374 123.519 143.802 123.746 143.802 123.847C143.802 124.048 142.189 124.831 141.786 124.831C141.584 124.831 140.097 122.585 138.912 120.465L138.207 119.254L138.937 119.33C139.568 119.405 139.643 119.506 139.568 120.188ZM145.163 120.894C146.222 121.878 146.323 122.484 145.44 122.711C144.634 122.913 144.634 122.913 143.197 121.348L141.962 120.036H143.122C144.079 120.036 144.407 120.188 145.163 120.894ZM74.261 121.828L74.009 122.433V121.777C73.9838 121.424 74.0594 121.046 74.1602 120.945C74.4627 120.642 74.5131 121.172 74.261 121.828ZM135.182 122.56C134.905 124.149 134.552 124.906 134.199 124.705C133.846 124.477 133.922 123.72 134.501 122.156C135.157 120.44 135.535 120.667 135.182 122.56ZM76.9832 122.56C81.2177 125.916 84.6708 127.455 89.737 128.237C94.2487 128.919 93.8454 128.767 94.0219 129.878C94.1227 130.407 94.3495 130.988 94.5512 131.165C95.1561 131.669 96.1643 131.139 96.744 130.054C97.1977 129.171 97.2985 129.121 98.458 129.121C99.4914 129.121 99.7434 129.221 100.122 129.777C102.44 133.133 104.205 133.537 104.23 130.685V129.575L106.448 129.751C121.622 130.862 132.435 129.878 140.072 126.698L141.508 126.092L142.34 126.597C143.449 127.278 144.432 127.253 144.911 126.547C145.138 126.244 145.314 125.79 145.314 125.537C145.314 124.881 145.743 124.982 146.247 125.764C146.65 126.395 146.701 127.177 146.675 134.294C146.65 141.157 146.045 152.967 145.692 153.32C145.566 153.446 143.575 149.258 142.517 146.608C141.332 143.681 141.156 142.545 141.609 141.082C142.869 137.196 143.298 131.442 142.491 129.55C142.239 129.045 141.886 128.616 141.685 128.616C139.643 128.616 138.786 134.975 139.92 141.864C140.198 143.555 136.997 147.794 135.434 147.794C134.476 147.794 133.468 147.012 132.712 145.7C131.804 144.135 131.804 143.933 132.51 142.343C133.392 140.299 133.972 137.7 133.972 135.53C133.972 133.259 133.67 132.552 132.712 132.704C131.351 132.906 130.469 135.429 130.418 139.366C130.418 140.754 130.494 142.318 130.569 142.823C130.721 143.605 130.645 143.958 130.09 144.766C129.183 146.129 128.225 147.012 126.99 147.567C126.032 148.021 125.831 148.021 125.075 147.693C124.268 147.365 123.134 146.129 123.134 145.573C123.134 145.447 123.461 144.614 123.865 143.731C124.823 141.561 125.226 139.719 125.226 137.498C125.201 135.303 124.747 134.42 123.638 134.42C121.672 134.42 120.538 139.315 121.47 143.756L121.823 145.397L120.84 146.709C119.857 148.046 118.219 149.333 116.908 149.838C114.64 150.696 112.321 148.475 111.161 144.337C110.682 142.621 110.708 142.318 111.64 139.24C112.447 136.64 112.548 133.764 111.842 132.906C111.313 132.224 110.657 132.426 110.128 133.436C109.599 134.495 109.195 138.028 109.397 140.123C109.548 141.813 109.498 142.041 108.742 143.529C107.834 145.397 105.137 148.173 103.6 148.904C100.273 150.494 97.2229 148.904 95.635 144.766L95.1057 143.378L95.761 141.233C96.6684 138.255 96.9961 136.287 96.8449 134.697C96.5676 132.149 95.3577 131.871 94.3243 134.117C93.8202 135.177 93.7698 135.757 93.7698 139.467L93.7446 143.63L92.812 145.094C91.1233 147.668 89.1573 148.601 87.3677 147.693C86.3847 147.188 84.9228 144.942 84.1919 142.873C83.2593 140.173 83.1837 139.24 83.7886 137.397C84.7212 134.521 84.9228 131.543 84.2171 130.407C83.9146 129.928 83.0828 130.105 82.6796 130.736C82.1502 131.543 81.7722 135.025 81.9738 137.423L82.125 139.391L80.89 141.738C79.3273 144.69 76.9832 147.34 76.0254 147.239C74.7147 147.087 74.6139 146.229 74.6139 135.177C74.6139 127.909 74.7147 124.705 74.9416 123.367C75.1432 122.383 75.3701 121.55 75.4961 121.55C75.6221 121.55 76.2774 122.004 76.9832 122.56ZM98.4328 122.156C98.4328 122.332 98.8865 122.913 99.4662 123.443C100.474 124.452 102.466 127.48 102.466 128.061C102.466 128.237 102.088 128.364 101.508 128.364H100.55L98.9873 125.134C98.1303 123.342 97.4246 121.828 97.4246 121.727C97.4246 121.651 97.6514 121.651 97.9287 121.727C98.2059 121.803 98.4328 122.004 98.4328 122.156ZM93.1397 121.904C93.1397 122.105 91.8542 122.837 90.6192 123.317C89.0817 123.922 88.9556 123.619 90.4427 122.862C92.1567 122.004 93.1397 121.651 93.1397 121.904ZM106.549 122.332C108.112 122.661 109.775 123.519 109.775 123.998C109.775 125.134 104.734 124.553 101.105 122.989C100.096 122.56 99.9451 122.433 100.348 122.282C101.079 121.979 105.062 122.03 106.549 122.332ZM96.6684 125.007C96.6684 126.37 96.5676 127.606 96.4668 127.783C96.1139 128.338 95.1561 127.859 95.1561 127.152C95.1561 126.219 96.1895 122.56 96.4416 122.56C96.5676 122.56 96.6684 123.67 96.6684 125.007ZM144.256 125.512C144.155 126.017 143.273 126.143 143.122 125.663C143.021 125.411 143.399 125.209 144.13 125.108C144.256 125.108 144.306 125.285 144.256 125.512ZM99.1889 127.935C99.1889 128.061 98.8109 128.111 98.3824 128.061C97.5758 127.985 97.5506 127.96 97.6262 126.976C97.6766 126.42 97.7774 125.865 97.8531 125.739C98.0043 125.537 99.1637 127.48 99.1889 127.935ZM95.9123 129.146C95.9123 129.297 95.7862 129.65 95.6098 129.953L95.3073 130.508L95.1561 129.878C95.0553 129.524 95.0301 129.171 95.0805 129.045C95.2317 128.767 95.9123 128.843 95.9123 129.146ZM103.171 130.584C103.297 131.72 102.743 131.644 101.886 130.382C101.281 129.524 101.331 129.423 102.289 129.6C102.97 129.751 103.096 129.903 103.171 130.584ZM141.811 134.697C141.13 140.855 140.45 141.435 140.576 135.732C140.651 132.527 140.752 131.568 141.13 130.761L141.609 129.751L141.836 131.013C141.987 131.846 141.987 133.108 141.811 134.697ZM83.5113 133.36C83.4609 134.42 83.2593 135.53 83.0828 135.808C82.8308 136.237 82.8056 136.06 82.9316 134.798C83.2845 131.064 83.713 130.029 83.5113 133.36ZM132.964 135.48C132.964 137.322 132.309 140.451 131.729 141.384C131.199 142.217 131.527 136.035 132.082 134.723C132.309 134.142 132.611 133.663 132.737 133.663C132.863 133.663 132.964 134.495 132.964 135.48ZM95.9123 135.152C95.9123 136.666 95.2317 139.997 94.8536 140.35C94.5008 140.678 94.7528 135.858 95.1561 134.723C95.5846 133.537 95.9123 133.738 95.9123 135.152ZM111.01 137.751C110.708 139.29 110.279 139.719 110.279 138.508C110.304 137.448 110.758 134.395 110.985 134.066C111.313 133.562 111.338 136.262 111.01 137.751ZM124.192 136.338C124.318 136.741 124.344 137.675 124.268 138.407C124.117 139.946 122.932 143.756 122.605 143.756C121.848 143.756 122.025 138.407 122.831 136.615C123.436 135.278 123.865 135.177 124.192 136.338ZM72.8243 141.511C72.9 141.94 72.9756 143.126 72.9756 144.135C72.9756 147.037 73.2024 148.299 73.7569 148.299C74.0342 148.299 74.2358 148.122 74.2358 147.92C74.2358 147.617 74.3366 147.617 74.9416 147.971C75.9246 148.526 77.21 148.248 78.2687 147.214C79.4029 146.129 80.8396 144.135 81.6713 142.545C82.4275 141.107 82.6796 141.056 82.9316 142.318C83.2593 143.756 84.4943 146.179 85.4521 147.264C86.6872 148.627 87.5441 149.056 88.9304 149.056C90.4175 149.056 92.1819 147.87 93.3917 146.103C93.8706 145.371 94.3243 144.791 94.4 144.766C94.4756 144.766 94.8536 145.447 95.2317 146.28C96.8701 149.813 99.9451 151.327 103.247 150.191C104.86 149.636 107.103 147.769 108.59 145.725L109.876 143.958L110.304 145.17C111.741 149.409 114.01 151.428 116.807 150.948C117.992 150.746 120.487 148.98 121.546 147.592L122.352 146.507L122.781 147.163C124.243 149.409 127.041 149.485 129.334 147.365C129.763 146.961 130.317 146.33 130.569 145.952C130.796 145.573 131.073 145.271 131.174 145.271C131.25 145.271 131.603 145.8 131.93 146.431C132.334 147.188 132.913 147.794 133.644 148.223C134.653 148.803 134.829 148.829 135.913 148.576C137.526 148.147 138.307 147.542 139.492 145.725C140.349 144.413 140.525 144.261 140.677 144.665C141.282 146.33 143.172 150.822 143.928 152.336C144.432 153.346 144.785 154.204 144.709 154.279C144.432 154.557 133.569 156.197 126.032 157.105C109.573 159.099 93.4422 157.358 74.992 151.579C70.2282 150.09 65.6661 148.248 65.0359 147.542C64.179 146.583 64.5066 146.229 70.1022 142.318C71.3372 141.435 72.4211 140.728 72.4967 140.728C72.5975 140.728 72.7235 141.082 72.8243 141.511ZM148.793 147.844C150.859 149.258 152.271 150.545 152.851 151.579C153.279 152.361 153.33 152.614 153.078 152.715C152.422 152.967 146.978 154.077 146.827 153.976C146.675 153.901 146.776 152.664 147.23 148.349C147.306 147.643 147.432 147.037 147.482 147.037C147.558 147.037 148.137 147.39 148.793 147.844ZM63.322 148.728C63.2212 149.535 63.0447 151.327 62.8935 152.715C62.7675 154.103 62.7171 155.945 62.7927 156.803C62.8935 157.686 62.8935 158.392 62.7927 158.392C62.4902 158.392 60.3478 156.904 58.4826 155.364C57.5248 154.582 56.4662 153.8 56.1637 153.648C55.0043 153.018 56.2141 151.352 58.9867 149.762C59.9697 149.232 61.2552 148.45 61.8853 148.046C62.5154 147.643 63.1204 147.315 63.2464 147.315C63.3724 147.289 63.3976 147.945 63.322 148.728ZM66.7499 149.636C69.1696 150.822 76.5799 153.27 81.6713 154.607C87.3173 156.096 94.4504 157.459 101.079 158.317C105.717 158.922 119.429 158.922 124.772 158.317C133.266 157.333 147.633 155.112 151.742 154.128L153.758 153.623L154.464 154.304C155.22 155.011 155.371 155.49 154.766 155.263C154.262 155.087 153.153 155.516 152.447 156.172C152.019 156.576 151.817 156.626 151.414 156.399C150.204 155.768 147.633 156.273 146.449 157.383C145.995 157.812 145.768 157.837 145.062 157.635C142.466 156.878 138.207 157.837 136.341 159.578C135.711 160.159 135.56 160.184 134.879 159.957C132.661 159.175 130.595 159.377 129.208 160.563C128.452 161.193 128.427 161.193 127.141 160.815C124.243 159.932 120.84 160.462 118.748 162.051C117.891 162.708 117.74 162.733 116.883 162.48C115.068 161.95 114.035 161.9 112.699 162.279C111.968 162.506 111.212 162.859 111.035 163.061C110.758 163.414 110.657 163.414 110.304 163.086C109.725 162.556 107.809 161.774 106.65 161.597C106.095 161.496 104.835 161.547 103.852 161.698C102.163 161.925 101.961 161.9 100.676 161.294C99.567 160.79 98.9369 160.664 97.1977 160.664C95.9627 160.664 94.4252 160.84 93.5682 161.092C92.2323 161.471 92.0559 161.471 91.8542 161.118C91.7282 160.916 91.0477 160.462 90.3167 160.159C88.4263 159.326 85.6286 159.301 84.0658 160.108L82.9316 160.664L82.3015 160.159C80.1338 158.418 77.084 157.762 74.3114 158.392C73.2528 158.645 73.2024 158.62 72.2446 157.661C70.6315 156.046 68.3882 155.995 65.3888 157.509C64.7083 157.863 64.1286 158.14 64.0529 158.14C64.0025 158.14 63.8765 157.484 63.7757 156.676C63.5488 154.759 64.2294 148.4 64.6327 148.627C64.7083 148.652 65.6661 149.131 66.7499 149.636ZM54.5002 160.588C54.4498 161.269 54.4246 160.714 54.4246 159.402C54.4246 158.09 54.4498 157.534 54.5002 158.191C54.5506 158.872 54.5506 159.932 54.5002 160.588ZM151.238 157.434C151.59 157.585 151.868 157.938 151.868 158.191C151.868 158.468 151.994 158.897 152.145 159.2C152.296 159.478 152.372 159.755 152.296 159.806C152.246 159.881 151.464 160.033 150.582 160.184C149.7 160.31 148.667 160.487 148.289 160.563C147.709 160.664 147.583 160.613 147.583 160.235C147.583 159.982 147.432 159.478 147.23 159.099C146.927 158.519 146.927 158.392 147.28 158.064C148.415 157.105 149.952 156.853 151.238 157.434ZM71.2112 158.09C71.6649 158.443 71.8413 158.821 71.8665 159.402C71.8665 160.386 72.295 160.638 72.9504 160.058C73.2024 159.831 74.0342 159.528 74.8407 159.377C77.9158 158.746 81.7974 160.134 82.0494 161.925C82.2259 163.111 82.9568 163.263 83.3349 162.228C83.713 161.143 85.0236 160.563 87.2165 160.563C88.9556 160.537 89.7118 160.79 90.9468 161.774C91.3249 162.077 91.3501 162.228 91.0981 162.783C90.8208 163.364 90.846 163.515 91.1989 163.894C91.7534 164.449 92.4844 164.045 92.5852 163.111C92.6608 162.531 92.8624 162.379 94.0471 162.026C96.492 161.32 99.4662 161.547 100.827 162.531C101.231 162.834 101.256 162.935 100.978 163.288C100.474 163.894 100.827 164.953 101.558 164.953C102.239 164.953 102.667 164.524 102.793 163.742C102.944 162.783 103.398 162.581 105.339 162.581C108.187 162.581 109.75 163.515 110.405 165.635L110.556 166.215H105.188C90.1655 166.215 75.6221 163.994 66.9263 160.386C65.6157 159.831 64.5066 159.326 64.4562 159.276C64.2798 159.124 67.0019 157.812 67.9345 157.61C69.1696 157.333 70.4551 157.534 71.2112 158.09ZM144.76 158.544C145.239 158.695 145.314 158.872 145.314 159.932C145.314 161.118 145.289 161.143 144.508 161.294C138.937 162.203 134.224 163.01 132.611 163.313C131.527 163.515 130.595 163.692 130.569 163.692C130.519 163.692 130.242 163.237 129.964 162.657C129.435 161.673 129.435 161.597 129.864 161.269C130.317 160.941 131.804 160.411 132.359 160.411C132.51 160.411 133.191 160.588 133.896 160.79C134.905 161.092 135.207 161.32 135.333 161.799C135.434 162.203 135.661 162.43 135.963 162.43C136.518 162.43 136.77 161.925 136.568 161.219C136.417 160.563 138.232 159.276 140.072 158.796C141.483 158.418 143.777 158.291 144.76 158.544ZM126.562 161.698C127.721 162.001 128.049 162.354 128.2 163.439C128.301 164.045 128.276 164.045 124.52 164.625C119.378 165.382 119.529 165.408 119.177 164.272C118.925 163.465 118.95 163.237 119.277 162.884C120.386 161.673 124.041 161.067 126.562 161.698ZM116.807 163.565C117.614 163.969 118.017 165.332 117.437 165.559C117.236 165.635 115.824 165.761 114.262 165.862L111.413 166.038L111.439 165.054C111.464 164.272 111.615 163.994 112.195 163.641C113.102 163.086 115.799 163.036 116.807 163.565ZM60.373 167.502C60.5242 167.78 60.625 168.461 60.5746 169.041C60.4738 170.328 60.9275 170.555 61.5324 169.521C62.1121 168.537 63.0699 168.436 63.2716 169.369C63.3472 169.723 63.448 170.253 63.5236 170.581C63.5993 170.934 64.0529 171.388 64.7083 171.767C65.9433 172.448 66.1702 172.7 66.1702 173.457C66.1702 174.189 64.5066 175.552 63.5993 175.552C62.5658 175.552 62.6415 176.385 63.7253 176.687C64.2798 176.864 64.557 177.116 64.6075 177.495C64.7083 178.201 63.8765 178.58 62.2886 178.58C59.9949 178.58 59.1127 179.312 59.1127 181.204C59.1127 181.936 58.9363 182.163 57.3988 183.223C55.6848 184.384 53.4668 185.393 52.5846 185.393C50.543 185.393 53.744 180.977 56.1637 180.447C57.3232 180.22 58.3566 179.64 58.3566 179.236C58.3566 178.656 57.6256 178.555 56.5166 179.009C55.1303 179.564 52.8114 179.564 51.9545 179.009C50.669 178.151 51.4252 176.814 53.1895 176.814C54.4498 176.814 55.0799 176.284 54.5506 175.653C54.349 175.4 53.9205 175.299 53.3408 175.35C52.6602 175.4 52.4082 175.325 52.3577 175.022C52.1561 173.912 54.349 174.265 55.0799 175.451C55.7857 176.561 57.298 177.873 57.8021 177.772C58.0541 177.722 58.281 177.419 58.3062 177.091C58.3818 176.637 58.0037 176.107 56.6426 174.795C54.8027 173.028 54.3238 172.095 54.3238 170.227C54.3238 168.966 54.9035 168.511 55.7857 169.016C56.3654 169.319 56.4914 169.622 56.6426 170.833C56.8443 172.448 57.6256 173.785 58.3566 173.785C59.3648 173.785 59.2892 171.994 58.2053 170.025C57.4744 168.688 57.5752 167.729 58.533 166.972C59.2388 166.417 59.8941 166.594 60.373 167.502ZM162.151 168.032C162.202 168.259 162.076 168.562 161.899 168.713C161.723 168.839 161.093 169.369 160.538 169.849C159.959 170.354 159.429 170.757 159.328 170.757C159.127 170.757 159.127 169.294 159.328 168.259C159.505 167.477 159.53 167.452 160.79 167.527C161.748 167.578 162.101 167.704 162.151 168.032ZM158.119 170.303L158.043 171.136L157.614 170.328C157.161 169.546 157.211 168.966 157.766 168.259C157.993 167.981 158.068 168.057 158.119 168.688C158.169 169.142 158.169 169.874 158.119 170.303ZM155.472 169.445C155.85 169.824 156.304 170.682 156.505 171.363C156.707 172.019 157.06 172.776 157.312 173.054C157.766 173.558 158.421 173.71 158.421 173.281C158.421 173.129 158.623 173.155 158.925 173.331C159.202 173.508 159.429 173.735 159.429 173.811C159.429 173.912 158.9 174.29 158.27 174.669C157.236 175.274 156.934 175.325 155.8 175.173C154.388 174.997 152.548 174.265 152.246 173.785C151.969 173.306 152.422 173.054 153.758 172.877C155.775 172.65 155.749 172.7 154.892 171.035C154.489 170.202 154.136 169.344 154.136 169.117C154.136 168.537 154.741 168.663 155.472 169.445ZM161.446 171.842C160.967 172.297 160.765 172.423 160.942 172.145C161.622 171.186 162.025 170.757 162.177 170.883C162.252 170.959 161.925 171.388 161.446 171.842ZM172.385 172.524C173.342 172.877 173.191 173.155 171.755 173.785C170.066 174.492 166.865 175.098 165.176 174.997C163.512 174.896 163.941 174.694 166.865 174.265C168.654 173.987 169.133 173.811 169.209 173.457C169.284 173.104 169.108 173.028 168.075 173.054C167.419 173.054 166.31 173.155 165.605 173.281C164.042 173.533 163.815 173.407 165.201 173.028C167.697 172.372 171.301 172.095 172.385 172.524ZM157.564 179.186C155.674 181.835 151.49 185.646 150.456 185.646C149.675 185.646 150.179 184.232 151.792 181.936C152.775 180.523 152.977 180.372 153.582 180.498C154.313 180.649 155.648 179.892 157.539 178.252C158.093 177.772 158.597 177.419 158.648 177.47C158.698 177.495 158.194 178.277 157.564 179.186ZM59.5916 185.191C60.4234 189.027 62.2382 192.535 63.5488 192.863C64.9351 193.216 65.54 192.005 65.288 189.305L65.162 187.79L65.9685 189.103C67.9093 192.131 69.8249 193.569 71.8917 193.519C72.6227 193.493 73.5553 193.317 73.9838 193.09L74.7147 192.711L75.6221 194.124C76.7059 195.815 77.4873 196.547 79.1256 197.405C80.1842 197.96 80.6127 198.036 82.0494 197.96C83.4861 197.884 83.8894 197.733 84.9732 196.976C85.6538 196.496 86.5611 195.588 86.9644 194.982C87.7206 193.847 87.7206 193.847 89.0313 193.922C89.8378 193.973 90.6192 193.847 91.0729 193.62C91.7534 193.266 91.9046 193.266 93.0389 193.847C93.7194 194.175 94.4504 194.503 94.6772 194.579C95.0049 194.679 94.8788 194.932 94.0219 195.84C92.1567 197.859 91.9298 199.449 93.3917 200.231C95.0049 201.064 100.651 199.524 102.667 197.657C104.028 196.421 103.953 195.966 101.936 193.821C99.6426 191.349 100.071 189.557 103.096 189.052C105.263 188.699 105.213 188.749 105.616 187.311C106.07 185.746 106.498 185.292 107.255 185.519C108.364 185.873 109.17 188.169 108.54 189.153C108.364 189.405 108.238 189.33 107.986 188.775C107.507 187.79 106.599 187.664 106.196 188.548C105.944 189.103 105.994 189.305 106.473 189.961L107.028 190.718L106.524 192.156C106.246 192.938 105.843 194.049 105.641 194.604C105.163 195.865 105.137 197.506 105.566 198.111C105.919 198.591 107.481 198.767 108.414 198.439C108.893 198.263 108.969 198.338 108.969 198.944C108.969 199.726 109.8 200.534 110.657 200.534C111.061 200.534 111.413 200.837 111.817 201.442C112.724 202.956 114.463 203.411 116.278 202.654C118.471 201.745 119.529 199.6 119.277 196.572L119.151 194.957L121.042 195.992C123.789 197.506 124.949 197.38 125.906 195.487C126.184 194.932 126.486 194.478 126.562 194.478C126.663 194.478 127.368 195.083 128.175 195.84C130.847 198.288 133.518 199.146 137.879 198.969C140.727 198.843 142.139 198.414 142.466 197.607C142.718 196.951 141.987 195.739 140.878 194.932C140.273 194.503 139.769 193.998 139.769 193.847C139.769 193.695 139.946 192.989 140.173 192.307C140.399 191.626 140.626 190.92 140.677 190.743C140.752 190.491 141.004 190.566 141.559 191.046C142.063 191.475 142.643 191.702 143.197 191.702C143.928 191.702 144.105 191.828 144.533 192.635C145.894 195.31 148.49 195.865 151.515 194.099C153.178 193.14 155.296 190.617 156.505 188.219L157.614 186.024L157.791 186.983C158.043 188.245 157.715 192.358 157.287 193.367C155.825 196.875 136.266 201.72 114.564 203.94C109.649 204.445 99.0629 204.445 94.9041 203.94C85.8302 202.83 80.4363 201.392 68.5647 196.951C55.2059 191.954 54.0717 191.172 55.584 188.043C56.1133 186.958 58.7347 183.627 59.0623 183.627C59.1631 183.627 59.4152 184.333 59.5916 185.191ZM63.5488 186.554C64.2042 188.497 64.5066 191.449 64.0781 191.853C63.8261 192.106 63.0699 191.323 62.4146 190.112C61.7593 188.951 61.7593 189.027 62.4146 188.85C62.9187 188.724 62.9439 188.598 62.7927 187.361C62.3642 183.904 62.3642 183.753 62.6162 184.157C62.7423 184.359 63.1708 185.444 63.5488 186.554ZM51.3495 185.898C51.9041 186.529 52.9375 186.554 54.5758 185.923C55.2563 185.646 55.8361 185.469 55.8361 185.519C55.8361 185.57 55.4832 186.175 55.0547 186.882C53.6684 189.103 53.8449 191.147 55.4832 192.434C56.315 193.09 56.1889 193.241 54.7522 193.393C53.366 193.569 51.9041 193.09 51.526 192.383C51.1479 191.702 51.8536 190.289 52.8619 189.784C53.2399 189.582 53.5676 189.254 53.5676 189.027C53.5676 188.548 52.8619 188.27 52.4838 188.648C52.0805 189.052 50.3917 188.976 49.9381 188.522C49.3835 187.992 49.434 186.933 50.0893 185.494C50.5682 184.434 50.6438 184.333 50.7698 184.813C50.8454 185.141 51.1227 185.62 51.3495 185.898ZM76.7059 186.781C76.5799 188.32 75.7229 190.44 75.2188 190.44C74.7399 190.44 75.0424 186.125 75.5717 185.292C75.975 184.712 76.101 184.661 76.4287 184.939C76.7311 185.191 76.7815 185.595 76.7059 186.781ZM119.454 185.519C120.437 185.898 121.647 186.15 122.403 186.15C123.537 186.15 123.663 186.201 123.386 186.529C123.134 186.832 123.159 187.033 123.512 187.563C123.89 188.144 123.89 188.245 123.512 188.825C122.831 189.885 122.1 190.062 120.916 189.456C119.656 188.8 118.95 188.775 118.723 189.355C118.496 189.961 119.58 190.869 120.79 191.096C121.319 191.197 122.176 191.601 122.705 191.979C123.26 192.383 124.092 192.762 124.545 192.863C125.251 192.989 125.402 193.14 125.402 193.645C125.402 193.973 125.125 194.528 124.772 194.856C123.638 196.017 121.949 195.537 120.034 193.493C118.723 192.131 118.219 191.929 117.69 192.635C117.387 193.064 117.337 193.064 116.833 192.509C116.555 192.206 116.202 191.954 116.051 191.954C115.623 191.954 115.497 192.736 115.85 193.367C116.127 193.922 116.102 194.049 115.673 194.478C115.194 194.982 111.766 196.547 111.59 196.37C111.514 196.32 111.716 195.891 111.993 195.436C112.699 194.225 112.825 193.418 112.422 192.61C112.22 192.206 112.044 191.702 112.044 191.475C112.044 191.248 111.691 190.112 111.287 188.926C110.884 187.765 110.582 186.756 110.632 186.705C110.708 186.655 111.086 186.806 111.514 187.008C112.648 187.614 113.606 189.027 113.833 190.491C114.035 191.727 114.413 192.282 114.942 192.131C115.345 192.005 115.396 190.945 115.068 189.86C114.816 189.027 114.841 188.8 115.144 188.497C115.471 188.144 115.572 188.194 115.976 188.825C116.732 190.036 117.11 190.415 117.488 190.263C117.992 190.087 117.916 189.506 117.311 188.497C116.732 187.538 116.606 185.847 117.11 185.242C117.488 184.788 117.488 184.788 119.454 185.519ZM94.3495 186.983C94.4252 188.245 93.9211 189.633 92.8876 190.945C92.2071 191.853 91.8038 191.323 91.8038 189.506C91.8038 187.992 92.0811 187.185 92.9633 186.201C93.795 185.318 94.2487 185.57 94.3495 186.983ZM126.436 186.554C127.494 187.084 127.318 187.765 126.133 187.866C125.327 187.942 125.15 187.841 124.697 187.059L124.167 186.15H124.923C125.327 186.15 126.032 186.327 126.436 186.554ZM161.521 186.983C163.361 187.765 164.949 189.834 164.571 190.995C164.495 191.273 164.042 191.904 163.563 192.358L162.731 193.216L163.16 194.351C163.563 195.436 163.538 195.512 163.059 196.168C162.756 196.572 162.151 196.951 161.622 197.077C160.513 197.354 160.488 197.556 161.32 198.566C162.025 199.398 162.126 200.206 161.597 200.938C161.294 201.316 160.942 201.417 159.757 201.392C158.169 201.392 156.556 200.71 155.321 199.575C154.792 199.07 154.565 198.995 154.338 199.222C154.111 199.449 154.111 199.676 154.338 200.155C154.792 201.165 154.716 202.401 154.136 202.931C153.531 203.486 151.616 203.31 151.238 202.654C150.658 201.72 150.204 201.291 149.599 201.24C148.692 201.139 148.667 201.871 149.574 202.83C150.431 203.713 150.557 204.47 150.003 205.53C148.591 208.23 145.768 208.028 144.987 205.126C144.583 203.562 143.978 203.789 143.777 205.581C143.525 207.928 142.92 208.861 141.66 208.861C140.677 208.861 140.147 208.306 139.92 207.044C139.744 206.035 139.215 205.656 138.736 206.237C138.509 206.514 138.509 206.817 138.736 207.599C139.114 208.836 138.585 210.3 137.45 211.132C136.82 211.586 136.467 211.662 135.434 211.586C134.022 211.435 132.913 210.552 131.804 208.659C131.099 207.448 130.595 207.398 130.494 208.508C130.368 209.971 129.687 211.385 129.007 211.536C127.948 211.814 127.217 211.284 126.839 209.946C126.587 209.038 126.36 208.735 126.007 208.735C125.579 208.735 125.528 208.912 125.604 210.173C125.705 211.839 125.125 213.201 123.89 214.261C122.907 215.069 122.176 215.271 120.689 215.094C119.782 214.993 119.328 214.766 118.42 213.883C117.412 212.899 117.311 212.672 117.437 211.889C117.589 210.804 117.236 209.114 116.782 208.836C115.749 208.18 115.345 209.24 115.799 211.46C116.051 212.747 116.051 213.025 115.698 213.555C114.993 214.64 113.304 214.261 113.304 213C113.304 212.722 113.178 212.116 113.027 211.662C112.8 211.057 112.623 210.88 112.195 210.93C111.514 211.031 111.363 212.091 111.918 213.151C112.296 213.883 112.296 214.034 111.918 215.145C111.464 216.507 110.078 218.122 109.145 218.349C108.238 218.576 107.229 218.072 106.549 217.062C105.641 215.75 104.734 213.328 104.532 211.713C104.306 209.896 103.675 209.669 103.449 211.309C103.222 213.025 101.987 213.959 101.205 213.025C101.004 212.773 100.928 212.243 101.029 211.511C101.231 210.148 101.054 209.618 100.424 209.618C99.7687 209.618 99.4158 210.4 99.4662 211.738C99.5166 212.621 99.3906 213.025 98.8109 213.706C96.0383 217.062 92.7616 215.902 92.3835 211.41C92.3079 210.501 92.1315 209.744 91.9803 209.694C91.829 209.643 91.4509 209.971 91.1737 210.451C90.5184 211.612 89.5102 211.864 88.7036 211.107C88.1995 210.628 88.0987 210.325 88.1491 209.265C88.2247 208.23 88.1491 207.978 87.7962 207.902C87.3425 207.801 87.0148 208.356 86.7376 209.643C86.5359 210.577 84.8472 211.637 83.5365 211.637C82.7552 211.637 82.3519 211.486 81.7974 210.93C81.0916 210.224 80.5371 208.785 80.5371 207.675C80.5371 206.893 80.1842 206.767 79.4533 207.347C78.6971 207.953 77.8654 208.003 77.6637 207.448C77.5881 207.221 77.5125 206.489 77.5125 205.833C77.5125 205.152 77.3865 204.521 77.2352 204.445C77.084 204.344 76.4035 204.874 75.7481 205.656C73.0008 208.71 70.203 208.634 70.203 205.505C70.203 204.395 70.3542 203.94 70.9844 203.083C71.8917 201.821 71.8413 200.963 70.8835 201.644C68.3126 203.537 66.7247 203.991 65.5148 203.183L64.8343 202.754L65.8677 201.821C67.0524 200.761 67.2792 200.256 66.8003 199.625C66.4978 199.171 66.4222 199.171 65.5653 199.575C65.0611 199.827 64.5066 200.382 64.2546 200.837C63.7001 201.947 63.4984 202.048 61.9357 202.048C60.2722 202.048 59.2892 201.568 58.7599 200.433C58.2306 199.297 58.2558 198.742 58.8859 197.228C59.6168 195.563 59.2892 195.31 57.8021 196.269C55.1555 197.985 53.8701 196.976 55.9369 194.806C56.9955 193.67 57.0963 193.62 57.7769 193.872C63.9773 196.37 74.5887 200.332 78.2687 201.493C91.1737 205.581 103.272 206.388 120.739 204.319C134.879 202.654 150.507 198.944 155.976 195.966C158.245 194.755 158.497 194.225 158.774 190.137L159.001 186.655H159.858C160.311 186.655 161.068 186.806 161.521 186.983ZM87.645 188.447C87.8214 189.355 87.6702 191.071 87.3173 191.702C86.9644 192.383 86.2587 190.238 86.4351 188.976C86.5107 188.371 86.662 187.765 86.7376 187.639C87.0148 187.185 87.4433 187.563 87.645 188.447ZM110.909 191.828C110.96 192.989 111.061 193.367 111.388 193.418C111.741 193.493 111.741 193.594 111.313 194.427C110.355 196.294 107.885 197.985 106.7 197.607C106.272 197.48 106.196 197.304 106.297 196.395C106.448 195.209 108.011 190.869 108.364 190.718C108.893 190.491 109.775 189.33 109.775 188.825C109.8 188.421 109.926 188.548 110.33 189.305C110.657 189.935 110.859 190.869 110.909 191.828ZM125.755 189.405C125.654 189.633 125.528 190.289 125.453 190.869C125.402 191.475 125.226 191.954 125.1 191.954C124.772 191.954 123.134 191.172 123.134 191.02C123.134 190.945 123.562 190.415 124.066 189.834C124.722 189.077 125.15 188.775 125.478 188.876C125.78 188.951 125.881 189.128 125.755 189.405ZM127.696 189.935C128.351 190.289 128.301 191.071 127.62 191.55C126.763 192.156 126.41 192.055 126.41 191.222C126.41 189.784 126.738 189.431 127.696 189.935ZM134.048 193.115C136.14 193.594 138.005 194.351 138.005 194.705C138.005 195.108 137.123 195.487 136.19 195.487C134.501 195.487 131.401 194.377 130.62 193.519C130.267 193.14 130.242 192.989 130.494 192.888C131.099 192.635 132.233 192.711 134.048 193.115ZM102.466 196.143C102.466 197.228 97.8531 199.297 95.2821 199.373C92.8876 199.424 92.8372 198.566 95.0805 196.37C95.8366 195.638 97.2229 194.629 98.1303 194.124L99.8191 193.241L101.155 194.553C101.861 195.26 102.466 195.992 102.466 196.143ZM117.841 194.579C117.992 194.78 118.194 195.79 118.269 196.799C118.37 198.389 118.294 198.793 117.79 199.777C116.732 201.846 114.388 202.729 113.304 201.468C113.027 201.165 112.522 200.61 112.17 200.206C111.817 199.802 111.313 199.524 110.909 199.524C110.531 199.524 110.204 199.348 110.103 199.095C109.851 198.439 111.01 197.632 113.304 196.875C114.791 196.37 115.597 195.941 116.278 195.26C117.362 194.15 117.437 194.124 117.841 194.579ZM124.394 220.141C124.369 220.267 123.94 220.646 123.386 221.024C122.176 221.857 120.815 223.85 120.059 225.894C119.58 227.207 119.504 227.938 119.504 231.32C119.479 235.862 119.832 237.426 121.243 239.067C122.403 240.429 123.562 240.858 127.091 241.161C131.729 241.59 134.048 242.322 135.56 243.836C137.047 245.325 136.719 246.688 134.703 247.344C133.644 247.697 132.863 247.773 130.847 247.646C125.654 247.344 121.823 245.35 119.731 241.918C117.891 238.84 117.437 235.761 117.891 228.923C118.194 224.128 118.042 222.463 117.135 221.579C116.933 221.377 116.807 221.15 116.883 221.1C117.009 220.974 119.882 220.519 122 220.318C122.983 220.242 123.814 220.116 123.865 220.065C124.041 219.889 124.394 219.964 124.394 220.141ZM111.287 221.731C110.657 221.832 108.843 221.983 107.255 222.059C105.667 222.134 104.633 222.134 104.986 222.084C106.246 221.857 109.674 221.554 111.035 221.554H112.422L111.287 221.731Z" fill="#76070D"></path></svg> 