<?xml version="1.0" encoding="UTF-8" standalone="no"?> <svg xmlns="http://www.w3.org/2000/svg" version="1.0" width="536.000000pt" height="530.000000pt" viewBox="0 0 536.000000 530.000000" preserveAspectRatio="xMidYMid meet"><g transform="translate(0.000000,530.000000) scale(0.100000,-0.100000)" fill="#000000" stroke="none"><path d="M2870 4920 c-10 -19 -9 -27 8 -50 19 -25 19 -29 5 -43 -17 -17 -19 -44 -11 -212 2 -55 0 -122 -4 -149 -9 -56 5 -121 27 -130 13 -5 12 -9 -5 -26 -21 -21 -27 -74 -10 -85 15 -9 12 -25 -5 -25 -9 0 -16 14 -20 38 -19 108 -44 130 -71 62 -9 -22 -19 -40 -23 -40 -4 0 -33 14 -64 30 -75 39 -134 41 -167 5 -13 -14 -31 -25 -40 -25 -25 0 -59 -41 -80 -99 -27 -71 -27 -94 3 -86 12 4 26 11 31 16 5 4 21 6 35 3 22 -5 29 -1 39 21 7 14 12 34 12 45 0 50 66 111 105 96 9 -3 13 -2 10 4 -17 27 -85 5 -122 -39 -16 -19 -22 -22 -23 -10 0 20 37 55 73 68 21 8 37 7 69 -6 23 -9 37 -18 30 -21 -6 -2 -21 -20 -33 -39 -20 -31 -23 -51 -23 -151 -1 -79 3 -117 11 -119 18 -6 53 38 53 69 0 15 5 28 10 28 15 0 12 47 -2 53 -10 4 -10 8 -2 14 6 4 14 18 18 31 4 12 16 27 27 32 17 10 19 7 19 -32 0 -27 8 -52 20 -68 l20 -25 1 25 c1 14 3 37 4 53 1 15 5 31 10 35 6 6 -1 -222 -9 -273 -2 -12 -15 -22 -37 -28 l-34 -10 27 -7 c14 -4 104 -5 200 -2 184 6 182 20 -4 21 l-98 1 0 44 0 44 45 4 c40 3 46 1 54 -22 9 -24 9 -23 10 10 1 20 6 41 13 48 9 9 9 15 0 24 -7 7 -12 39 -12 76 0 35 -5 72 -10 82 -7 13 -7 21 1 25 6 4 12 5 14 3 2 -1 8 -57 15 -123 17 -183 30 -167 27 32 -2 169 -2 171 22 197 29 31 42 32 65 7 23 -26 12 -45 -15 -28 -17 10 -23 9 -38 -10 -16 -19 -18 -38 -15 -145 4 -182 4 -177 13 -153 5 11 12 53 16 92 5 56 14 83 37 118 16 25 34 45 39 45 17 0 9 -41 -16 -79 -17 -25 -27 -56 -30 -92 -2 -30 -2 -45 1 -34 25 83 47 126 78 145 42 25 57 25 85 -2 22 -19 23 -27 17 -88 -5 -53 -3 -70 9 -80 22 -18 45 -5 45 27 -1 27 -1 28 -16 8 -15 -19 -16 -16 -11 38 3 33 2 70 -3 82 -13 34 -54 57 -100 57 -33 -1 -40 3 -40 19 0 11 10 24 23 30 53 24 120 -41 143 -139 l14 -57 -5 58 c-2 32 -11 69 -20 83 -8 13 -11 24 -6 24 15 0 30 -32 37 -81 9 -58 21 -79 43 -79 27 0 31 19 20 94 -10 76 -46 138 -88 156 -29 11 -53 8 -130 -17 -44 -14 -44 -14 -72 17 -30 32 -56 38 -81 18 -27 -23 -48 -62 -48 -90 0 -36 -11 -35 -34 3 -21 36 -32 33 -15 -5 14 -31 6 -44 -16 -26 -25 20 -17 55 20 94 32 34 35 43 35 94 0 31 -5 64 -10 72 -7 11 -10 0 -10 -37 0 -60 -15 -106 -32 -101 -19 7 -28 58 -20 112 7 46 10 51 33 49 24 -1 25 1 28 72 1 44 -2 76 -8 80 -7 4 -11 -10 -11 -40 0 -50 -15 -89 -31 -80 -5 4 -9 35 -9 71 0 57 2 64 20 64 29 0 46 71 30 132 -9 36 -9 50 1 66 7 11 9 27 4 38 -7 17 -8 17 -14 -6 -9 -32 -46 -35 -46 -3 0 32 -12 38 -25 13z m66 -106 c11 -61 -24 -136 -42 -89 -8 21 14 125 26 125 5 0 12 -16 16 -36z m380 -519 c23 -15 58 -90 67 -142 8 -40 -10 -45 -19 -5 -15 73 -42 110 -84 117 -19 3 -50 28 -45 36 9 14 58 11 81 -6z m-493 -19 c5 -14 -10 -36 -25 -36 -4 0 -8 8 -8 18 0 31 23 44 33 18z m247 -13 c0 -19 -13 -53 -19 -53 -4 0 -6 14 -3 30 2 17 8 30 13 30 5 0 9 -3 9 -7z m-586 -30 c-4 -16 -15 -37 -26 -48 -20 -20 -20 -20 -13 5 8 27 32 70 40 70 3 0 2 -12 -1 -27z m247 -3 c28 -15 24 -28 -15 -47 -39 -18 -52 -44 -60 -122 -8 -82 -26 -89 -26 -11 1 90 14 141 45 168 30 25 30 25 56 12z m-231 -65 c0 -19 -4 -35 -10 -35 -11 0 -14 53 -3 63 11 12 13 8 13 -28z m428 -19 c3 -24 1 -28 -15 -22 -14 6 -16 5 -5 -5 22 -23 14 -41 -15 -37 -23 2 -29 9 -31 34 -3 35 21 67 47 62 9 -2 17 -15 19 -32z m-488 -1 c0 -8 -4 -15 -10 -15 -5 0 -7 7 -4 15 4 8 8 15 10 15 2 0 4 -7 4 -15z m474 -89 c9 3 16 1 16 -5 0 -6 -16 -11 -35 -11 -25 0 -35 4 -35 15 0 12 4 13 19 5 11 -5 27 -7 35 -4z m14 -42 c26 -8 0 -24 -39 -24 -32 0 -39 3 -39 20 0 17 5 19 33 14 17 -3 38 -8 45 -10z m-88 -125 c0 -10 -7 -19 -15 -19 -16 0 -19 9 -9 34 8 20 24 11 24 -15z"></path><path d="M2407 4019 c-25 -14 -22 -65 4 -79 27 -15 69 11 68 43 l0 22 -11 -22 c-12 -24 -42 -31 -53 -12 -4 5 1 19 10 29 19 21 8 33 -18 19z"></path><path d="M3160 3955 c0 -14 7 -28 15 -31 12 -5 14 -15 9 -40 -7 -37 -3 -40 28 -23 17 9 19 17 14 52 -9 52 -17 66 -27 41 -7 -17 -8 -17 -8 4 -1 32 -31 29 -31 -3z"></path><path d="M3435 3922 c0 -18 -6 -28 -19 -30 -16 -3 -18 0 -12 22 7 29 -5 34 -24 11 -11 -13 -14 -13 -26 2 -13 17 -14 16 -11 -7 1 -17 -3 -25 -13 -25 -10 0 -14 8 -12 24 4 26 -15 26 -32 -1 -7 -12 -6 -21 5 -34 8 -9 14 -33 14 -52 0 -41 25 -63 53 -46 24 16 28 55 6 71 -13 10 -15 16 -7 24 9 9 16 8 28 -5 9 -9 21 -16 26 -16 6 0 3 -7 -5 -16 -20 -19 -20 -24 -1 -52 12 -17 13 -26 5 -42 -22 -42 21 -88 55 -60 17 14 20 56 5 65 -6 4 -9 -3 -7 -17 1 -14 -4 -23 -15 -26 -26 -5 -22 21 7 56 14 17 25 40 24 53 0 15 -3 19 -6 9 -10 -27 -24 -39 -39 -33 -21 8 -17 31 7 38 15 5 17 10 9 20 -8 9 -8 15 0 20 14 9 13 62 -3 68 -8 3 -13 -4 -12 -21z m-83 -104 c-15 -15 -26 -4 -18 18 5 13 9 15 18 6 9 -9 9 -15 0 -24z"></path><path d="M2367 3907 c-15 -10 -16 -17 -6 -45 14 -40 34 -37 35 5 1 16 4 35 8 42 10 15 -16 14 -37 -2z"></path><path d="M2587 3913 c-11 -10 -8 -51 3 -58 7 -4 7 -13 0 -26 -7 -12 -7 -25 -2 -36 6 -10 5 -25 -4 -41 -23 -44 20 -84 54 -50 15 15 16 55 1 63 -6 5 -4 12 8 20 15 12 16 17 5 35 -11 17 -10 23 3 36 19 19 19 25 0 50 -14 19 -14 19 -9 -2 7 -28 -19 -50 -35 -30 -8 10 -9 16 -1 21 5 3 10 10 10 16 0 10 -23 12 -33 2z m53 -98 c0 -8 -7 -15 -15 -15 -16 0 -20 12 -8 23 11 12 23 8 23 -8z m-5 -85 c-3 -5 -12 -10 -18 -10 -7 0 -6 4 3 10 19 12 23 12 15 0z"></path><path d="M3143 3817 c-12 -20 -33 -41 -45 -46 -13 -5 -38 -15 -56 -21 -42 -16 -63 -57 -65 -126 -1 -42 -4 -53 -15 -49 -7 3 -39 5 -70 5 l-57 0 -18 49 c-17 50 -72 119 -84 107 -4 -3 2 -19 13 -34 37 -50 37 -52 6 -46 -35 7 -55 -14 -50 -53 2 -23 8 -29 35 -31 23 -2 35 3 46 18 12 17 16 18 20 6 4 -9 -4 -21 -19 -30 -31 -21 -32 -66 -3 -92 53 -47 65 -114 44 -237 -11 -65 -13 -101 -6 -118 9 -22 10 -20 11 16 0 22 7 78 16 125 20 114 12 167 -32 219 -20 22 -33 45 -30 50 4 5 21 13 39 17 17 4 35 9 40 10 4 1 34 2 67 3 57 1 60 2 60 27 0 21 3 24 21 19 14 -5 25 -2 30 6 13 20 11 39 -3 39 -7 0 -19 4 -27 9 -23 15 11 57 56 71 21 7 48 19 61 27 21 13 25 12 41 -8 15 -18 21 -20 39 -10 22 12 28 31 15 45 -5 4 -8 13 -8 19 0 7 -10 13 -22 15 -12 2 -23 11 -25 20 -2 12 -10 6 -25 -21z m67 -42 c0 -8 -4 -15 -10 -15 -5 0 -10 7 -10 15 0 8 5 15 10 15 6 0 10 -7 10 -15z m-450 -140 c15 -18 5 -35 -22 -35 -14 0 -18 5 -14 16 3 9 6 20 6 25 0 14 16 11 30 -6z"></path><path d="M2357 3785 c-27 -20 -19 -69 11 -73 49 -7 69 47 27 74 -17 10 -23 10 -38 -1z m29 -26 c10 -17 -13 -36 -27 -22 -12 12 -4 33 11 33 5 0 12 -5 16 -11z"></path><path d="M3312 3738 c-15 -15 -16 -45 -2 -53 16 -10 40 15 40 41 0 26 -19 31 -38 12z"></path><path d="M3160 3665 c-14 -17 -7 -43 15 -51 21 -8 45 14 44 40 -1 17 -2 17 -6 4 -2 -10 -11 -18 -20 -18 -12 0 -13 3 -4 13 10 13 6 27 -9 27 -4 0 -13 -7 -20 -15z"></path><path d="M2317 3653 c-11 -11 -8 -48 5 -61 7 -7 25 -12 40 -12 36 0 49 28 22 46 -10 7 -24 18 -31 24 -14 12 -27 13 -36 3z m51 -41 c2 -7 -3 -12 -12 -12 -9 0 -16 7 -16 16 0 17 22 14 28 -4z"></path><path d="M2562 3640 c-25 -40 -12 -90 24 -90 35 0 50 34 24 60 -11 11 -17 26 -14 35 9 22 -19 19 -34 -5z m38 -45 c10 -12 10 -15 -4 -15 -9 0 -16 7 -16 15 0 8 2 15 4 15 2 0 9 -7 16 -15z"></path><path d="M3416 3645 c-10 -26 5 -45 35 -45 24 0 29 4 29 24 0 34 -52 51 -64 21z m44 -15 c0 -5 -2 -10 -4 -10 -3 0 -8 5 -11 10 -3 6 -1 10 4 10 6 0 11 -4 11 -10z"></path><path d="M3320 3609 c-14 -25 -6 -65 14 -72 8 -3 22 3 32 15 18 19 18 20 1 33 -9 6 -17 20 -17 29 0 23 -17 20 -30 -5z m30 -39 c0 -5 -2 -10 -4 -10 -3 0 -8 5 -11 10 -3 6 -1 10 4 10 6 0 11 -4 11 -10z"></path><path d="M3157 3562 c-22 -24 -21 -38 3 -62 16 -16 25 -18 40 -10 23 13 27 48 5 56 -8 4 -15 12 -15 20 0 19 -14 17 -33 -4z m43 -38 c0 -16 -16 -19 -25 -4 -8 13 4 32 16 25 5 -4 9 -13 9 -21z"></path><path d="M3005 3558 c-44 -129 -47 -145 -41 -218 5 -79 10 -110 25 -175 5 -22 9 -31 10 -20 0 10 13 29 28 41 31 24 27 49 -12 64 -30 11 -34 40 -5 40 11 0 23 7 27 15 7 21 -6 33 -16 16 -11 -17 -31 -5 -31 18 0 26 10 32 33 20 18 -10 19 -9 13 16 -5 18 -3 31 5 35 6 4 12 25 13 47 0 22 7 47 15 56 8 10 10 24 5 34 -7 16 -8 15 -11 -4 -3 -13 -11 -23 -19 -23 -17 0 -18 22 -2 38 9 9 7 12 -10 12 -13 0 -25 -6 -27 -12z m5 -159 c0 -6 -4 -7 -10 -4 -5 3 -10 11 -10 16 0 6 5 7 10 4 6 -3 10 -11 10 -16z m20 -179 c0 -5 -7 -10 -15 -10 -8 0 -15 5 -15 10 0 6 7 10 15 10 8 0 15 -4 15 -10z"></path><path d="M2302 3548 c-15 -15 -15 -33 0 -58 10 -15 9 -22 -5 -38 -23 -25 -21 -59 4 -72 28 -15 49 -5 48 22 -1 18 -2 19 -6 5 -3 -10 -10 -16 -16 -14 -18 6 -21 38 -5 48 7 5 13 12 13 16 1 4 6 17 12 28 26 46 -11 97 -45 63z m38 -34 c0 -8 -4 -12 -10 -9 -5 3 -10 10 -10 16 0 5 5 9 10 9 6 0 10 -7 10 -16z"></path><path d="M3440 3538 c0 -23 35 -55 44 -40 7 11 -16 55 -31 60 -8 2 -13 -5 -13 -20z"></path><path d="M2698 3536 c-24 -17 -23 -22 12 -59 24 -26 30 -28 35 -15 4 9 -2 32 -12 51 -16 31 -20 34 -35 23z"></path><path d="M2555 3500 c-4 -11 -5 -33 -4 -48 2 -15 -3 -37 -10 -50 -7 -14 -10 -35 -6 -53 4 -18 3 -29 -5 -29 -13 0 -29 -40 -23 -58 9 -22 43 -35 59 -21 8 6 14 16 14 21 0 6 -5 6 -14 -1 -10 -8 -16 -8 -25 3 -13 15 0 31 58 75 18 13 22 23 17 37 -8 18 -9 17 -17 -4 -5 -13 -15 -22 -21 -20 -25 9 -19 39 11 67 37 34 40 64 9 85 -29 21 -35 20 -43 -4z m45 -24 c0 -16 -18 -31 -27 -22 -8 8 5 36 17 36 5 0 10 -6 10 -14z"></path><path d="M3337 3473 c-11 -11 -8 -48 5 -61 7 -7 25 -12 40 -12 34 0 38 24 7 41 -17 8 -20 8 -14 -1 5 -8 3 -11 -6 -8 -8 3 -13 15 -11 26 3 21 -8 29 -21 15z"></path><path d="M3447 3473 c-12 -12 -7 -50 8 -63 21 -17 45 -5 45 23 0 35 -33 60 -53 40z m33 -28 c0 -8 -4 -15 -10 -15 -5 0 -10 7 -10 15 0 8 5 15 10 15 6 0 10 -7 10 -15z"></path><path d="M2692 3439 c-34 -13 -27 -53 11 -57 24 -3 27 0 27 27 0 36 -7 42 -38 30z"></path><path d="M3182 3398 c3 -29 6 -33 33 -33 26 0 30 3 27 25 -3 27 -17 40 -45 40 -15 0 -18 -7 -15 -32z m38 -4 c0 -8 -4 -12 -10 -9 -5 3 -10 10 -10 16 0 5 5 9 10 9 6 0 10 -7 10 -16z"></path><path d="M2713 3363 c-33 -13 1 -68 35 -56 15 6 16 35 0 51 -13 13 -16 13 -35 5z"></path><path d="M2290 3341 c-5 -11 -7 -26 -4 -34 6 -17 37 -28 51 -18 14 9 23 39 17 56 -9 21 -51 19 -64 -4z m50 -10 c0 -6 -4 -13 -10 -16 -5 -3 -10 1 -10 9 0 9 5 16 10 16 6 0 10 -4 10 -9z"></path><path d="M3446 3341 c-21 -23 -14 -56 14 -71 25 -13 64 18 55 43 -10 24 -24 22 -18 -3 4 -14 0 -20 -11 -20 -20 0 -35 32 -18 38 14 4 16 32 4 32 -5 0 -17 -9 -26 -19z"></path><path d="M3350 3311 c0 -10 7 -24 16 -31 21 -18 55 13 36 32 -9 9 -12 9 -12 -2 -1 -11 -3 -11 -11 3 -13 23 -29 22 -29 -2z"></path><path d="M3180 3305 c-10 -12 -9 -20 4 -40 21 -32 61 -34 69 -3 12 43 -45 76 -73 43z m50 -21 c0 -16 -16 -19 -25 -4 -8 13 4 32 16 25 5 -4 9 -13 9 -21z"></path><path d="M2697 3250 c-16 -20 -16 -22 2 -41 11 -12 27 -19 38 -17 19 3 32 48 13 48 -6 0 -9 -4 -5 -9 3 -5 1 -12 -4 -15 -15 -9 -25 14 -12 27 6 6 11 15 11 19 0 15 -26 8 -43 -12z"></path><path d="M2340 3235 c0 -21 -17 -45 -32 -45 -4 0 -8 7 -8 15 0 8 -7 15 -15 15 -8 0 -15 -4 -15 -9 0 -46 62 -59 81 -17 8 17 8 29 0 42 -10 18 -10 18 -11 -1z"></path><path d="M3408 3243 c17 -7 15 -33 -3 -33 -8 0 -15 7 -15 15 0 20 -19 19 -27 -1 -9 -24 21 -48 51 -40 42 10 30 70 -12 65 -4 0 -1 -3 6 -6z"></path><path d="M3473 3224 c-10 -27 11 -49 47 -49 45 0 49 20 8 45 -40 24 -47 25 -55 4z m57 -26 c0 -13 -23 -5 -28 10 -2 7 2 10 12 6 9 -3 16 -11 16 -16z"></path><path d="M2520 3175 c-7 -8 -10 -27 -7 -42 3 -18 -1 -36 -13 -51 -21 -26 -17 -48 12 -63 24 -13 55 -3 69 23 13 24 1 40 -12 15 -10 -18 -44 -23 -53 -8 -8 13 31 44 49 38 8 -4 14 -3 13 1 -1 4 2 18 6 31 5 14 4 27 -3 34 -8 8 -11 5 -11 -11 0 -24 -10 -28 -28 -10 -7 7 -8 17 -2 29 13 23 -4 34 -20 14z"></path><path d="M3226 3156 c6 -27 -12 -44 -28 -28 -8 8 -7 16 3 28 12 15 12 17 0 13 -8 -3 -19 -13 -25 -22 -8 -13 -6 -22 11 -38 21 -21 23 -21 47 -5 28 18 34 44 14 64 -19 19 -29 14 -22 -12z"></path><path d="M3374 3130 c2 -15 6 -32 10 -39 9 -14 46 -14 66 -1 13 9 10 14 -14 35 -16 13 -38 26 -47 28 -15 4 -18 0 -15 -23z"></path><path d="M2274 3136 c-11 -29 0 -51 26 -51 21 0 25 5 25 30 0 24 -5 31 -23 33 -13 2 -24 -3 -28 -12z m36 -16 c0 -5 -5 -10 -11 -10 -5 0 -7 5 -4 10 3 6 8 10 11 10 2 0 4 -4 4 -10z"></path><path d="M2707 3133 c-12 -12 -7 -50 8 -63 21 -17 45 -5 45 23 0 35 -33 60 -53 40z m33 -33 c0 -5 -4 -10 -10 -10 -5 0 -10 5 -10 10 0 6 5 10 10 10 6 0 10 -4 10 -10z"></path><path d="M3018 3129 c-41 -23 3 -90 44 -68 21 12 21 40 -1 47 -10 3 -12 0 -8 -11 4 -11 2 -14 -8 -10 -10 3 -13 13 -9 29 7 27 6 27 -18 13z"></path><path d="M3492 3128 c-27 -27 -6 -68 34 -68 27 0 37 22 24 55 -10 27 -38 33 -58 13z m48 -22 c0 -16 -18 -31 -27 -22 -8 8 5 36 17 36 5 0 10 -6 10 -14z"></path><path d="M2854 3083 c-42 -8 -67 -49 -72 -113 -3 -40 -1 -60 7 -60 6 0 11 3 12 8 8 125 51 168 127 128 31 -16 50 -46 62 -97 l8 -34 1 33 c3 87 -66 151 -145 135z"></path><path d="M2248 3015 c-10 -22 -9 -29 10 -47 17 -18 23 -19 36 -8 19 15 20 39 2 63 -18 24 -34 21 -48 -8z m42 -21 c0 -8 -4 -12 -10 -9 -5 3 -10 10 -10 16 0 5 5 9 10 9 6 0 10 -7 10 -16z"></path><path d="M3381 3011 c-15 -28 23 -74 53 -65 25 8 36 22 35 49 0 18 -1 18 -9 -2 -5 -13 -18 -23 -29 -23 -21 0 -36 26 -21 35 15 9 12 25 -5 25 -8 0 -19 -9 -24 -19z"></path><path d="M3512 3018 c-13 -13 -17 -78 -4 -78 18 0 32 26 32 57 0 35 -8 41 -28 21z"></path><path d="M3194 3006 c-3 -8 -4 -25 -2 -38 2 -18 9 -23 32 -23 36 0 56 27 40 53 -14 22 -62 28 -70 8z m49 -21 c1 -5 -6 -11 -15 -13 -11 -2 -18 3 -18 13 0 17 30 18 33 0z"></path><path d="M2662 2994 c-19 -13 -22 -24 -20 -57 3 -39 5 -42 35 -45 27 -3 35 1 45 22 9 21 8 29 -6 45 -9 10 -14 25 -10 35 8 21 -14 21 -44 0z m48 -60 c0 -8 -10 -14 -25 -14 -23 0 -34 18 -19 32 10 10 44 -4 44 -18z"></path><path d="M3038 2985 c-10 -21 -9 -29 5 -43 15 -15 18 -15 33 -1 10 11 13 24 8 42 -8 34 -31 35 -46 2z"></path><path d="M2490 2981 c-15 -29 -12 -46 11 -67 15 -14 24 -16 37 -8 24 16 26 40 5 68 -22 31 -39 33 -53 7z m46 -48 c-12 -12 -29 15 -21 34 7 17 8 16 18 -5 5 -12 7 -25 3 -29z"></path><path d="M2231 2921 c-7 -13 -6 -24 3 -37 12 -15 12 -22 0 -40 -25 -37 6 -76 41 -50 24 17 28 104 7 129 -20 22 -39 22 -51 -2z m49 -22 c0 -5 -7 -9 -15 -9 -15 0 -20 12 -9 23 8 8 24 -1 24 -14z m0 -63 c0 -15 -18 -31 -26 -23 -7 7 7 37 17 37 5 0 9 -6 9 -14z"></path><path d="M3454 2912 c1 -9 -3 -17 -9 -17 -5 0 -9 6 -7 13 4 18 -25 15 -32 -4 -9 -24 13 -45 43 -42 30 3 41 38 18 56 -11 9 -13 8 -13 -6z"></path><path d="M3550 2916 c0 -3 6 -15 12 -26 9 -15 10 -22 1 -31 -16 -16 -35 -1 -28 22 4 13 2 19 -9 19 -24 0 -30 -39 -10 -61 21 -24 36 -24 57 -1 22 25 21 45 -3 67 -11 10 -20 15 -20 11z"></path><path d="M3218 2889 c-19 -11 -23 -45 -9 -67 11 -18 51 -11 65 10 15 25 -31 72 -56 57z m37 -39 c0 -7 -6 -15 -12 -17 -8 -3 -13 4 -13 17 0 13 5 20 13 18 6 -3 12 -11 12 -18z"></path><path d="M2810 2881 c0 -17 31 -21 63 -7 l32 14 -47 1 c-27 1 -48 -3 -48 -8z"></path><path d="M2993 2860 c3 -23 -1 -44 -13 -60 -37 -54 -32 -185 9 -240 18 -25 20 -34 10 -52 -21 -38 -48 -169 -55 -262 -11 -157 25 -399 81 -541 47 -121 56 -211 31 -317 -7 -32 -10 -58 -6 -58 13 0 33 116 33 195 -1 63 -7 100 -32 175 -53 157 -72 269 -76 435 -5 184 9 322 36 351 26 28 24 48 -7 79 -25 25 -26 30 -22 115 4 103 16 126 48 92 24 -25 25 -26 51 -12 20 11 26 45 9 55 -6 4 -10 3 -9 -2 4 -21 -2 -33 -16 -33 -23 0 -30 28 -11 49 18 20 12 33 -11 24 -9 -4 -23 3 -35 18 l-19 24 4 -35z"></path><path d="M2635 2860 c-14 -46 41 -78 85 -50 13 8 10 15 -17 40 -37 35 -59 38 -68 10z m65 -26 c0 -16 -26 -19 -35 -4 -3 6 -4 14 0 20 8 13 35 1 35 -16z"></path><path d="M2487 2863 c-14 -14 -7 -62 11 -72 22 -12 52 4 52 28 0 31 -45 62 -63 44z m35 -45 c-15 -15 -26 -4 -18 18 5 13 9 15 18 6 9 -9 9 -15 0 -24z"></path><path d="M2786 2844 c-10 -27 -7 -54 15 -101 22 -49 20 -99 -7 -137 -18 -27 -18 -87 1 -112 17 -23 19 -15 5 22 -9 22 -5 37 20 89 35 73 36 86 9 145 -11 25 -21 60 -22 78 -1 34 -11 42 -21 16z"></path><path d="M3440 2814 c-17 -31 -4 -57 29 -62 46 -7 67 40 33 71 -26 24 -46 21 -62 -9z m51 -28 c-17 -21 -32 -11 -27 17 3 12 5 24 5 27 1 2 8 -3 18 -12 13 -14 14 -20 4 -32z"></path><path d="M4402 2813 c-5 -10 -21 -52 -35 -93 -33 -97 -43 -185 -26 -225 l13 -30 3 45 c6 87 23 178 41 221 l19 44 25 -50 c33 -66 54 -181 39 -217 -6 -16 -7 -28 -2 -28 26 0 30 99 7 187 -14 58 -60 163 -71 163 -2 0 -8 -8 -13 -17z"></path><path d="M4685 2801 c-3 -16 -22 -51 -41 -78 -28 -39 -34 -57 -34 -99 0 -52 16 -114 29 -114 5 0 6 33 3 74 -4 64 -1 79 19 115 12 23 26 41 31 41 4 0 26 -38 48 -85 31 -67 40 -97 41 -142 1 -52 2 -55 10 -28 14 43 4 106 -30 178 -15 34 -34 86 -41 115 -13 58 -25 66 -35 23z"></path><path d="M3547 2803 c-11 -11 -8 -48 5 -61 29 -29 82 7 71 49 -7 26 -20 24 -19 -3 1 -17 -5 -23 -19 -23 -15 0 -19 6 -18 23 3 21 -7 29 -20 15z"></path><path d="M3957 2803 c-4 -3 -7 -19 -7 -33 0 -15 -7 -47 -15 -70 -40 -113 -41 -260 -3 -303 18 -20 19 -20 13 -2 -19 56 -17 171 4 248 11 42 21 91 21 107 0 40 12 38 43 -8 28 -44 57 -145 57 -202 0 -21 5 -42 12 -46 17 -11 3 129 -21 199 -32 93 -76 139 -104 110z"></path><path d="M3224 2753 c-8 -32 6 -58 32 -58 23 0 30 30 13 61 -16 32 -37 30 -45 -3z m36 -19 c0 -8 -5 -12 -10 -9 -6 4 -8 11 -5 16 9 14 15 11 15 -7z"></path><path d="M2483 2753 c-15 -6 -17 -49 -3 -58 6 -3 19 -3 31 0 15 5 19 14 17 33 -3 26 -20 36 -45 25z m27 -18 c0 -8 -4 -15 -10 -15 -5 0 -10 7 -10 15 0 8 5 15 10 15 6 0 10 -7 10 -15z"></path><path d="M2188 2725 c-16 -35 5 -57 50 -53 39 3 64 30 45 49 -8 8 -11 6 -10 -7 2 -21 -29 -30 -53 -15 -12 8 -12 13 4 30 19 21 19 21 -3 21 -13 0 -26 -9 -33 -25z"></path><path d="M2640 2721 c-14 -28 -13 -35 15 -65 27 -29 49 -33 71 -11 17 17 12 46 -11 65 -18 15 -19 6 -3 -20 16 -26 7 -33 -26 -20 -24 9 -27 14 -21 40 8 34 -8 41 -25 11z"></path><path d="M3450 2712 c0 -44 54 -57 72 -17 15 34 3 43 -20 14 l-19 -23 -7 22 c-9 26 -26 29 -26 4z"></path><path d="M1110 2683 c-7 -21 -10 -54 -8 -73 l4 -35 14 48 c8 26 17 47 21 47 8 0 46 -102 58 -156 10 -49 -1 -129 -24 -173 -15 -30 -17 -31 -42 -17 -27 13 -27 14 -24 114 2 75 -1 107 -13 130 -16 32 -52 50 -66 35 -9 -9 -32 -188 -32 -245 1 -21 5 -46 11 -55 8 -14 10 -9 11 27 0 72 23 250 32 250 4 0 14 -12 22 -27 10 -21 15 -92 19 -288 5 -218 14 -353 31 -470 2 -11 5 -54 6 -95 2 -78 4 -78 16 5 6 43 8 46 15 25 7 -24 7 -24 8 -2 1 18 6 21 24 18 12 -3 45 -8 72 -12 l50 -7 -50 -13 -50 -12 53 -1 c28 -1 52 -3 52 -6 0 -4 -7 -20 -16 -36 -24 -47 -11 -45 34 6 23 27 48 45 61 45 25 0 28 17 4 24 -28 8 -163 36 -171 35 -4 -1 -18 -1 -32 0 l-25 1 2 275 c1 265 2 277 24 322 43 89 24 233 -43 323 -12 17 -25 30 -29 30 -5 0 -13 -17 -19 -37z m40 -525 c0 -79 3 -201 6 -273 4 -71 4 -127 0 -124 -6 6 -11 45 -21 179 -3 47 -10 112 -15 145 -5 33 -12 95 -15 138 l-6 77 26 0 25 0 0 -142z"></path><path d="M3610 2705 c17 -20 5 -32 -15 -15 -19 16 -41 -1 -32 -24 9 -23 54 -20 67 5 12 21 -1 49 -22 49 -6 0 -5 -7 2 -15z"></path><path d="M3045 2690 c-12 -19 6 -69 26 -75 20 -7 49 10 49 28 0 12 -47 57 -60 57 -5 0 -12 -5 -15 -10z"></path><path d="M2065 2650 c-4 -23 -18 -65 -31 -94 -32 -70 -44 -157 -32 -230 6 -44 6 -74 -4 -110 -14 -55 -15 -482 -2 -608 8 -79 11 -77 -111 -54 -76 15 -105 11 -58 -9 105 -44 381 -58 449 -23 27 15 30 21 31 66 0 29 8 60 17 73 9 13 16 38 16 56 0 18 4 33 10 33 5 0 14 9 21 21 9 17 7 25 -9 42 -20 23 -19 47 2 47 25 0 48 37 45 72 -2 20 4 44 14 58 9 13 17 34 17 45 0 12 4 25 10 31 5 5 10 21 10 34 -1 93 3 147 13 156 11 11 9 54 -3 54 -20 0 -9 18 15 24 55 14 49 68 -9 82 -24 6 -28 4 -23 -9 3 -9 1 -19 -4 -23 -6 -3 -8 -16 -5 -29 4 -15 1 -25 -8 -28 -8 -3 -19 -15 -25 -26 -9 -16 -6 -25 14 -49 29 -35 31 -45 10 -62 -13 -10 -15 -9 -15 10 0 13 -5 20 -12 18 -7 -3 -13 -18 -13 -34 0 -23 5 -30 23 -32 19 -3 23 -9 20 -35 -2 -17 -9 -32 -16 -35 -7 -2 -10 2 -6 12 3 9 2 16 -3 16 -14 0 -44 -36 -36 -43 3 -4 -2 -15 -11 -26 -11 -12 -16 -31 -14 -53 2 -28 7 -33 26 -30 15 2 22 -2 22 -13 0 -25 -19 -55 -35 -55 -13 0 -13 3 -3 20 7 10 9 22 5 26 -11 12 -38 -19 -41 -47 -1 -13 -10 -37 -21 -52 -14 -22 -16 -33 -7 -51 8 -19 7 -26 -9 -39 -25 -22 -34 -64 -19 -92 19 -35 7 -57 -27 -50 -26 5 -25 4 6 -12 77 -40 37 -66 -104 -67 -55 -1 -108 2 -119 7 -17 7 -18 24 -15 361 2 195 6 356 9 359 3 2 22 7 44 10 l38 6 -6 -52 c-11 -86 -17 -645 -7 -615 5 15 10 87 10 160 0 73 6 190 12 260 12 124 13 127 34 122 32 -8 42 23 16 48 -11 10 -25 18 -31 18 -5 0 -10 18 -10 39 l0 40 -47 3 -48 3 1 90 c1 76 6 100 29 150 l27 60 19 -40 c26 -56 25 -162 -1 -218 -19 -42 -19 -42 0 -19 46 55 50 168 10 292 -27 83 -36 92 -45 40z m430 -279 c-9 -16 -25 -3 -18 15 4 10 9 12 15 6 6 -6 7 -15 3 -21z m-32 -76 c7 -16 -8 -29 -23 -20 -10 6 -2 35 10 35 4 0 10 -7 13 -15z m-38 -266 c-7 -19 -43 -41 -49 -30 -9 13 35 64 46 53 5 -5 6 -15 3 -23z m-76 -223 c8 -10 9 -16 1 -21 -13 -8 -30 3 -30 21 0 18 14 18 29 0z m-19 -85 c0 -15 -37 -55 -42 -45 -9 15 10 54 27 54 8 0 15 -4 15 -9z"></path><path d="M2498 2663 c7 -3 19 -17 27 -33 12 -23 12 -30 1 -45 -19 -27 -50 -12 -42 20 5 19 3 23 -8 19 -23 -9 -28 -35 -11 -60 17 -26 35 -30 66 -14 14 8 19 21 19 52 0 42 -19 68 -50 67 -10 0 -11 -2 -2 -6z"></path><path d="M2180 2615 c-16 -19 -4 -35 26 -35 18 0 24 5 24 23 0 26 -32 34 -50 12z"></path><path d="M3238 2605 c-23 -51 20 -106 57 -75 19 16 19 54 1 69 -12 10 -14 7 -13 -16 1 -15 -2 -29 -8 -30 -5 -1 -10 16 -9 37 1 46 -11 52 -28 15z"></path><path d="M3442 2532 c-24 -86 -27 -124 -12 -153 17 -31 26 -22 22 23 -3 23 1 66 8 97 11 50 14 53 26 37 7 -11 16 -46 20 -80 6 -54 8 -58 16 -34 6 18 6 44 -2 75 -6 27 -14 63 -17 81 -3 21 -11 32 -22 32 -12 0 -22 -21 -39 -78z"></path><path d="M1780 2549 c0 -29 -5 -80 -11 -114 -8 -50 -8 -68 4 -96 l15 -34 1 42 c1 23 6 76 12 118 11 71 12 74 26 55 26 -37 44 -136 34 -182 -7 -29 -6 -37 2 -29 6 6 12 37 14 68 5 80 -41 216 -74 221 -21 3 -23 0 -23 -49z"></path><path d="M2642 2588 c-16 -16 -15 -53 3 -68 27 -22 85 10 64 36 -5 7 -8 18 -7 25 4 18 -43 24 -60 7z m42 -24 c23 -9 20 -24 -4 -24 -11 0 -20 7 -20 15 0 17 2 18 24 9z"></path><path d="M3567 2573 c-15 -14 -7 -63 12 -73 27 -14 68 19 56 46 -8 18 -9 18 -12 -3 -3 -13 -11 -23 -20 -23 -12 0 -14 7 -9 30 5 29 -9 41 -27 23z"></path><path d="M3057 2563 c-4 -3 -7 -17 -7 -29 0 -32 47 -45 66 -20 13 18 9 46 -7 46 -5 0 -9 -7 -9 -15 0 -8 -5 -15 -11 -15 -6 0 -9 9 -6 20 5 19 -12 28 -26 13z"></path><path d="M2437 2525 c-9 -9 -17 -30 -17 -46 0 -40 27 -50 52 -20 22 29 22 33 0 61 -17 21 -19 21 -35 5z m33 -29 c0 -15 -18 -31 -26 -23 -7 7 7 37 17 37 5 0 9 -6 9 -14z"></path><path d="M2174 2505 c-8 -20 2 -44 22 -52 18 -7 34 12 34 41 0 20 0 20 -15 0 -14 -19 -14 -18 -15 4 0 25 -18 30 -26 7z"></path><path d="M3245 2470 c-21 -23 -13 -65 16 -83 23 -14 69 16 69 44 0 21 0 21 -18 -2 -12 -14 -25 -20 -35 -16 -21 8 -22 31 -2 47 8 7 15 16 15 21 0 16 -27 9 -45 -11z"></path><path d="M2627 2463 c-13 -12 -7 -60 8 -73 19 -16 69 0 74 25 5 31 -61 70 -82 48z m56 -27 c18 -14 17 -15 -3 -21 -24 -8 -46 7 -36 24 9 14 17 13 39 -3z"></path><path d="M3074 2455 c-9 -21 3 -45 21 -45 21 0 30 27 15 45 -16 19 -29 19 -36 0z"></path><path d="M3580 2435 c-27 -32 23 -82 55 -55 21 18 18 36 -7 54 -28 20 -32 20 -48 1z m47 -31 c-9 -9 -28 6 -21 18 4 6 10 6 17 -1 6 -6 8 -13 4 -17z"></path><path d="M4650 2387 c-3 -34 -4 -182 -3 -328 l3 -267 -23 -5 c-12 -3 -52 -9 -90 -12 -108 -12 -96 -29 17 -23 l96 5 2 -41 1 -41 6 44 c6 45 6 45 49 47 30 2 42 -2 42 -12 0 -8 5 -14 10 -14 6 0 10 6 10 14 0 20 23 26 96 26 91 0 80 19 -13 22 l-78 3 2 30 c1 17 5 157 9 312 6 237 5 283 -7 287 -8 2 -39 7 -69 9 l-55 5 -5 -61z m112 -270 c-2 -166 -7 -306 -11 -310 -5 -5 -27 -11 -49 -14 l-40 -5 5 293 c2 162 6 304 8 315 4 18 12 22 47 22 l43 1 -3 -302z"></path><path d="M4360 2430 c0 -5 20 -10 44 -10 l43 0 8 -207 c4 -115 8 -231 9 -260 2 -54 15 -86 17 -42 1 13 3 40 6 59 2 19 -1 127 -8 239 -10 157 -10 206 -1 209 32 10 5 22 -53 22 -37 0 -65 -4 -65 -10z"></path><path d="M2177 2413 c-12 -12 -7 -60 8 -73 19 -16 35 -4 35 25 0 45 -22 70 -43 48z"></path><path d="M2819 2385 c-1 -22 -1 -78 0 -125 4 -145 -16 -314 -58 -487 -57 -229 -64 -283 -51 -365 7 -37 16 -71 21 -74 6 -3 7 5 2 23 -14 49 -9 205 8 258 21 65 64 226 78 290 30 136 36 411 11 494 -8 24 -8 23 -11 -14z"></path><path d="M2890 2297 c0 -181 -17 -307 -75 -562 -20 -90 -31 -308 -17 -355 8 -29 10 -13 11 88 1 68 5 142 11 165 15 69 78 358 87 407 12 58 6 -383 -7 -605 -13 -210 -13 -276 1 -253 19 33 30 300 29 683 0 209 -2 392 -4 407 -22 159 -35 168 -36 25z"></path><path d="M4324 2334 c-7 -49 1 -195 16 -284 5 -30 12 -73 15 -95 3 -22 8 -55 11 -74 7 -43 -5 -50 -76 -52 -89 -2 -95 -6 -95 -64 0 -48 1 -50 29 -53 15 -2 60 -26 98 -54 39 -27 90 -58 114 -68 l43 -19 21 26 c26 33 26 53 0 25 -12 -12 -25 -22 -31 -22 -18 0 -169 104 -169 116 0 18 26 24 78 19 41 -5 44 -4 22 6 -16 7 -54 9 -102 5 l-78 -5 0 28 c0 26 4 29 46 35 79 10 114 8 114 -9 0 -12 4 -11 19 4 10 10 38 21 62 24 24 4 67 10 94 14 l50 8 -70 5 c-38 4 -75 2 -82 -3 -6 -4 -24 -7 -40 -5 -26 3 -28 6 -31 53 -1 28 -9 109 -17 182 -8 73 -15 171 -15 218 0 91 -14 114 -26 39z"></path><path d="M3087 2363 c-10 -9 -8 -51 2 -57 15 -9 33 22 26 44 -6 20 -16 25 -28 13z"></path><path d="M3272 2358 c-7 -7 -12 -25 -12 -40 0 -23 4 -28 24 -28 31 0 41 26 21 56 -18 28 -17 28 -33 12z"></path><path d="M3970 2343 c-56 -9 -66 -13 -68 -30 -10 -93 -18 -412 -12 -511 4 -69 5 -134 2 -144 -4 -16 -15 -18 -88 -18 -81 0 -116 -12 -71 -24 12 -3 54 -6 94 -6 60 0 72 -3 76 -17 4 -15 5 -15 6 -2 1 13 17 17 74 22 39 4 107 10 149 13 132 12 74 24 -78 17 l-144 -6 0 254 c0 140 3 291 6 336 7 78 8 81 33 86 14 2 34 8 44 12 17 7 18 4 10 -31 -18 -84 1 -469 28 -574 7 -27 7 -22 3 25 -3 33 -8 182 -10 330 -4 200 -8 270 -17 271 -7 1 -23 0 -37 -3z"></path><path d="M2610 2320 c-24 -45 36 -82 63 -39 7 12 5 21 -11 37 -27 27 -38 28 -52 2z m50 -20 c0 -5 -7 -10 -15 -10 -8 0 -15 5 -15 10 0 6 7 10 15 10 8 0 15 -4 15 -10z"></path><path d="M2147 2310 c-6 -23 2 -60 12 -60 4 0 17 9 30 21 21 20 21 22 5 40 -22 25 -40 24 -47 -1z m43 -10 c0 -5 -4 -10 -10 -10 -5 0 -10 5 -10 10 0 6 5 10 10 10 6 0 10 -4 10 -10z"></path><path d="M3439 2328 c0 -2 -2 -14 -3 -28 -2 -14 -8 -65 -15 -115 -6 -49 -11 -146 -11 -214 0 -109 -2 -122 -15 -111 -8 7 -15 19 -15 26 0 8 -7 14 -15 14 -18 0 -20 42 -3 69 9 15 9 25 0 45 -6 14 -9 39 -6 55 4 16 1 32 -5 35 -7 5 -11 -2 -11 -17 0 -21 -16 -37 -36 -37 -13 0 -1 51 14 59 16 9 16 10 -2 17 -28 11 -49 -22 -42 -66 4 -19 6 -47 6 -62 0 -29 23 -58 46 -58 8 0 14 -9 14 -19 0 -11 3 -26 6 -35 3 -9 1 -16 -5 -16 -6 0 -11 9 -11 20 0 11 -5 20 -10 20 -17 0 -22 -27 -10 -50 9 -17 18 -21 40 -17 24 5 30 2 40 -23 7 -16 9 -34 5 -39 -9 -16 -35 -13 -41 4 -4 8 -10 15 -15 15 -13 0 -11 -34 3 -48 9 -9 0 -12 -40 -12 -46 0 -52 -2 -52 -21 0 -11 15 -34 34 -52 18 -18 43 -47 55 -65 56 -82 158 -93 236 -26 24 22 57 49 72 61 26 21 24 20 -22 -3 -27 -13 -58 -33 -70 -44 -35 -33 -81 -44 -118 -29 -32 12 -87 57 -87 70 0 4 32 10 70 14 101 10 97 25 -7 25 -64 0 -95 4 -111 16 -12 8 -22 19 -22 24 0 12 111 5 119 -8 5 -8 15 -7 35 3 16 8 45 15 65 15 20 0 54 4 76 8 l40 7 -50 5 -50 5 4 120 c2 66 5 131 6 145 2 14 4 28 4 33 1 4 9 2 20 -4 41 -26 72 25 32 53 -17 12 -21 18 -21 34 0 4 -7 1 -15 -6 -13 -11 -15 -8 -15 15 0 18 6 28 20 32 26 7 36 41 17 61 -14 14 -15 13 -11 -9 5 -19 3 -21 -5 -9 -6 8 -11 33 -11 56 0 50 -14 64 -62 64 -21 0 -38 -1 -39 -2z m81 -44 c-14 -35 -22 -164 -24 -369 -1 -183 3 -171 -51 -166 -13 1 -14 29 -9 209 3 114 10 225 15 247 5 22 9 55 9 73 0 30 2 32 35 32 33 0 34 -1 25 -26z m55 -212 c0 -18 -20 -15 -23 4 -3 10 1 15 10 12 7 -3 13 -10 13 -16z m-225 -68 c0 -14 -7 -27 -15 -31 -21 -7 -32 4 -17 19 7 7 12 20 12 31 0 10 5 15 10 12 6 -3 10 -17 10 -31z"></path><path d="M1759 2263 c-37 -90 -7 -582 33 -557 5 3 3 13 -4 21 -10 12 -13 77 -13 269 0 139 3 255 6 259 4 3 17 3 30 0 24 -6 24 -7 25 -143 0 -75 4 -202 9 -281 l8 -144 -117 5 c-84 3 -119 1 -127 -8 -14 -17 -1 -61 25 -82 11 -9 32 -33 46 -54 21 -32 86 -76 96 -65 2 2 -14 18 -36 36 -39 31 -52 61 -27 61 6 1 -1 8 -18 17 -39 20 -65 43 -65 57 0 7 52 11 161 12 103 1 165 6 172 13 8 8 -1 11 -33 11 -25 0 -50 4 -56 8 -7 4 -11 71 -13 182 -1 96 -4 200 -7 230 -2 30 -1 79 4 108 10 58 12 56 -51 67 -34 5 -38 4 -48 -22z"></path><path d="M3081 2264 c-24 -30 -14 -64 19 -64 31 0 45 36 25 66 -19 30 -19 30 -44 -2z m37 -16 c-2 -6 -10 -14 -16 -16 -7 -2 -10 2 -6 12 7 18 28 22 22 4z"></path><path d="M3617 2283 c-14 -13 -6 -53 12 -63 31 -16 51 -12 62 14 8 17 8 29 0 42 -9 17 -10 16 -11 -8 0 -22 -5 -28 -21 -28 -18 0 -20 4 -15 25 6 24 -10 35 -27 18z"></path><path d="M996 2272 c-3 -3 -3 -9 0 -13 7 -12 64 -11 64 1 0 6 -3 11 -7 11 -29 5 -53 5 -57 1z"></path><path d="M990 2209 c0 -20 6 -80 14 -135 8 -54 18 -147 21 -205 l7 -106 -73 -9 -74 -9 29 -20 c17 -11 48 -20 75 -21 l46 -2 5 -43 c5 -42 6 -40 12 26 4 39 5 108 2 155 -8 133 -43 383 -54 394 -7 7 -10 -1 -10 -25z m50 -468 c0 -15 -17 -22 -36 -14 -16 6 -16 7 2 14 27 11 34 10 34 0z"></path><path d="M3330 2222 c0 -12 -9 -26 -21 -32 -24 -13 -38 -5 -21 12 16 16 15 28 -3 28 -19 0 -37 -34 -29 -55 11 -27 65 -15 84 17 12 22 12 30 2 40 -9 9 -12 8 -12 -10z"></path><path d="M2587 2193 c-13 -13 -7 -50 11 -66 24 -22 51 -21 80 2 27 23 28 42 4 57 -15 10 -18 8 -17 -15 0 -21 -5 -26 -25 -26 -20 0 -26 6 -28 28 -3 26 -12 34 -25 20z"></path><path d="M3700 2181 c0 -5 5 -13 10 -16 8 -5 7 -11 -1 -21 -14 -17 -30 -9 -22 11 3 10 -1 15 -12 15 -12 0 -16 -7 -13 -27 4 -35 45 -45 65 -17 18 25 16 42 -7 54 -12 7 -20 7 -20 1z"></path><path d="M3058 2114 c-15 -32 0 -59 33 -59 16 0 25 6 26 20 2 11 0 14 -3 8 -8 -18 -34 -16 -34 3 0 8 5 24 10 35 9 15 7 19 -5 19 -8 0 -21 -12 -27 -26z"></path><path d="M2561 2074 c-29 -36 -24 -74 12 -94 24 -13 30 -13 55 0 20 12 27 24 27 45 0 15 -5 30 -10 32 -6 2 -11 -9 -10 -24 0 -23 -5 -29 -26 -31 -41 -5 -54 20 -28 52 14 18 18 31 12 37 -7 7 -18 1 -32 -17z"></path><path d="M3690 2063 c-12 -3 -15 -13 -12 -39 4 -29 8 -35 25 -32 11 2 25 11 31 20 8 14 6 22 -9 36 -11 10 -27 17 -35 15z"></path><path d="M3102 2020 c-27 -26 -28 -51 -3 -74 33 -30 80 -1 65 39 -4 8 -10 15 -15 15 -5 0 -13 9 -17 20 l-8 21 -22 -21z m38 -45 c0 -8 -4 -15 -10 -15 -5 0 -10 7 -10 15 0 8 5 15 10 15 6 0 10 -7 10 -15z"></path><path d="M3583 1988 c-28 -13 -29 -39 -5 -61 25 -22 38 -21 56 4 15 22 11 48 -8 61 -14 9 -16 9 -43 -4z m35 -25 c-5 -25 -28 -28 -28 -4 0 12 6 21 16 21 9 0 14 -7 12 -17z"></path><path d="M3740 1963 c0 -6 -9 -13 -20 -16 -15 -4 -20 -14 -20 -36 0 -35 -1 -35 34 -21 38 14 50 44 26 65 -11 10 -20 13 -20 8z m15 -23 c-3 -5 -11 -10 -16 -10 -6 0 -7 5 -4 10 3 6 11 10 16 10 6 0 7 -4 4 -10z"></path><path d="M2552 1938 c-16 -16 -15 -60 1 -82 17 -23 55 -18 73 10 12 17 12 23 1 39 -13 17 -14 16 -13 -6 1 -19 -4 -24 -24 -24 -30 0 -38 26 -15 48 8 9 15 18 15 21 0 11 -26 6 -38 -6z"></path><path d="M3132 1908 c-7 -7 -12 -27 -12 -45 0 -28 4 -33 23 -33 50 0 79 72 35 84 -31 8 -32 8 -46 -6z m56 -20 c-6 -16 -36 -34 -44 -25 -9 9 15 37 33 37 8 0 13 -5 11 -12z"></path><path d="M3590 1860 c0 -25 4 -30 24 -30 31 0 43 30 20 47 -29 21 -44 15 -44 -17z"></path><path d="M3759 1831 c13 -24 -9 -47 -27 -29 -9 9 -9 15 1 26 10 12 9 14 -3 10 -9 -3 -15 -17 -15 -34 0 -25 4 -29 32 -32 28 -3 33 1 39 22 8 33 -1 56 -21 56 -12 0 -14 -4 -6 -19z"></path><path d="M2532 1808 c-32 -32 9 -99 48 -78 23 12 34 58 19 76 -14 17 -51 18 -67 2z m51 -39 c-6 -23 -21 -25 -29 -4 -8 20 16 51 26 34 4 -6 5 -20 3 -30z"></path><path d="M3629 1763 c0 -10 -2 -35 -4 -55 -2 -21 0 -38 5 -38 6 0 10 4 10 9 0 5 14 22 30 38 17 15 30 35 29 43 0 10 -2 11 -6 3 -7 -18 -30 -16 -37 2 -8 21 -26 19 -27 -2z"></path><path d="M4985 1747 c-8 -19 -20 -39 -28 -46 -19 -15 -116 -20 -196 -9 -35 4 -66 6 -69 4 -6 -7 74 -27 140 -34 l58 -7 -68 -52 c-75 -57 -99 -64 -126 -34 -10 11 -42 34 -72 52 -55 34 -67 49 -38 49 29 0 4 17 -35 24 -21 3 -41 13 -45 21 -3 8 -12 15 -21 15 -31 0 -13 -30 31 -53 17 -9 34 -23 37 -31 5 -14 103 -87 153 -114 34 -19 63 -7 124 49 29 27 70 54 89 60 44 13 91 71 91 111 0 37 -8 35 -25 -5z"></path><path d="M3124 1745 c-17 -44 27 -86 68 -64 20 11 25 63 6 75 -8 5 -9 2 -5 -9 9 -24 -2 -47 -23 -47 -22 0 -30 19 -18 43 6 13 5 17 -7 17 -9 0 -18 -7 -21 -15z"></path><path d="M3791 1733 c13 -15 12 -15 -9 -2 -22 13 -26 12 -53 -21 -29 -34 -37 -60 -20 -60 5 0 14 7 22 16 8 9 21 13 35 10 22 -6 54 15 54 34 0 20 -13 40 -27 40 -13 0 -13 -2 -2 -17z"></path><path d="M880 1703 c0 -27 30 -52 81 -67 68 -20 61 -36 -18 -37 -37 -1 -75 -3 -83 -4 -8 -1 -22 -3 -30 -4 -13 -1 -13 -2 0 -11 21 -13 200 -11 350 4 l125 13 -85 3 c-47 2 -102 2 -122 1 -50 -3 -75 6 -81 29 -3 11 -20 23 -42 29 -21 6 -51 23 -67 37 -26 26 -28 26 -28 7z"></path><path d="M2565 1672 c-5 -11 -9 -13 -12 -4 -8 22 -35 14 -31 -10 2 -17 11 -24 31 -26 32 -4 32 -8 11 -62 -19 -48 -34 -52 -34 -9 0 27 -2 30 -15 19 -8 -7 -15 -21 -15 -32 0 -10 -4 -16 -10 -13 -20 12 -9 -7 16 -28 l26 -23 -18 -37 c-19 -40 -36 -50 -27 -16 4 16 2 20 -8 17 -16 -5 -20 -87 -4 -90 20 -4 75 82 75 118 0 19 4 34 8 34 17 0 32 52 32 110 0 60 -12 84 -25 52z"></path><path d="M3130 1624 c-18 -34 -3 -59 36 -59 24 0 30 5 32 26 3 27 -20 59 -42 59 -7 0 -19 -12 -26 -26z m50 -19 c0 -8 -7 -15 -15 -15 -8 0 -15 7 -15 15 0 8 7 15 15 15 8 0 15 -7 15 -15z"></path><path d="M4231 1607 c-22 -42 -51 -51 -191 -62 l-135 -11 90 -8 c53 -5 113 -5 148 1 31 5 57 6 57 3 0 -13 -46 -48 -79 -59 -19 -6 -54 -27 -78 -47 -55 -45 -104 -51 -113 -14 -3 14 -21 35 -40 47 -64 41 -73 49 -73 65 0 11 -12 19 -34 23 -19 3 -40 16 -49 30 -9 14 -20 25 -25 25 -18 0 -8 -32 16 -54 14 -13 25 -34 25 -49 0 -29 23 -41 49 -27 14 7 23 5 35 -9 20 -22 21 -51 1 -51 -9 0 -15 10 -15 26 0 16 -5 24 -12 22 -20 -7 -21 -37 -5 -72 9 -17 18 -39 21 -48 4 -12 16 -18 35 -18 25 0 32 5 37 27 5 18 2 30 -10 38 -12 9 -14 18 -7 36 8 24 9 23 31 -14 12 -21 34 -44 49 -52 19 -10 21 -14 9 -15 -24 0 -23 -27 1 -39 18 -10 18 -13 -5 -111 -56 -236 -167 -366 -295 -346 -74 12 -150 81 -312 286 -115 145 -147 171 -211 169 -27 -1 -25 -2 17 -14 26 -7 55 -19 64 -27 9 -7 68 -79 131 -161 138 -178 189 -232 245 -257 82 -38 189 -18 249 46 39 43 93 137 108 189 7 25 16 45 20 45 5 0 2 -22 -5 -48 -60 -230 -235 -352 -382 -267 -64 38 -233 210 -310 317 -47 66 -72 91 -107 108 -39 18 -51 20 -78 11 -34 -12 -68 -39 -68 -53 0 -6 14 2 31 16 68 58 132 22 243 -138 78 -113 216 -255 277 -287 52 -27 144 -32 199 -10 50 20 117 77 148 125 14 22 27 43 29 45 2 3 13 -5 26 -16 50 -46 87 -57 192 -57 76 0 115 6 164 22 82 28 175 81 227 129 86 79 185 268 171 323 -3 11 -1 20 3 20 13 0 21 92 12 125 l-9 30 -7 -30 c-34 -145 -125 -342 -190 -407 -54 -55 -135 -103 -228 -134 -59 -21 -87 -24 -148 -21 -41 2 -86 8 -99 12 -16 5 -22 5 -18 -2 4 -6 37 -16 73 -23 53 -10 81 -10 136 0 86 15 100 7 18 -10 -121 -26 -299 11 -309 64 -2 14 1 17 14 12 14 -5 15 -4 7 7 -8 10 -6 30 8 78 11 35 20 75 20 89 1 55 9 65 51 65 24 0 39 -4 39 -12 0 -17 36 -26 59 -14 10 6 25 24 33 41 7 16 18 30 25 30 18 0 34 35 26 56 -6 15 -7 14 -15 -5 -7 -19 -13 -22 -34 -17 -25 7 -26 5 -21 -21 3 -15 1 -36 -4 -45 -12 -22 -44 -24 -35 -3 3 9 -1 18 -8 21 -8 3 -16 14 -19 25 -3 10 -10 19 -15 19 -6 0 -8 -9 -5 -19 3 -13 -2 -21 -16 -26 -31 -10 -41 2 -42 48 0 33 -2 38 -9 22 -5 -11 -9 -32 -9 -47 -1 -15 -6 -30 -11 -33 -7 -5 -9 15 -4 62 8 78 26 101 124 152 39 21 61 40 75 68 11 21 23 40 26 43 10 8 29 48 29 59 0 19 -16 12 -29 -12z m-353 -244 c-2 -10 -10 -18 -18 -18 -8 0 -16 8 -18 18 -2 12 3 17 18 17 15 0 20 -5 18 -17z m837 -72 c-21 -60 -67 -150 -83 -164 -9 -6 -13 -7 -11 -2 43 92 99 205 103 205 3 0 -1 -18 -9 -39z"></path><path d="M1306 1576 c-26 -40 -62 -53 -201 -71 -71 -9 -132 -18 -134 -21 -2 -2 38 -4 90 -4 153 0 252 32 265 86 9 35 0 39 -20 10z"></path><path d="M4415 1534 c-4 -24 -13 -38 -26 -41 -23 -6 -25 -19 -3 -31 15 -8 15 -15 0 -85 -34 -167 -98 -237 -298 -326 -26 -12 -55 -21 -63 -21 -8 0 -15 -4 -15 -9 0 -9 44 2 126 32 60 22 95 41 149 82 47 36 76 41 39 6 -25 -24 -98 -62 -214 -110 -62 -26 -86 -40 -69 -41 102 -1 351 141 380 219 11 28 49 272 48 305 0 11 -11 -28 -23 -89 -29 -138 -45 -195 -55 -195 -17 0 -19 14 -6 49 31 80 68 253 59 276 -10 25 -21 17 -29 -21z m-35 -334 c0 -5 -7 -10 -15 -10 -8 0 -15 5 -15 10 0 6 7 10 15 10 8 0 15 -4 15 -10z"></path><path d="M816 1542 c-11 -18 8 -54 37 -69 17 -9 39 -26 49 -38 9 -12 38 -28 63 -35 33 -9 50 -21 60 -40 21 -40 82 -49 123 -17 9 7 12 1 12 -24 1 -19 7 -52 15 -74 19 -53 18 -57 -5 -15 -11 19 -19 45 -20 58 0 32 -20 27 -20 -5 0 -30 19 -71 61 -131 15 -20 30 -48 33 -62 7 -24 6 -24 -19 5 -15 17 -40 52 -57 78 -17 26 -32 46 -35 44 -9 -10 92 -154 151 -216 106 -111 219 -187 352 -237 46 -17 79 -24 99 -20 30 6 215 127 288 188 29 24 40 29 49 20 9 -9 8 -12 -7 -12 -18 -1 -18 -2 4 -20 13 -11 38 -20 57 -20 25 0 37 -6 50 -27 28 -46 111 -111 150 -119 50 -9 111 11 146 49 16 18 45 66 65 108 l36 75 36 -18 c19 -10 47 -18 61 -18 34 0 41 -7 69 -62 13 -27 27 -48 32 -48 9 0 -9 59 -24 78 -8 10 -7 16 3 22 21 13 13 17 -60 31 -75 14 -85 22 -95 67 -7 35 -5 36 45 22 50 -15 351 -15 443 -1 43 7 95 19 115 27 l37 14 -40 -7 c-22 -3 -49 -8 -60 -10 -11 -3 -75 -7 -142 -10 l-123 -5 0 42 c0 82 -56 142 -135 142 -80 0 -132 -50 -159 -152 -19 -72 -35 -114 -42 -107 -7 7 43 171 66 217 28 55 67 88 108 92 29 3 33 6 19 12 -20 9 -65 -6 -93 -33 -18 -16 -22 -16 -64 1 -40 15 -42 17 -17 17 46 1 20 21 -28 21 -29 0 -45 5 -49 15 -3 9 -18 15 -34 15 -25 0 -30 -5 -35 -30 -5 -21 -12 -30 -25 -30 -11 0 -30 -8 -43 -18 -13 -10 -58 -40 -100 -65 -74 -46 -122 -87 -102 -87 5 0 35 16 68 35 32 20 59 34 61 32 2 -1 -21 -22 -51 -46 -30 -24 -55 -46 -55 -47 0 -2 22 10 50 27 30 19 57 28 68 25 13 -5 22 1 30 19 7 14 24 31 40 38 15 7 39 20 55 31 18 12 50 20 93 22 l66 3 -26 -20 c-14 -11 -44 -47 -67 -79 -23 -33 -43 -60 -45 -60 -12 0 1 26 40 84 65 97 36 80 -37 -21 -88 -122 -138 -174 -188 -194 -36 -14 -41 -19 -26 -24 11 -5 34 -1 55 9 30 14 34 15 22 2 -8 -8 -28 -22 -45 -30 -17 -9 -23 -16 -14 -16 42 0 159 103 245 217 51 68 97 113 115 113 4 0 -5 -28 -21 -62 -16 -35 -41 -110 -55 -168 -15 -58 -33 -115 -41 -128 -57 -87 -197 -79 -272 16 -57 72 -75 126 -82 249 -7 128 -20 163 -20 53 0 -70 -2 -75 -32 -102 -17 -15 -35 -28 -39 -28 -5 0 -46 -24 -91 -54 -100 -64 -182 -96 -246 -95 -62 1 -104 17 -47 18 74 2 185 40 283 97 69 41 43 37 -45 -6 -104 -50 -157 -63 -235 -58 -142 10 -375 161 -426 276 -23 53 -41 124 -35 139 3 7 27 23 53 34 49 21 82 50 93 82 4 9 -8 2 -28 -17 -18 -19 -49 -37 -67 -41 -46 -10 -78 -32 -78 -55 0 -43 -94 -57 -109 -17 -11 29 -29 44 -63 52 -15 4 -34 15 -44 26 -9 10 -22 19 -29 19 -17 0 -55 44 -55 63 0 18 -15 23 -24 9z m1622 -220 c2 -7 -3 -12 -10 -12 -8 0 -15 7 -15 15 0 18 19 15 25 -3z m329 -112 c40 -24 62 -57 70 -105 l6 -38 -124 7 c-68 4 -128 11 -133 16 -14 14 34 100 68 121 40 24 73 24 113 -1z m-1442 -137 c25 -17 124 -68 235 -122 24 -11 24 -11 -8 -6 -38 6 -131 49 -215 101 -82 50 -81 37 1 -17 90 -59 177 -103 234 -119 86 -23 208 -7 292 38 5 3 6 0 2 -6 -3 -6 -19 -17 -34 -25 -15 -8 -53 -28 -86 -46 -98 -52 -183 -43 -321 38 -79 46 -169 135 -162 161 3 11 -1 24 -9 31 -8 6 -14 18 -14 27 0 12 7 10 28 -10 15 -13 41 -34 57 -45z m757 -49 l16 -56 -30 6 c-30 6 -26 8 -256 -148 -50 -33 -94 -56 -110 -56 -30 0 -122 30 -122 41 0 3 28 9 63 11 35 3 78 13 97 23 61 31 200 127 195 135 -3 4 3 7 13 6 9 0 21 9 27 22 5 12 16 20 23 17 7 -3 11 -1 7 4 -5 8 41 50 56 51 3 0 13 -25 21 -56z m33 -85 c10 -15 -1 -23 -20 -15 -9 3 -13 10 -10 16 8 13 22 13 30 -1z m275 -150 c0 -8 -68 -16 -93 -11 -36 7 -14 17 38 17 30 0 55 -3 55 -6z"></path><path d="M3167 1508 c-13 -47 -8 -67 18 -74 28 -7 31 -14 14 -31 -15 -15 -3 -63 14 -63 8 0 24 11 37 25 25 27 21 32 -11 15 -20 -11 -28 3 -8 15 6 4 8 13 5 21 -3 8 -1 23 6 33 12 20 5 51 -11 51 -6 0 -8 -7 -4 -16 3 -9 0 -20 -8 -25 -23 -14 -29 -10 -29 19 0 40 -16 60 -23 30z"></path><path d="M4657 1515 c14 -10 19 -22 16 -36 -4 -12 0 -25 8 -30 10 -6 11 -13 4 -25 -13 -20 -31 -19 -27 2 4 19 -27 18 -34 -1 -8 -21 14 -45 41 -45 26 0 32 11 41 80 6 47 5 50 -20 60 -39 15 -54 12 -29 -5z"></path><path d="M3403 1500 c-27 -43 -7 -110 33 -110 38 0 74 48 73 95 l-1 30 -8 -29 c-11 -37 -38 -66 -61 -66 -14 0 -19 10 -21 50 -3 45 -4 48 -15 30z"></path><path d="M1810 1484 c0 -8 20 -24 46 -35 25 -11 48 -27 50 -34 3 -7 23 -25 45 -40 22 -14 44 -37 49 -50 5 -14 15 -25 22 -26 7 0 22 -2 32 -4 21 -4 66 25 133 86 43 39 72 76 37 49 -61 -50 -132 -99 -151 -104 -18 -6 -31 1 -60 31 -21 21 -49 46 -63 54 -23 15 -20 16 75 23 276 20 286 31 31 31 -171 0 -196 2 -213 18 -24 21 -33 22 -33 1z"></path><path d="M4318 1397 c-15 -19 -17 -19 -18 -4 0 27 -30 21 -30 -7 0 -44 49 -44 69 0 19 42 7 48 -21 11z"></path><path d="M1834 1371 c-5 -25 -9 -29 -21 -20 -18 16 -22 10 -16 -23 4 -19 12 -28 24 -28 14 0 19 -11 25 -46 10 -70 38 -157 52 -162 9 -3 10 2 3 20 -15 33 -41 187 -41 236 0 50 -18 65 -26 23z"></path><path d="M1260 1377 c0 -23 -29 -34 -41 -16 -6 10 -11 11 -19 3 -13 -13 12 -44 35 -44 8 0 15 -12 17 -27 2 -22 9 -29 29 -31 14 -2 31 4 38 12 17 21 -3 56 -32 55 -22 0 -22 0 2 -10 19 -8 21 -12 11 -24 -7 -8 -14 -15 -17 -15 -10 0 -20 47 -13 66 5 11 4 27 -1 35 -7 11 -9 11 -9 -4z"></path><path d="M4585 1358 c4 -16 4 -19 -3 -9 -11 15 -32 7 -32 -14 0 -16 25 -26 45 -19 16 6 19 22 9 48 -9 25 -26 19 -19 -6z"></path><path d="M1895 1360 c-12 -20 41 -225 66 -254 4 -5 5 -15 2 -22 -3 -8 0 -14 5 -14 16 0 26 21 15 29 -13 8 -63 198 -63 239 0 31 -13 42 -25 22z"></path><path d="M3438 1336 c-11 -10 -34 -13 -84 -10 l-69 3 60 -13 c58 -13 59 -13 20 -15 -22 -2 -56 -9 -75 -16 -34 -13 -33 -13 46 -14 45 -1 95 -4 112 -7 27 -6 29 -8 19 -25 -25 -40 43 -81 73 -45 13 17 0 22 -16 6 -6 -6 -15 -6 -24 0 -20 13 1 46 26 42 18 -3 180 -107 188 -120 2 -4 7 -22 11 -39 6 -29 4 -33 -16 -33 -12 0 -27 7 -34 17 -16 22 -38 8 -25 -16 18 -34 100 -38 100 -6 0 26 17 24 64 -5 52 -33 64 -27 13 7 -17 12 -57 46 -87 75 -30 29 -77 70 -104 91 -27 20 -46 37 -41 37 23 0 207 -121 262 -173 39 -36 52 -32 22 7 -17 21 -19 32 -12 49 14 33 5 57 -20 56 -12 0 -16 -3 -9 -6 14 -6 16 -29 3 -38 -6 -3 -43 16 -83 42 -87 56 -170 97 -227 113 -23 6 -39 15 -36 20 3 5 1 11 -5 15 -5 3 -10 1 -10 -4 0 -6 -5 -11 -11 -11 -5 0 -8 4 -4 9 9 16 -13 22 -27 7z"></path><path d="M2811 1325 c0 -11 4 -29 9 -40 8 -18 9 -18 9 5 0 14 -4 32 -9 40 -8 12 -10 12 -9 -5z"></path><path d="M3260 1319 c0 -5 5 -7 10 -4 6 3 10 8 10 11 0 2 -4 4 -10 4 -5 0 -10 -5 -10 -11z"></path><path d="M2746 1296 c3 -9 11 -16 16 -16 13 0 5 23 -10 28 -7 2 -10 -2 -6 -12z"></path><path d="M3033 1303 c-21 -7 -15 -23 7 -20 11 2 22 6 25 9 8 8 -17 16 -32 11z"></path><path d="M1092 1285 c0 -11 3 -29 8 -40 11 -25 11 1 0 35 -6 20 -8 21 -8 5z"></path><path d="M1778 1273 c-2 -22 -8 -28 -27 -28 -29 0 -40 -22 -16 -31 30 -12 65 13 65 45 0 39 -18 50 -22 14z"></path><path d="M3890 1286 c0 -8 5 -18 10 -21 15 -9 12 -25 -5 -25 -20 0 -19 -29 0 -36 19 -8 45 13 45 36 0 10 7 20 15 24 24 9 17 24 -9 19 -13 -3 -27 0 -30 6 -10 16 -26 14 -26 -3z"></path><path d="M4520 1280 c-1 -14 -4 -19 -7 -12 -7 19 -45 15 -41 -4 5 -29 35 -41 55 -22 13 14 14 22 5 40 l-11 23 -1 -25z"></path><path d="M4222 1218 c-17 -17 -15 -36 7 -47 14 -8 22 -7 31 4 26 31 -9 72 -38 43z"></path><path d="M1360 1213 c0 -6 -9 -9 -21 -6 -16 4 -20 2 -17 -8 6 -18 37 -24 51 -10 8 8 8 14 -1 23 -8 8 -12 9 -12 1z"></path><path d="M1596 1211 c-4 -5 -1 -11 6 -13 14 -5 4 -38 -12 -38 -5 0 -10 7 -10 15 0 8 -4 15 -10 15 -5 0 -10 -11 -10 -25 0 -21 5 -25 28 -25 32 0 52 16 52 42 0 20 -36 43 -44 29z"></path><path d="M1650 1185 c0 -30 24 -43 45 -25 17 14 20 50 5 50 -5 0 -10 -7 -10 -15 0 -8 -4 -15 -10 -15 -5 0 -10 7 -10 15 0 8 -4 15 -10 15 -5 0 -10 -11 -10 -25z"></path><path d="M1393 1174 c-7 -20 12 -36 60 -53 46 -15 68 -3 66 38 -2 23 -2 24 -6 4 -3 -14 -12 -23 -23 -23 -13 0 -17 5 -13 20 4 16 0 20 -20 20 -14 0 -28 -6 -30 -12 -3 -8 -6 -6 -6 5 -1 21 -20 22 -28 1z"></path><path d="M2052 1165 c0 -16 2 -22 5 -12 2 9 2 23 0 30 -3 6 -5 -1 -5 -18z"></path><path d="M3541 1132 c-7 -14 -6 -25 5 -40 27 -40 75 -22 73 28 0 24 -1 24 -9 4 -12 -30 -25 -36 -39 -20 -8 10 -9 16 -1 21 15 9 12 25 -5 25 -8 0 -19 -8 -24 -18z"></path><path d="M3234 1094 c15 -14 15 -18 -1 -45 -39 -67 -118 -89 -321 -90 -94 0 -130 -3 -114 -9 12 -6 66 -10 120 -11 131 -1 145 -5 137 -38 -3 -14 1 -39 10 -55 28 -54 18 -77 -37 -81 -33 -3 -58 -21 -58 -43 0 -14 1 -14 13 1 7 10 30 17 57 19 38 3 47 7 59 33 12 26 12 33 -2 58 -34 59 -20 87 65 127 51 24 94 61 103 91 8 23 -11 59 -31 59 -14 0 -14 -2 0 -16z"></path><path d="M4025 950 c3 -5 8 -10 11 -10 2 0 4 5 4 10 0 6 -5 10 -11 10 -5 0 -7 -4 -4 -10z"></path><path d="M2706 823 c-3 -3 -6 -16 -6 -28 0 -16 12 -27 43 -41 33 -15 41 -24 40 -42 -4 -31 30 -42 133 -42 89 0 101 -8 58 -37 -38 -24 -149 -20 -186 7 -16 11 -28 17 -28 12 0 -13 32 -39 57 -46 17 -5 24 -18 29 -52 3 -24 4 -55 0 -69 -3 -14 -9 -36 -12 -49 -13 -53 71 -87 124 -50 42 29 16 109 -35 104 -51 -6 -54 -2 -51 48 3 43 5 47 30 50 25 3 26 2 21 -37 -3 -25 -2 -41 5 -41 12 0 24 43 16 63 -3 9 5 18 25 26 39 17 64 45 59 68 -3 15 -18 19 -93 26 -123 10 -132 13 -139 43 -5 17 -19 30 -42 40 -24 10 -34 20 -30 29 6 15 -7 29 -18 18z m242 -355 c17 -17 15 -55 -4 -62 -40 -15 -94 0 -94 26 0 7 67 46 81 48 3 0 10 -5 17 -12z"></path></g></svg> 