<?xml version="1.0" encoding="UTF-8"?> <svg xmlns="http://www.w3.org/2000/svg" width="344" height="493" viewBox="0 0 344 493" fill="none"><path d="M120.389 35.6175C104.144 35.6175 82.6661 13.5595 69.6247 7.99386C26.3052 -10.4935 13.1134 19.4503 10.9326 34.0268C10.8513 34.57 10.7868 35.101 10.7381 35.6175C9.39945 49.8312 28.1661 56.6108 26.3052 72.674C24.2629 90.3029 11.4148 110.404 10.7381 122.531C10.7381 148.133 29.166 154.907 32.3969 171.041C37.1789 194.92 10.7381 201.36 10.7381 216.182C10.7381 231.004 20.8904 251.217 26.3052 278.167C30.6371 299.727 10.7382 319.149 4.6458 332.066C-5.82028 354.258 13.4456 361.038 20.8904 381.25C26.8462 397.42 22.6661 415.454 13.4456 428.412C-2.58398 453.279 2.4452 465.078 8.0307 476.922C20.8904 504.19 51.5752 485.232 65.5636 472.88C84.9909 455.725 111.666 463.98 118.358 469.511C128.916 476.922 141.236 498.886 159.647 487.028C178.057 475.17 201.166 463.98 215.166 463.98C224.829 463.98 243.036 463.717 257.114 472.88C271.193 482.042 289.603 488.376 297.049 490.397C347.136 497.135 353.666 445.565 326.831 428.412C305.459 414.752 307.328 396.845 309.909 389.335C318.793 363.487 342.166 363.942 334.953 326.676C326.831 296.752 292.175 295.28 303.141 273.45C326.831 226.288 339.014 226.288 320.062 183.842C304.9 149.885 313.409 134.961 320.062 128.595C340.416 109.118 331.569 92.2125 326.831 87.4962C308.962 62.7024 311.714 48.4189 315.324 44.3764C332.11 23.8945 325.83 15.8787 324.166 10.4794C319.062 -2.46071 263.738 3.79671 230.572 19.2929" stroke="rgba(255, 255, 255, 0.9)" stroke-width="3" stroke-linecap="round" stroke-linejoin="round"></path></svg>