<?xml version="1.0" encoding="UTF-8"?> <svg xmlns="http://www.w3.org/2000/svg" width="210" height="133" viewBox="0 0 210 133" fill="none"><path d="M101.318 1.54251C100.284 2.46123 99.7675 3.72448 99.4804 5.67678C99.3082 7.22713 99.0785 9.122 98.9636 9.86846C98.734 11.3614 99.6527 13.9453 100.399 13.9453C101.203 13.9453 101.777 12.5672 101.777 10.5001C101.949 2.46123 101.949 2.46123 104.017 1.59993C105.108 1.14056 106.371 0.910883 106.83 1.08314C107.29 1.25541 107.864 1.14056 108.093 0.796042C108.323 0.394099 107.462 0.164417 105.624 0.164417C103.442 0.164417 102.466 0.45152 101.318 1.54251Z" fill="white"></path><path d="M114.809 1.08222C112.8 1.88611 110.733 3.95324 110.675 5.15907C110.675 5.56102 110.445 5.90554 110.158 5.90554C109.412 5.90554 108.838 9.58044 109.297 11.3605C109.584 12.4515 109.986 12.796 110.847 12.6811C111.766 12.5663 112.225 11.7624 112.857 9.35076C113.316 7.34105 114.293 5.5036 115.441 4.29777C117.164 2.51773 117.508 2.40289 120.437 2.57516C122.159 2.69 124.054 3.03452 124.628 3.2642C126.179 4.01066 125.777 2.63258 124.054 1.48417C122.159 0.220919 117.336 -0.00876331 114.809 1.08222Z" fill="white"></path><path d="M87.7679 4.23933C85.0691 4.81354 83.1168 6.42131 81.5665 9.34975C80.418 11.4743 80.2458 12.5079 80.4755 15.7808L80.7052 19.7428L78.6954 20.5467C77.547 21.0061 75.9967 21.408 75.2502 21.408C72.9534 21.408 69.9101 23.1306 68.934 25.0255C66.4649 29.9063 71.1734 36.1651 76.3412 34.7296C78.6954 34.0979 78.4083 33.3515 75.4799 31.916C70.8863 29.6766 69.8527 26.3462 73.2405 24.6236C74.1018 24.2216 76.456 23.5326 78.4658 23.1306C81.7387 22.4416 82.1981 22.1545 82.8871 20.5467C83.2891 19.5132 83.5762 17.0441 83.5188 15.0344C83.4039 11.8188 83.6336 11.0724 85.0117 8.94781C86.8491 6.24905 88.9737 5.15806 92.3615 5.21548C93.6822 5.2729 94.5435 5.04322 94.2564 4.81354C93.4525 4.06707 89.8924 3.72255 87.7679 4.23933Z" fill="white"></path><path d="M129.912 4.75735C128.936 5.10188 129.051 5.27414 130.831 5.61866C136.4 6.70965 138.467 10.3271 137.836 17.7344C137.434 22.7874 138.353 24.8545 141.109 24.8545C143.291 24.8545 143.808 23.8783 142.315 22.328C141.683 21.639 141.166 20.3757 141.166 19.3996C141.224 18.4234 141.224 16.3563 141.281 14.8059C141.396 10.8439 139.788 7.85806 136.573 5.84834C133.989 4.18315 132.036 3.83863 129.912 4.75735Z" fill="white"></path><path d="M122.275 12.7962C119.749 16.184 121.184 22.9596 124.802 24.2803C125.606 24.6248 127.271 24.8545 128.534 24.8545C130.372 24.8545 130.773 24.6822 130.773 23.7061C130.773 23.017 130.372 22.5577 129.797 22.5003C127.96 22.4428 125.319 20.548 124.285 18.4808C123.538 17.0453 123.366 15.8395 123.596 13.7724C123.768 12.2794 123.826 11.0736 123.711 11.0736C123.596 11.0736 122.964 11.8201 122.275 12.7962Z" fill="white"></path><path d="M199.966 18.2504C198.416 18.7098 195.315 19.6859 193.076 20.5472C190.894 21.4085 187.448 22.6718 185.496 23.4182C174.759 27.4951 159.542 35.0746 157.762 37.1991C157.36 37.6585 156.786 38.0604 156.499 38.0604C155.465 38.0604 151.503 41.5631 151.101 42.8263C150.872 43.5154 150.24 44.6638 149.723 45.4102C148.403 47.0754 139.847 64.5312 140.134 64.8758C140.823 65.5648 147.426 55.9756 151.905 47.7645C154.489 43.056 156.499 41.1611 163.389 36.6823C167.294 34.0984 173.323 31.6293 185.037 27.6099C187.908 26.6338 190.951 25.4854 191.812 25.026C194.856 23.4757 204.445 20.7769 205.019 21.3511C206.053 22.3847 203.526 25.3131 199.162 28.1267C194.109 31.3997 193.363 31.7442 185.324 34.5004C176.653 37.4288 174.816 38.9792 178.146 40.4721C179.352 40.9889 180.673 40.8166 186.07 39.2088C189.573 38.1753 193.707 36.7972 195.258 36.0507C196.751 35.3617 198.071 34.9597 198.186 35.132C198.703 35.8785 196.923 38.2327 194.052 40.5869C191.181 42.9412 188.023 44.4341 177.457 48.3961C172.864 50.1187 171.658 51.3245 173.61 52.071C174.816 52.5304 180.386 51.0374 186.53 48.6258C189.228 47.5348 191.64 46.6735 191.87 46.6735C192.559 46.6735 192.214 50.1761 191.353 51.8413C190.032 54.4252 187.334 56.1479 180.443 58.7318C171.543 62.1196 170.739 62.6364 171.371 64.359C171.83 65.45 177.974 65.048 180.558 63.7848C182.912 62.6364 185.898 61.9473 185.898 62.5789C185.898 62.8086 185.152 64.1867 184.233 65.5648C182.395 68.321 178.376 71.3643 176.481 71.4217C175.792 71.4217 173.495 71.881 171.256 72.4552C166.949 73.5462 165.858 74.7521 168.098 75.9579C169.361 76.6469 174.644 76.245 177.228 75.2688C179.18 74.5798 179.295 74.9817 177.917 77.9102C176.768 80.2644 176.309 80.6089 173.438 81.4128C171.658 81.9296 169.304 82.2741 168.155 82.2167C164.882 81.9296 162.356 82.7335 162.356 84.0542C162.356 84.9729 162.758 85.1452 164.825 85.1452C168.442 85.1452 169.016 85.7194 168.213 88.4755C166.547 93.9305 162.413 95.3086 157.819 91.9782C155.523 90.2556 155.35 90.1981 154.604 91.2317C153.57 92.6098 153.57 92.8969 154.604 94.8492C156.671 98.926 166.145 99.5003 168.787 95.7679C169.361 95.0215 170.107 92.495 170.452 90.0833L171.084 85.7768L173.208 85.4323C175.907 84.9729 178.663 83.3651 179.869 81.4702C180.386 80.6664 180.96 78.427 181.132 76.5321C181.419 73.4888 181.649 72.9146 182.97 72.2256C184.979 71.2494 186.932 67.5745 187.448 64.1293C187.793 61.6602 188.195 60.9712 191.008 58.3298L194.224 55.344V50.0039C194.224 47.0754 194.339 44.5489 194.511 44.3767C197.152 41.6779 198.243 39.8979 199.047 37.0269C199.851 33.9836 200.311 33.352 202.78 31.6293C206.684 28.988 208.981 25.6002 209.326 22.0976C209.555 19.5711 209.44 19.1117 208.235 18.3652C206.569 17.2742 203.813 17.2742 199.966 18.2504Z" fill="white"></path><path d="M90.4635 18.3088C90.1764 18.5385 90.0042 19.8017 90.0042 21.065C89.9468 26.4625 88.2816 29.5058 84.8363 30.3671C81.2763 31.2858 81.5634 33.4678 85.2957 33.4678C87.9945 33.4678 90.9803 31.171 91.4397 28.7019C91.8416 26.4051 91.0377 17.6772 90.4635 18.3088Z" fill="white"></path><path d="M114.468 18.9981C113.836 20.8356 114.583 25.4866 115.789 27.4963C116.937 29.3912 119.234 30.6545 124.057 32.0326C127.732 33.1235 128.479 34.0423 128.479 37.4301C128.479 41.8514 130.661 44.9521 133.704 44.9521C136.403 44.9521 139.216 43.3444 139.905 41.4495C140.652 39.3249 140.02 38.9804 137.895 40.4159C136.977 40.9901 135.254 41.5069 134.048 41.5069C131.637 41.5069 131.235 40.9327 130.546 36.2242C129.971 32.3771 128.134 30.4248 123.54 28.817C118.889 27.1518 116.191 24.3956 115.444 20.3762C114.985 18.022 114.87 17.8497 114.468 18.9981Z" fill="white"></path><path d="M6.00057 20.7772C4.6799 23.0166 4.73732 27.2657 6.11541 29.907C7.26382 32.089 10.4794 35.4194 14.5562 38.5201L16.9679 40.3576L16.6808 43.975C16.3362 48.2241 16.9679 49.8893 20.5279 53.392C22.8247 55.7462 22.8247 55.7462 22.2505 58.3876C21.7912 60.5695 21.8486 61.3734 22.5951 62.8663C23.6286 64.8761 27.1313 68.4935 27.9926 68.4935C28.2797 68.4935 28.5094 69.4123 28.4519 70.5033C28.3945 71.7665 28.8539 73.1446 29.5429 74.1207C31.2081 76.3601 35.3424 79.4034 37.2373 79.8054C38.6154 80.035 38.845 80.3222 38.5579 81.4131C38.156 83.0783 40.0509 84.9158 42.5199 85.3177C46.1374 85.8345 45.8503 84.4564 42.0032 82.7338C38.2134 81.0686 38.7302 80.2073 43.7832 79.8054C48.4342 79.4034 50.3865 78.7144 50.3865 77.4511C50.3865 75.9582 48.8936 75.4988 42.5774 75.2117C36.0314 74.9246 32.7011 73.8911 30.8636 71.6517C29.6578 70.2162 30.5191 70.1013 33.3901 71.3071C37.1798 72.9723 42.8645 73.4317 44.3574 72.2833C45.5058 71.3646 45.5058 71.3646 44.0703 70.2736C43.3238 69.642 41.8883 69.0103 40.9122 68.8955C33.6198 67.6322 29.83 66.0245 26.3848 62.6941C23.0544 59.536 23.1118 55.6888 26.4422 57.8134C28.2797 59.0192 33.0456 60.4547 35.3424 60.4547C38.0986 60.4547 37.9263 58.445 34.9979 57.2391C26.9016 53.7939 21.6763 50.0042 19.6666 46.0996C18.7479 44.3196 18.9202 42.0802 20.0111 42.0802C20.3557 42.0802 21.1596 42.3673 21.8486 42.7692C23.9732 43.975 27.0739 44.9512 28.739 44.9512C32.2991 44.9512 29.3132 41.9079 23.5138 39.6111C18.9202 37.7736 11.1684 31.1129 8.41222 26.6341C7.32124 24.7966 7.60834 21.4088 8.87159 21.4088C9.33095 21.4088 11.111 22.6721 12.7762 24.165C15.8195 26.9212 22.0783 30.3664 32.8733 35.0749C45.391 40.5872 47.8026 41.7356 50.9033 43.5731C54.6931 45.8125 59.7461 50.9229 64.3397 57.0669C66.1197 59.4785 68.0146 61.8328 68.5888 62.2347C71.6895 64.8186 65.1436 52.2436 60.3203 46.3867C56.875 42.195 51.822 38.922 45.2187 36.6252C42.8645 35.8213 40.3954 34.9026 39.7638 34.6155C38.2708 33.9265 33.3327 32.0316 27.8203 30.0219C25.3512 29.1032 22.1357 27.6676 20.6428 26.7489C19.1498 25.8302 17.4846 24.854 16.9679 24.5669C16.4511 24.2224 14.4414 22.9017 12.4891 21.5237C10.5942 20.203 8.52706 19.112 8.01028 19.112C7.43608 19.112 6.57477 19.8585 6.00057 20.7772Z" fill="white"></path><path d="M109.357 23.8772C106.658 27.3798 102.983 28.356 98.0449 26.863L96.6094 26.4037L97.7578 27.6669C100.399 30.7102 103.959 31.0547 108.438 28.8153C111.079 27.4947 111.941 26.4611 111.998 24.2217C112.17 21.6952 111.137 21.5804 109.357 23.8772Z" fill="white"></path><path d="M1.29096 24.2793C1.86517 24.911 2.43937 25.4277 2.61163 25.4277C2.78389 25.4277 2.43937 24.911 1.86517 24.2793C1.29096 23.6477 0.716758 23.1309 0.544496 23.1309C0.372235 23.1309 0.716758 23.6477 1.29096 24.2793Z" fill="white"></path><path d="M145.703 27.0936C145.703 27.3807 146.105 27.8975 146.565 28.2995C147.024 28.7014 147.541 29.9072 147.77 30.9982C148.058 32.6634 147.828 33.4673 145.99 36.1086C143.751 39.3242 143.521 40.53 144.268 45.0088C144.67 47.363 145.933 48.0521 146.507 46.2146C146.737 45.6404 146.794 43.7455 146.737 41.9655C146.622 39.6687 146.852 38.4054 147.541 37.659C149.149 35.8215 149.895 32.4911 149.206 30.4814C148.287 27.8401 145.703 25.3136 145.703 27.0936Z" fill="white"></path><path d="M133.646 29.505C133.646 30.4238 135.771 32.7206 136.173 32.2612C136.288 32.1464 135.771 31.2277 135.025 30.3089C134.106 29.1605 133.646 28.8734 133.646 29.505Z" fill="white"></path><path d="M93.277 31.8011C92.9324 34.3276 90.9801 36.9116 89.4298 36.9116C87.3052 36.9116 83.1135 39.2658 82.2522 40.931C80.7593 43.802 81.1613 45.8691 84.0323 49.8886L86.6162 53.5635L85.3529 55.8603C84.262 57.7552 84.1471 58.3294 84.7787 58.6739C86.7885 59.9371 89.4298 57.4681 89.4298 54.2525C89.4298 51.8983 88.7407 50.4628 85.9271 47.4195C84.6639 46.0414 83.6877 44.4911 83.6877 43.8594C83.6877 42.6536 86.9607 39.7826 88.3388 39.7826C89.9466 39.7826 92.9899 37.4283 93.7363 35.5909C94.5402 33.5812 94.7125 30.1934 94.0234 29.734C93.7937 29.5617 93.4492 30.5379 93.277 31.8011Z" fill="white"></path><path d="M69.2195 37.257C68.3008 37.7164 67.095 39.1519 66.4634 40.4151C65.4298 42.3674 65.3724 43.0565 65.8892 44.6642C66.8079 47.4778 70.1957 50.6934 72.2054 50.6934C73.1815 50.6934 73.928 50.9231 73.928 51.2676C73.928 51.5547 74.2151 51.8418 74.5022 51.8418C74.8467 51.8418 75.0764 51.4399 75.0764 50.9805C75.0764 50.4637 75.5932 50.1192 76.2823 50.1192C77.0861 50.1192 77.3732 49.8321 77.2584 49.0856C77.1436 48.3966 76.4545 48.0521 75.0764 47.9372C71.3441 47.6501 70.4828 47.2482 69.0473 44.9513C67.2098 42.0803 67.2672 41.6784 69.3918 38.7499C70.3679 37.4293 71.057 36.3383 70.9422 36.3383C70.8847 36.3957 70.0808 36.7977 69.2195 37.257Z" fill="white"></path><path d="M94.0834 45.2385C94.6576 48.1096 100.916 49.8896 104.304 48.167C107.003 46.7315 105.969 46.0998 101.548 46.5018C98.0454 46.7889 97.3564 46.6741 95.7486 45.5256C94.1409 44.3772 93.9112 44.3198 94.0834 45.2385Z" fill="white"></path><path d="M114.695 45.008C114.753 47.4197 118.542 49.2571 122.16 48.6255C124.399 48.2236 126.179 46.9029 126.179 45.6971C126.179 44.7209 125.892 44.7209 124.112 45.9267C121.988 47.3048 117.796 47.0752 116.073 45.4674C115.097 44.5487 114.695 44.4338 114.695 45.008Z" fill="white"></path><path d="M133.358 48.5115C134.449 52.0141 136.516 53.5645 140.248 53.5645C141.626 53.5645 142.488 53.1625 143.349 52.0715C144.038 51.2102 144.555 50.2915 144.555 50.0044C144.555 48.856 142.545 48.856 140.076 50.1192L137.377 51.3825L135.597 49.3153C133.53 46.9611 132.841 46.674 133.358 48.5115Z" fill="white"></path><path d="M111.939 54.4261C112.054 56.1487 112.398 57.5842 112.686 57.6416C113.432 57.6416 113.719 55.5745 113.26 53.2202C112.686 50.0621 111.767 50.9234 111.939 54.4261Z" fill="white"></path><path d="M73.1823 52.8176C71.8616 54.0808 74.503 61.3158 76.6849 62.3494C78.2927 63.1533 80.0153 63.0384 81.2786 62.0623C82.1973 61.2584 81.2786 60.11 79.3263 59.6506C77.7759 59.2487 74.503 55.1144 74.503 53.4492C74.503 52.4156 73.8713 52.0711 73.1823 52.8176Z" fill="white"></path><path d="M135.54 57.1831C134.104 61.3748 134.047 61.6045 135.31 61.6045C136.459 61.6045 136.688 61.1451 137.263 57.4702C137.607 55.2308 136.229 55.0586 135.54 57.1831Z" fill="white"></path><path d="M113.145 62.2929C112.169 62.6375 111.193 63.2691 111.02 63.671C110.791 64.3601 111.02 64.3027 112.399 63.6136C114.179 62.6949 117.566 62.4652 117.566 63.2117C117.566 63.4988 116.877 64.0156 116.016 64.4175C112.915 65.9104 112.686 66.0253 112.513 66.944C112.341 67.633 112.743 67.7479 114.58 67.5182C117.05 67.1737 118.141 67.9776 116.992 69.3557C116.073 70.5041 112.973 70.4466 111.308 69.2982C109.585 68.035 108.494 69.0686 110.102 70.5041C110.733 71.0783 112.456 71.6525 114.064 71.8247C116.533 72.0544 117.107 71.8822 118.37 70.6189C120.15 68.7815 120.208 68.2647 118.657 66.7143C117.509 65.5659 117.509 63.9007 118.715 63.9007C119.002 63.9007 119.289 63.3839 119.289 62.7523C119.289 61.7762 118.944 61.6039 117.164 61.6613C115.959 61.7187 114.179 62.0058 113.145 62.2929Z" fill="white"></path><path d="M84.0905 65.4503C83.2866 66.1967 83.746 69.9865 84.837 72.4556C87.5357 78.3699 92.5887 83.4229 95.8617 83.4229C97.7566 83.4229 98.3882 82.5615 97.1249 81.5854C93.1629 78.3699 90.0048 75.0969 87.6506 71.7091C86.1002 69.5271 84.837 67.46 84.837 67.1155C84.837 66.7709 85.2963 67.2303 85.928 68.0916C87.5357 70.6181 93.3926 76.4176 94.6559 76.8195C96.3785 77.3937 99.7663 75.5563 99.7663 74.1207C99.7663 72.9723 99.8811 72.9723 101.546 74.5801C102.522 75.4988 104.532 77.7957 105.968 79.6905C107.69 81.8151 108.724 82.7912 108.839 82.217C109.528 78.7144 100.685 68.8955 97.814 69.9865C97.2972 70.1587 96.8953 70.6755 96.8953 71.1349C96.8953 72.513 96.0914 72.0536 93.5649 69.0678C91.3255 66.4264 89.3732 65.5077 88.6267 66.6561C88.4545 66.8858 89.6029 68.2064 91.2106 69.5271C93.9668 71.9962 95.6894 74.2356 94.7133 74.2356C94.0817 74.2356 85.9854 66.1393 85.9854 65.5077C85.9854 64.9335 84.6073 64.8761 84.0905 65.4503Z" fill="white"></path><path d="M71.0565 67.4598C68.2429 69.0675 64.7402 73.0296 64.7402 74.6373C64.7402 75.7283 65.5441 75.556 66.7499 74.2354C67.3816 73.5463 69.9655 71.7089 72.6068 70.1011C75.2482 68.4933 77.3727 66.8856 77.3727 66.4836C77.3727 65.2778 73.9849 65.7946 71.0565 67.4598Z" fill="white"></path><path d="M132.783 67.1726C131.864 67.6319 130.371 68.6655 129.567 69.4694C128.247 70.6752 127.845 70.7901 126.868 70.1584C125.95 69.5842 125.376 69.6417 123.366 70.6752C119.691 72.6275 115.097 76.4173 113.719 78.7141C112.111 81.4703 111.767 83.0206 111.422 90.313C111.193 95.5957 111.308 96.9738 112.628 101.682C114.523 108.343 115.959 111.444 120.897 119.31C125.203 126.201 128.476 129.301 132.783 130.507C134.792 131.081 135.481 131.024 136.917 130.278C138.869 129.301 142.602 125.052 144.554 121.607C147.827 115.865 148.459 114.257 149.148 110.582C149.549 108.458 150.066 106.046 150.353 105.3C150.64 104.553 151.042 101.223 151.272 97.8351C151.559 92.2653 151.444 91.3466 150.066 87.2697C147.884 80.7238 145.013 75.3837 142.257 72.7998L139.845 70.503L141.798 73.6611C142.946 75.3837 144.669 79.116 145.645 81.987C146.678 84.8006 147.769 87.9013 148.114 88.8201C148.459 89.6814 148.746 93.184 148.688 96.5718C148.631 107.137 145.415 117.128 139.96 123.559C136.572 127.579 134.907 128.153 131.347 126.488C126.926 124.421 123.94 120.746 119.059 111.444C114.466 102.658 112.858 94.677 114.121 86.9826C114.523 84.5135 115.097 82.3316 115.327 81.987C115.614 81.6999 115.844 80.7812 115.844 79.9773C115.844 78.8863 116.648 77.7379 118.944 75.7856C120.667 74.2927 122.332 73.0869 122.677 73.0869C123.538 73.0869 123.481 74.4076 122.619 75.2689C122.103 75.7856 122.103 76.1302 122.562 76.5895C123.423 77.4508 125.146 76.3598 129.969 71.7662C132.266 69.6417 134.391 67.919 134.792 67.919C135.711 67.919 134.907 70.2159 133.587 71.3069C130.945 73.6037 123.308 83.7671 123.423 84.8581C123.768 87.0975 125.376 86.4084 127.959 82.7909C129.338 80.8386 131.864 77.5083 133.472 75.4411C136.974 71.0772 138.123 68.321 137.089 67.0577C136.171 65.9668 134.965 66.0242 132.783 67.1726Z" fill="white"></path><path d="M57.4484 80.0353C54.4625 80.6096 50.6154 82.5618 49.8689 83.8825C49.3521 84.9161 49.467 92.3233 50.0986 94.2756C50.3283 95.0221 50.2134 95.4814 49.8115 95.4814C48.7205 95.4814 49.5244 101.453 50.9025 103.75C52.4528 106.219 54.4625 107.712 58.1949 109.147C60.3768 109.951 60.951 110.411 60.8362 111.329C60.7213 112.191 60.1471 121.435 60.1471 123.158C60.1471 123.445 58.8839 123.617 57.391 123.617C55.8406 123.617 53.1993 124.019 51.4767 124.536C40.7391 127.694 48.1463 132.805 63.4775 132.805C68.9325 132.805 69.8512 132.69 70.9422 131.656C71.6886 130.967 72.2054 129.761 72.2054 128.785C72.2054 127.809 72.3777 127.063 72.55 127.063C72.7222 127.063 73.928 127.867 75.1913 128.9C77.2584 130.508 81.9095 132.23 84.2063 132.23C84.6657 132.23 86.3883 131.541 88.1109 130.738C94.1974 127.752 104.878 114.086 107.347 106.219C108.265 103.176 109.529 97.0318 109.299 96.7447C108.61 96.1131 107.519 97.7782 105.394 102.314C100.686 112.65 92.5322 124.651 88.3406 127.465C86.1012 129.015 82.7134 129.187 80.3017 127.981C78.5791 127.063 71.6312 119.885 71.6312 119.024C71.6312 118.679 71.1719 117.99 70.6551 117.416C69.0473 115.808 67.0376 112.822 67.0376 112.133C67.0376 111.846 66.8079 111.559 66.4634 111.559C65.7743 111.559 65.7743 111.215 66.5208 115.291C67.1524 118.679 68.7602 122.526 70.2531 124.249C70.9996 125.053 70.8273 125.168 68.5879 125.168C65.1427 125.225 64.1666 124.306 63.8221 120.632C63.7072 118.966 63.2478 115.693 62.9033 113.339C62.444 110.181 62.3865 108.975 62.9033 108.803C66.7505 107.54 70.368 101.798 71.5738 95.0795C72.2628 90.8878 72.3203 86.0071 71.5738 84.5716C71.3441 84.1122 70.9996 83.2509 70.8273 82.7341C70.1383 80.4947 63.0182 79.0592 57.4484 80.0353ZM68.5305 83.136C69.5641 85.72 63.5924 87.0406 53.429 86.3516C50.9599 86.2368 52.1083 84.8012 55.7258 83.5954C60.2046 82.0451 68.0137 81.8154 68.5305 83.136ZM68.7602 92.3807C68.7602 97.4337 67.3247 101.625 64.7408 104.209C61.5827 107.367 59.5729 107.253 56.1277 103.635C53.6586 101.109 53.429 100.592 52.7973 96.3427C52.3954 93.8162 52.1083 91.1175 52.1083 90.3136V88.8781H60.4342H68.7602V92.3807ZM61.2956 126.488C61.2956 126.833 62.8459 127.063 64.7982 127.063C67.3247 127.063 68.2434 127.235 68.0137 127.752C67.8415 128.268 66.0614 128.498 61.5827 128.498C51.0173 128.498 48.2611 127.867 53.429 126.661C56.6445 125.857 61.2956 125.742 61.2956 126.488Z" fill="white"></path><path d="M59.8601 93.2992C56.6445 94.0456 54.7497 95.0792 54.52 96.1128C54.4051 96.6296 54.9219 98.467 55.5535 100.304C57.5058 105.415 60.4343 106.219 64.3389 102.544C65.6595 101.223 65.8892 100.534 65.8892 97.7206C65.8892 94.9644 65.6595 94.2753 64.626 93.5289C63.1905 92.4953 63.133 92.4953 59.8601 93.2992Z" fill="white"></path><path d="M126.18 87.9598C126.18 88.2469 127.5 91.0031 129.108 94.1038C135.252 105.76 135.941 107.31 135.941 108.516C135.941 110.469 136.975 112.708 137.893 112.708C140.592 112.708 140.018 106.105 136.802 100.305C135.711 98.2381 133.07 94.5057 131.003 92.0367C127.5 87.7876 126.18 86.6391 126.18 87.9598Z" fill="white"></path><path d="M94.4845 89.7966C89.776 91.0598 83.0578 97.5483 80.5313 103.233C78.7513 107.138 77.0861 113.224 77.6603 113.741C77.89 113.971 78.2345 113.856 78.3493 113.511C78.4642 113.167 79.7848 110.755 81.2778 108.171C84.6656 102.257 88.3405 97.7206 91.958 94.8495C96.4368 91.2321 97.6426 88.9352 94.4845 89.7966Z" fill="white"></path></svg>