<?xml version="1.0" encoding="UTF-8"?> <svg xmlns="http://www.w3.org/2000/svg" width="627" height="649" viewBox="0 0 627 649" fill="none"><path d="M273.316 149.909C257.071 149.909 235.593 125.691 222.551 119.58C179.232 99.2827 166.04 132.159 163.859 148.163C163.778 148.759 163.714 149.342 163.665 149.909C162.326 165.515 181.093 172.958 179.232 190.594C177.19 209.95 163.665 231.137 163.665 245.334M383.499 131.986C416.665 114.972 469.29 106.474 483.63 123.498C489.369 130.311 490.763 148.809 479.757 166.478C479.757 166.478 453.616 205.251 473.902 226.592C494.189 247.932 461.708 297.051 456.067 308.032C445.102 332 479.757 333.616 487.88 366.47C495.093 407.385 471.719 406.886 462.836 435.265C460.255 443.511 458.385 463.171 479.757 478.169C506.593 497.001 500.062 553.621 449.976 546.224C442.53 544.004 424.12 537.051 410.041 526.991C395.962 516.93 377.756 517.22 368.093 517.22C354.093 517.22 330.984 529.506 312.574 542.525C294.163 555.544 281.843 531.429 271.285 523.292C264.593 517.22 237.918 508.156 218.49 526.991C204.502 540.552 173.817 561.368 160.957 531.429C155.372 518.425 150.343 505.471 166.372 478.169M179.232 313.21C173.817 283.621 163.665 261.43 163.665 245.156" stroke="#181818" stroke-width="2" stroke-linecap="round" stroke-linejoin="round"></path><path d="M352.803 80.9415C352.534 81.0432 352.19 81.2681 352.058 81.431C351.619 81.9599 351.718 82.3133 352.549 83.2259C353.449 84.183 354.231 84.5621 354.841 84.3193C355.153 84.1912 355.199 84.081 355.225 83.4106C355.259 82.5027 354.85 81.1304 354.48 80.9207C354.111 80.711 353.385 80.7116 352.803 80.9415Z" fill="#181818"></path><path d="M293.914 81.5355C292.402 81.9821 292.08 82.7533 291.918 86.3001L291.821 88.5205L292.213 88.857C292.673 89.252 293.541 89.5784 293.867 89.4648C294.277 89.3263 294.541 88.6369 294.705 87.2443C294.896 85.503 294.923 81.4476 294.744 81.3849C294.675 81.3543 294.295 81.4379 293.914 81.5355Z" fill="#181818"></path><path d="M300.655 88.7695C298.607 89.0001 298.296 89.1003 298.279 89.5472C298.262 89.9942 298.665 90.7787 299.021 90.974C299.445 91.2138 301.311 91.3819 302.334 91.2806C303.583 91.1458 303.959 90.8102 303.997 89.7906C304.018 89.2458 303.969 89.0621 303.724 88.8851C303.357 88.6055 302.353 88.5677 300.655 88.7695Z" fill="#181818"></path><path d="M284.345 88.6581C283.605 89.008 282.833 89.8461 282.946 90.1861C283.034 90.4552 284.513 91.2243 285.261 91.3923C285.593 91.4747 285.771 91.5933 285.765 91.733C285.759 91.9146 285.815 91.9027 286.089 91.6752C286.262 91.5279 286.633 91.332 286.901 91.2442C287.595 91.0046 288.038 90.7276 288.046 90.518C288.055 90.2806 286.535 88.7406 286.095 88.5562C285.531 88.3112 285.027 88.3481 284.345 88.6581Z" fill="#181818"></path><path d="M322.226 90.3742C322.178 90.5263 322.038 91.2903 321.897 92.0543C321.635 93.4572 321.447 93.9817 320.157 97.0943C319.772 98.045 319.234 99.3396 318.972 99.9872C318.724 100.635 318.141 102.026 317.682 103.086C317.237 104.146 316.315 106.377 315.637 108.044C314.96 109.711 314.144 111.723 313.806 112.521C313.455 113.32 312.809 115.267 312.357 116.873C311.906 118.465 311.206 120.732 310.799 121.906L310.076 124.033L303.439 123.685C287.965 122.85 286.543 122.755 284.354 122.281C283.246 122.029 281.692 121.747 280.886 121.633C278.816 121.345 278.733 121.314 277.962 120.278C276.845 118.781 276.65 118.759 275.819 120.043C275.093 121.149 274.791 122.494 274.695 125.036C274.267 136.784 273.481 163.597 273.53 164.886C273.563 165.852 273.684 166.738 273.799 167.008C274.248 168.074 275.642 168.518 279.582 168.876C285.513 169.407 307.139 170.11 307.152 169.761C307.155 169.705 306.53 169.583 305.751 169.498C304.986 169.413 304.389 169.321 304.418 169.294C304.664 169.065 306.334 168.876 308.445 168.83C309.787 168.811 311.87 168.749 313.059 168.71C317.479 168.555 323.395 169.127 324.069 169.782C324.176 169.898 324.424 169.991 324.619 170.013C324.869 170.036 324.84 170.063 324.461 170.133C324.193 170.192 323.032 170.219 321.874 170.189C320.73 170.16 319.347 170.164 318.801 170.185C317.164 170.263 325.402 170.728 333.786 171.043L341.515 171.32L341.744 172.28C342.032 173.536 342.085 173.594 342.954 173.543C344.032 173.471 344.235 173.283 344.716 172C345.306 170.428 345.425 169.132 345.503 163.721C345.564 158.394 345.474 151.117 345.322 148.496C345.267 147.711 345.282 147.697 345.617 147.71C346.175 147.731 349.595 148.531 351.793 149.145C354.613 149.937 358.362 150.917 360.826 151.5C364.26 152.314 367.829 153.624 370.638 155.086C372.309 155.961 372.875 156.15 373.949 156.19C375.191 156.223 375.831 155.911 376.582 154.891C377.436 153.734 377.952 152.634 378.539 150.768C378.824 149.897 379.249 148.613 379.498 147.937C379.748 147.247 380.063 146.293 380.207 145.795C380.338 145.297 380.656 144.259 380.922 143.514C381.188 142.755 381.755 141.042 382.183 139.715C382.61 138.388 383.299 136.4 383.746 135.298C384.179 134.195 384.77 132.581 385.054 131.71C385.903 129.196 389.555 119.78 390.237 118.365C390.584 117.665 390.863 116.934 390.87 116.753C390.897 116.04 389.123 114.924 385.002 113.063C381.815 111.628 380.499 110.977 376.568 108.898C374.842 107.994 372.083 106.687 370.46 106.025C365.494 103.963 356.951 100.844 352.202 99.3502C350.918 98.9382 348.806 98.2712 347.509 97.8446C346.225 97.4187 343.397 96.4869 341.23 95.7898C339.063 95.0787 336.303 94.1915 335.088 93.81C333.873 93.4286 331.292 92.59 329.361 91.9438C326.395 90.9509 325.012 90.5771 322.612 90.137C322.39 90.1006 322.275 90.1663 322.226 90.3742ZM326.222 95.5323C326.806 96.3656 327.8 97.7878 328.423 98.6785C329.695 100.517 335.422 109.783 335.993 110.951L336.37 111.707L335.72 112.256C334.999 112.872 330.508 115.64 324.065 119.426C321.708 120.82 318.965 122.437 317.951 123.028C316.95 123.62 315.868 124.181 315.529 124.266C314.697 124.473 313.603 124.585 313.609 124.446C313.632 123.817 314.818 118.672 315.38 116.735C316.295 113.58 318.543 107.664 320.744 102.642C321.539 100.825 322.765 97.5563 323.507 95.2902C324.17 93.273 324.685 93.3203 326.222 95.5323ZM332.565 95.8831C333.438 96.0838 334.907 96.3909 335.822 96.5653C336.737 96.7536 338.011 97.0673 338.659 97.2876C339.308 97.4938 340.605 97.9064 341.559 98.1801C345.87 99.4335 355.206 102.667 361.279 104.993C369.72 108.221 374.421 110.272 383.75 114.792C387.152 116.445 387.316 116.549 387.27 117.023C387.248 117.246 387.082 117.561 386.922 117.723C386.182 118.45 377.461 121.535 372.481 122.83C370.323 123.392 364.317 124.481 362.846 124.579C361.151 124.697 356.228 124.498 355.118 124.274C352.22 123.704 347.484 120.392 343.48 116.157C340.229 112.733 337.916 109.597 334.772 104.415C330.63 97.5727 329.533 95.1674 330.681 95.4625C330.834 95.4962 331.692 95.6964 332.565 95.8831ZM339.604 115.227C340.404 115.859 341.276 116.815 343.12 119.053C344.723 120.987 347.929 123.416 351.391 125.323C353.991 126.75 353.756 126.685 357.594 126.787L360.944 126.872L361.493 127.494C362.244 128.333 362.504 128.847 363.432 131.288C364.906 135.162 366.897 140.174 367.808 142.321C368.295 143.486 368.947 145.091 369.239 145.872C369.53 146.652 370.118 148.101 370.528 149.095C371.285 150.886 371.791 152.654 371.603 152.829C371.545 152.868 370.801 152.603 369.949 152.221C367.242 151.028 364.371 150.122 357.069 148.155C349.545 146.137 347.104 145.318 346.239 144.544L345.901 144.251L346.105 138.818L346.323 133.399L346.733 132.155C346.969 131.465 347.208 130.691 347.259 130.427C347.395 129.802 347.02 128.613 346.309 127.468C345.559 126.25 345.421 126.203 340.746 125.705C333.428 124.898 332.802 124.847 328.268 124.676C325.771 124.568 323.625 124.445 323.501 124.385C323.282 124.278 323.283 124.236 323.54 123.729C323.903 123.001 324.754 122.278 326.586 121.102C327.417 120.573 329.021 119.515 330.168 118.747C334.195 116.045 337.128 114.561 338.441 114.582C338.678 114.577 339.116 114.831 339.604 115.227ZM386.649 121.279C386.646 121.349 386.492 121.735 386.323 122.134C385.988 122.863 382.467 132.158 380.057 138.656C379.342 140.587 378.457 142.946 378.114 143.898C377.756 144.85 377.216 146.214 376.924 146.93C376.617 147.646 376.209 148.848 375.985 149.609C375.598 150.979 374.734 153.142 374.567 153.136C374.26 153.111 372.502 148.974 370.935 144.607C370.594 143.629 369.538 140.889 368.608 138.504C365.818 131.349 364.576 127.974 364.565 127.526C364.57 127.022 364.047 127.198 370.707 125.435C376.408 123.915 379.937 122.943 383.199 122.003C386.235 121.124 386.658 121.042 386.649 121.279ZM282.758 123.871C285.078 124.196 288.168 124.509 292.708 124.875C294.477 125.012 297.443 125.264 299.323 125.418C301.886 125.627 304.285 125.717 308.949 125.753C315.875 125.832 323.238 126.179 328.471 126.698C330.35 126.88 333.259 127.158 334.945 127.291C339.052 127.656 344.38 128.234 344.502 128.351C344.663 128.525 344.254 130.104 343.832 130.927C342.43 133.658 336.779 138.663 327.211 145.688C324.97 147.324 318.674 151.297 317.224 151.97C316.185 152.476 316.157 152.475 314.609 152.417C310.968 152.266 309.558 151.891 306.408 150.22C302.969 148.412 301.217 147.087 297.903 143.843C296.784 142.751 294.83 140.859 293.562 139.651C289.975 136.242 284.636 130.754 282.278 128.077C280.122 125.604 279.515 124.658 279.548 123.778C279.562 123.401 279.577 123.388 280.16 123.48C280.479 123.548 281.646 123.717 282.758 123.871ZM281.432 130.13C283.597 132.379 286.355 135.183 287.553 136.375C291.323 140.126 296.653 145.488 297.244 146.14C298.571 147.603 298.25 147.982 293.115 151.174C288.28 154.181 285.587 156.317 281.565 160.348C280.68 161.238 279.596 162.191 279.167 162.468C278.48 162.904 276.722 163.579 276.29 163.563C276.025 163.553 276.085 160.464 276.652 142.818C277.05 130.384 277.231 125.943 277.341 125.989C277.424 126.02 279.267 127.894 281.432 130.13ZM343.328 150.981C343.02 159.166 342.708 165.966 342.661 166.104C342.479 166.489 337.661 161.244 334.367 157.091C327.78 148.772 327.78 148.772 328.094 147.847C328.204 147.529 328.542 147.067 328.948 146.69C329.801 145.925 334.953 141.895 337.08 140.338C338.961 138.968 340.631 137.661 342.435 136.134L343.733 135.05L343.811 135.57C343.856 135.866 343.637 142.795 343.328 150.981ZM275.143 139.489C275.097 139.599 275.056 139.555 275.062 139.402C275.054 139.247 275.099 139.165 275.139 139.223C275.179 139.266 275.188 139.392 275.143 139.489ZM275.08 141.165C275.034 141.275 274.993 141.231 274.999 141.078C274.991 140.924 275.036 140.841 275.076 140.899C275.116 140.942 275.125 141.068 275.08 141.165ZM275.022 142.701C274.976 142.811 274.935 142.768 274.941 142.614C274.933 142.46 274.978 142.378 275.018 142.435C275.058 142.479 275.067 142.605 275.022 142.701ZM274.869 146.752C274.823 146.862 274.783 146.819 274.789 146.665C274.781 146.511 274.826 146.429 274.865 146.486C274.906 146.529 274.915 146.656 274.869 146.752ZM274.832 147.73C274.798 147.91 274.774 147.797 274.786 147.49C274.783 147.182 274.816 147.044 274.853 147.171C274.876 147.312 274.867 147.563 274.832 147.73ZM326.235 150.826C327.359 151.778 329.689 154.453 333.547 159.215C334.895 160.874 336.981 163.345 338.16 164.704C341.294 168.277 341.519 168.593 341.026 168.714C340.829 168.763 320.042 168.022 306.889 167.485C305.201 167.421 298.895 167.198 292.868 166.985C286.842 166.772 281.361 166.523 280.679 166.442L279.443 166.269L280.085 165.524C280.86 164.602 284.545 160.614 285.795 159.319C287.641 157.416 291.311 154.547 294.1 152.833C295.558 151.937 297.172 151.019 297.683 150.8C298.563 150.428 298.731 150.406 300.35 150.453C302.276 150.498 302.345 150.528 305.293 151.996C307.391 153.04 308.839 153.528 311.167 154.036C312.318 154.275 313.66 154.619 314.157 154.778C315.908 155.375 316.628 155.178 319.365 153.351C322.331 151.379 324.904 149.825 325.11 149.917C325.151 149.932 325.667 150.343 326.235 150.826ZM274.774 152.987C274.702 155.656 274.552 158.518 274.45 159.367C274.324 160.495 274.344 159.223 274.508 154.501C274.626 150.995 274.762 148.119 274.832 148.121C274.887 148.123 274.861 150.304 274.774 152.987ZM292.926 168.05C292.883 168.09 292.757 168.099 292.66 168.054C292.55 168.008 292.594 167.967 292.747 167.973C292.901 167.965 292.983 168.01 292.926 168.05Z" fill="#181818"></path><path d="M352.531 108.571C349.566 110.53 349.35 111.081 350.5 113.544C351.224 115.082 352.604 117.4 353.049 117.837C353.291 118.07 353.375 118.073 353.884 117.91C355.227 117.485 357.011 116.489 358.165 115.512C358.483 115.23 359.251 114.503 359.861 113.883C360.892 112.845 360.966 112.722 360.988 112.149C361.006 111.674 360.943 111.49 360.712 111.313C360.291 110.99 359.788 110.999 358.224 111.346C357.491 111.514 356.76 111.64 356.593 111.634C356.398 111.626 355.79 111.058 354.826 109.959C354.008 109.047 353.268 108.291 353.157 108.287C353.045 108.283 352.775 108.413 352.531 108.571Z" fill="#181818"></path><path d="M304.316 132.926C304.17 133.088 303.915 133.54 303.774 133.94C303.509 134.672 303.509 134.686 303.844 135.426C304.231 136.28 306.925 140.423 308.149 142.036C308.854 142.972 311.012 145.026 311.291 145.036C311.57 145.047 314.276 142.183 315.235 140.834C316.752 138.751 317.194 137.775 317.124 136.667C317.016 135.083 315.967 133.281 315.011 133.063C314.318 132.911 313.484 133.173 312.904 133.739C312.629 134.008 311.927 134.835 311.368 135.569L310.354 136.902L309.749 135.55C309.413 134.81 309.007 134.096 308.844 133.977C308.599 133.814 306.694 133.197 304.855 132.708C304.716 132.675 304.475 132.764 304.316 132.926Z" fill="#181818"></path><path d="M386.263 96.0631C386.132 96.1841 386.247 98.7062 386.395 98.8656C386.488 98.967 386.985 99.1256 387.512 99.2294C388.788 99.4873 388.846 99.4335 388.904 97.883L388.95 96.6539L388.51 96.4834C387.986 96.2958 386.349 95.9824 386.263 96.0631ZM387.509 97.8305C387.507 97.9004 387.476 97.9691 387.448 97.9681C387.406 97.9665 387.339 97.894 387.3 97.8226C387.261 97.7372 387.291 97.6824 387.361 97.6851C387.445 97.6882 387.512 97.7467 387.509 97.8305Z" fill="#181818"></path><path d="M293.402 95.1132C293.033 95.6448 292.238 97.8389 292.219 98.3278C292.187 99.1798 292.704 100.304 293.29 100.69C293.902 101.119 294.126 101.113 294.507 100.652C294.813 100.314 294.832 100.175 294.813 98.8311C294.793 97.4875 294.758 97.3044 294.269 96.1949C293.753 95.0564 293.58 94.8401 293.402 95.1132Z" fill="#181818"></path><path d="M400.988 126.873C400.818 126.937 400.617 127.097 400.542 127.234C400.288 127.672 399.355 131.666 399.294 132.545C399.237 133.326 399.274 133.439 399.612 133.745C399.989 134.109 401.021 134.54 401.166 134.391C401.21 134.351 401.396 133.491 401.574 132.463C401.766 131.449 402.049 130.242 402.233 129.802C403.022 127.775 402.419 126.354 400.988 126.873Z" fill="#181818"></path><path d="M391.335 136.861C390.099 137.024 389.88 137.282 390.255 138.079C390.54 138.691 391.561 139.023 393.029 138.981C394.33 138.932 395.051 138.721 395.403 138.259C396.051 137.388 395.493 136.976 393.472 136.857C392.65 136.799 391.686 136.804 391.335 136.861Z" fill="#181818"></path><path d="M405.133 137.339C404.768 137.381 404.738 137.436 404.717 137.995C404.704 138.358 404.775 138.696 404.895 138.827C405.204 139.16 406.19 139.309 408.66 139.402C410.682 139.478 410.948 139.46 411.222 139.233C411.597 138.925 411.779 138.177 411.584 137.778C411.442 137.493 411.344 137.475 408.47 137.381C406.838 137.333 405.343 137.319 405.133 137.339Z" fill="#181818"></path><path d="M399.938 144.346C399.892 144.442 399.673 145.455 399.434 146.607C399.009 148.619 399.005 148.717 399.177 149.703C399.282 150.252 399.444 150.776 399.552 150.878C399.661 150.966 400.133 151.039 400.762 151.035L401.781 151.032L401.849 147.747C401.889 145.944 401.905 144.42 401.865 144.349C401.761 144.163 400.014 144.167 399.938 144.346Z" fill="#181818"></path><path d="M362.115 163.833C361.52 164.035 360.378 165.432 360.357 165.991C360.331 166.675 360.613 166.98 361.554 167.225C361.969 167.339 362.082 167.301 362.502 166.911C362.806 166.629 363.074 166.163 363.294 165.528L363.638 164.562L363.22 164.155C362.829 163.776 362.553 163.696 362.115 163.833Z" fill="#181818"></path><path d="M106.74 302.835C98.2662 313.944 94.9549 328.377 98.4121 338.97C100.943 346.608 102.543 348.2 107.712 348.742C110.192 348.965 112.385 349.817 112.722 350.629C113.627 352.967 103.58 351.358 101.433 348.857C99.2825 346.253 96.9553 347.467 98.0911 350.518C98.8897 352.756 98.7868 352.76 96.665 350.979C95.4941 349.887 93.933 349.426 93.4328 349.855C92.8262 350.185 91.4745 349.82 90.5164 348.926C89.0262 347.535 88.6111 347.447 87.7243 348.611C87.1355 349.455 85.9223 350.115 85.0992 350.144C84.0704 350.179 83.6874 351.017 83.9537 352.759C84.3337 354.806 84.1386 355.121 83.0705 354.025C82.329 353.433 80.7643 352.869 79.5297 352.912C76.8583 353.107 73.5523 355.797 74.5245 357.102C74.961 357.808 74.2551 358.245 72.8147 358.295C69.6253 358.405 67.9404 360.318 68.1538 363.504L68.3494 366.175L68.9805 363.578C69.335 361.918 70.431 360.85 72.0701 360.587C73.4004 360.335 76.0291 358.904 77.8311 357.4C80.6334 355.037 81.35 354.909 82.8296 355.991C84.2063 357.076 84.6143 356.959 85.3874 355.49C85.8698 354.546 86.9837 353.993 87.8175 354.273C88.9634 354.645 89.3571 354.116 89.403 352.467L89.3175 349.998L91.042 352.204C93.093 354.914 94.5441 355.173 94.455 352.601C94.4051 351.16 94.7138 351.15 96.3247 353.051C98.4786 355.758 101.423 354.523 100.188 351.578C99.5065 349.748 99.6094 349.744 101.114 351.546C102.193 352.951 104.169 353.5 107.468 353.592C110.661 353.584 112.637 354.134 113.294 355.244C113.84 356.153 115.1 356.83 116.232 356.791C117.26 356.755 118.414 357.333 118.744 357.94C119.084 358.855 119.897 358.518 121.181 356.928C122.859 354.81 123.373 354.792 125.062 355.97C126.222 356.754 128.198 357.303 129.639 357.253C131.693 357.079 131.792 356.973 130.132 356.618C126.605 355.916 124.146 353.323 125.43 351.734C126.317 350.57 126.097 350.166 124.844 349.694C123.908 349.417 123.368 348.715 123.663 348.293C123.954 347.768 123.62 347.058 122.992 346.771C122.36 346.381 121.491 345.072 120.934 343.855L119.933 341.726L120.012 343.99C119.973 345.845 119.164 346.285 113.835 347.088C105.637 348.299 103.114 346.841 100.58 339.101C97.2433 329.019 99.6928 316.47 107.06 306.12C112.263 298.729 113.501 298.789 116.756 306.505C118.218 310.06 121.277 315.104 123.427 317.708C125.581 320.414 128.214 325.061 129.141 328.017C131.093 333.82 130.749 335.789 127.192 340.136C125.808 341.832 125.918 342.034 127.359 341.984C129.828 341.899 133.048 336.74 132.916 332.933C132.76 328.406 128.437 319.594 124.161 315.107C122.341 313.11 119.942 309.279 118.92 306.533C115.392 296.87 112.061 295.852 106.74 302.835ZM120.076 348.829C120.087 349.138 119.693 349.666 119.087 349.996C118.583 350.323 118.061 350.135 118.043 349.62C118.022 349.003 118.519 348.471 119.033 348.453C119.65 348.432 120.069 348.623 120.076 348.829ZM121.265 353.423C121.283 353.938 120.584 354.58 119.776 355.02C118.25 355.588 117.7 354.577 118.892 353.299C119.782 352.238 121.226 352.291 121.265 353.423Z" fill="#181818"></path><path d="M149.133 316.405C149.853 319.367 148.856 320.329 143.567 322.263C140.31 323.406 142.95 325.272 146.736 324.523C150.109 323.788 150.216 323.887 149.698 326.789C149.011 330.727 151.001 331.688 153.885 328.704C156.474 326.142 156.794 326.44 158.011 331.858L158.867 335.742L155.45 335.243C153.584 334.895 150.98 334.058 149.721 333.381C146.779 331.732 146.265 331.75 146.322 333.396C146.347 334.116 144.229 335.425 141.579 336.238C135.154 338.109 127.109 343.744 127.195 346.213C127.241 347.551 128.401 348.334 131.31 349.058C133.595 349.597 137.37 351.526 139.804 353.399C144.037 356.651 145.712 357.417 150.877 357.857C152.74 358.101 152.857 358.509 152.244 361.621L151.436 365.048L148.782 362.771C145.382 359.798 144.301 361.278 147.313 364.985L149.684 367.993L145.362 368.142L141.041 368.292L142.918 365.961L144.798 363.733L141.527 364.464L138.153 365.199L137.978 360.158C137.779 354.396 135.958 352.399 135.196 357.164C134.76 359.445 134.267 360.08 133.522 359.385C130.648 356.703 130.223 359.293 132.579 364.877C133.034 366.097 132.636 366.523 131.093 366.576C128.521 366.666 128.45 367.595 130.498 370.202C131.793 371.909 131.807 372.32 130.3 373.402C127.593 375.556 130.094 376.397 138.016 376.122C142.231 375.873 145.332 376.178 145.14 376.597C144.849 377.122 145.385 377.721 146.219 378.001C147.156 378.278 147.908 379.179 147.936 380.002C148.011 382.163 150.569 381.662 153.864 378.664C155.564 377.163 157.479 375.963 158.199 375.938C159.022 375.91 158.231 376.864 156.518 377.954C152.995 380.342 149.335 387.679 148.723 393.778C148.336 397.499 145.613 402.126 145.509 399.142C145.488 398.525 145.984 397.993 146.499 397.975C148.248 397.914 147.534 395.158 145.657 394.502C144.196 393.935 144.284 393.519 146.565 390.968C149.736 387.356 149.963 384.979 147.111 385.902C145.376 386.374 145.159 386.073 145.606 384.1C146.4 380.261 144.027 380.137 141.892 383.92C140.824 385.811 139.934 386.872 139.909 386.152C139.809 383.271 137.513 379.436 136.52 380.5C135.924 381.139 134.253 380.476 131.805 378.192C127.98 374.822 125.695 374.283 123.08 376.125C121.974 376.884 122.293 377.182 124.762 377.097C126.408 377.04 128.693 377.578 129.64 378.164C132.6 380.327 136.822 386.258 136.897 388.419C136.869 390.583 136.866 390.48 134.935 388.281C132.902 386.085 130.61 385.341 130.667 386.987C130.681 387.398 131.228 388.306 131.867 388.902C132.718 389.697 132.222 390.229 129.873 390.825C128.135 391.195 126.517 392.075 126.226 392.6C125.833 393.129 125.127 393.565 124.509 393.586C123.892 393.608 124.069 392.778 124.96 391.717C126.843 389.591 129.776 382.073 129.134 381.374C128.818 381.179 127.445 383.184 125.991 385.81C121.249 394.626 113.675 396.022 100.703 390.291C95.9953 388.188 92.4081 385.737 89.3033 382.342C86.8408 379.646 83.4451 376.777 81.7705 376.011L78.6269 374.471L83.4371 370.597C86.1436 368.443 89.9463 365.221 92.0498 363.5C97.7503 358.564 104.839 358.009 113.726 361.822C119.268 364.205 121.276 365.68 123.988 369.604C126.809 373.729 127.231 374.024 126.524 371.473C125.215 366.368 121.801 362.984 114.79 359.828C109.979 357.728 106.758 356.913 102.951 357.045C96.8844 357.358 93.2412 359.235 85.1428 366.314C81.8439 369.21 77.8177 371.924 76.1858 372.393C71.7017 373.784 72.0566 375.111 77.2757 377.093C80.405 378.221 83.8928 380.778 87.3169 384.471C91.4898 388.962 94.126 390.725 100.601 393.282C105.401 395.072 110.493 396.338 113.171 396.348C117.492 396.199 117.496 396.302 115.286 397.923C114.083 398.892 112.249 399.471 111.114 399.407C107.595 398.911 103.359 401.53 103.455 404.307C103.534 406.571 103.228 406.685 99.9148 406.181C96.3954 405.685 96.2961 405.792 96.3994 408.775C96.4743 410.936 95.8926 411.986 94.4665 412.447C93.3455 412.795 92.4516 413.753 92.4837 414.679C92.5157 415.605 92.1292 416.34 91.5119 416.361C90.9974 416.379 90.508 417.117 90.5365 417.94C90.565 418.763 89.8698 419.508 88.9438 419.54C87.8121 419.579 87.5212 420.105 87.972 421.222C88.3127 422.137 88.6677 423.464 88.6962 424.287C88.7283 425.213 89.2534 425.504 89.86 425.174C90.4631 424.741 90.6367 423.808 90.2996 422.995C89.9589 422.08 90.6434 421.026 92.0624 420.359C93.3785 419.696 95.1591 417.574 96.0174 415.587C96.8756 413.6 98.6562 411.478 99.9759 410.917C103.225 409.569 106.79 405.428 106.013 403.807C105.676 402.994 106.566 401.934 108.092 401.366C112.661 399.456 112.785 400.07 109.16 405.449C104.258 412.623 101.936 419.914 102.185 427.116C102.559 437.919 104.376 439.813 109.044 434.81C111.428 432.255 112.042 432.131 122.234 431.984C134.591 431.865 138.344 430.19 141.916 423.268C144.239 418.964 144.798 408.335 142.74 408.406C142.225 408.424 141.772 410.191 141.843 412.248C142.025 417.495 138.858 424.198 134.927 426.703C132.203 428.342 129.95 428.729 121.304 428.926C112.14 429.037 110.501 429.3 108.199 431.234L105.698 433.381L104.839 429.393C102.844 419.368 112.012 401.539 121.441 397.195C125.496 395.303 131.048 395.008 133.163 396.583C136.235 399.052 138.549 403.401 137.911 405.792L137.372 408.077L139.664 405.834C141.859 403.801 145.886 401.087 146.812 401.054C147.12 401.044 147.586 408.547 148.109 417.697C148.533 426.953 149.45 438.561 150.143 443.687C151.141 451.687 151.208 450.655 150.475 435.435C150.037 425.767 149.223 417.143 148.776 416.128C147.999 414.507 148.201 414.397 150.482 414.833C152.352 415.284 155.005 414.574 158.851 412.586C166.648 408.711 171.944 403.995 175.044 398.325L177.559 393.603L179.61 399.3C180.647 402.458 182.85 406.604 184.358 408.509C187.477 412.316 205.765 425.794 207.719 425.726C209.983 425.648 210.83 423.352 214.333 408.501C218.003 392.511 217.987 386.125 214.219 381.414C211.632 378.105 205.242 375.03 202.177 375.754C199.924 376.141 199.928 376.244 201.908 376.896C211.494 380.066 214.393 383.468 214.568 391.497C214.725 396.024 208.333 422.615 207.201 422.654C205.551 422.608 187.328 407.994 185.163 404.979C180.841 399.155 178.189 388.019 179.874 383.119C180.718 380.721 181.423 380.284 184.819 380.166C186.979 380.092 189.679 380.719 190.839 381.503C194.955 384.348 195.796 381.846 192.038 377.444C190.317 375.341 188.962 374.873 185.566 374.99C183.2 375.072 180.642 375.573 179.936 376.009C179.234 376.549 180.788 376.804 183.772 376.7C187.575 376.466 189.444 376.916 190.832 378.31C192.645 380.101 192.649 380.204 190.665 379.449C189.516 378.974 186.926 378.548 184.857 378.311C181.863 378.106 180.746 378.556 179.27 380.565C178.185 381.941 176.571 382.924 175.535 382.754C173.775 382.506 173.778 382.609 175.209 385.238C179.158 392.208 170.419 404.563 156.942 411.004C154.31 412.332 151.656 413.041 150.922 412.655C149.24 411.683 149.968 394.044 151.936 388.413C154.464 381.115 157.756 378.014 163.003 377.832C165.781 377.736 167.31 377.271 166.877 376.668C166.547 376.061 165.093 375.699 163.652 375.749C161.8 375.813 161.272 375.42 161.857 374.472C162.247 373.841 162.605 372.283 162.669 371.148C162.732 370.013 162.881 368.36 163.058 367.529C163.232 366.596 162.59 365.897 161.142 365.742C159.177 365.501 158.96 365.199 159.911 362.9C161.244 359.764 160.173 358.565 157.654 360.197C156.044 361.283 155.628 361.194 155.16 359.562C154.801 358.133 155.188 357.398 156.816 356.827C157.937 356.479 160.658 354.737 162.659 353.019C166.362 349.904 166.362 349.904 167.672 352.021C169.535 355.253 170.05 364.197 168.301 364.257C167.581 364.282 167.003 365.436 167.053 366.876C167.11 368.522 166.525 369.469 165.599 369.501C164.776 369.53 164.07 369.966 164.091 370.584C164.109 371.098 165.979 371.548 168.242 371.47L172.46 371.324L170.918 374.365C168.811 378.97 171.312 379.81 174.565 375.577C176.832 372.615 177.239 372.497 178.322 374.005C179.507 375.509 179.812 375.396 181.884 372.749C183.458 370.634 184.672 369.974 186.027 370.442C187.588 370.903 187.602 371.314 186.62 372.688C185.431 374.068 185.641 374.164 187.659 372.961C192.406 370.221 202.091 370.297 211.567 373.265C217.29 374.921 221.434 375.602 223.169 375.13C225.62 374.53 226.043 374.824 226.107 376.676C226.149 377.911 224.816 381.047 223.156 383.68C220.517 387.788 220.429 388.204 222.245 387.111C225.076 385.57 228.278 379.897 228.175 376.913C228.075 374.033 226.61 373.362 215.09 370.877C210.002 369.714 205.642 368.732 205.433 368.637C205.326 368.537 207.802 365.67 211.08 362.158C216.94 355.877 220 349.076 218.542 345.624C217.871 344.102 214.873 343.794 201.491 344.051C197.684 344.183 197.563 343.672 200.028 337.51C202.121 332.493 202.28 331.148 200.942 331.195C200.017 331.227 192.451 341.789 191.806 343.975C191.618 344.496 189.152 344.685 186.158 344.48C182.436 344.093 180.978 343.629 181.254 342.692C181.538 341.961 181.3 341.043 180.669 340.652C179.831 340.269 180.005 339.336 180.98 337.757C182.839 334.912 182.803 333.883 180.746 333.954C179.82 333.986 178.862 333.093 178.514 331.971C177.697 329.219 176.676 329.46 174.218 332.841C172.554 335.371 172.047 335.595 171.075 334.289C169.449 331.976 169.737 331.348 172.468 329.915C173.887 329.248 174.987 328.282 174.969 327.768C174.955 327.356 176.381 326.895 178.027 326.838C179.776 326.777 181.131 327.245 181.149 327.76C181.17 328.377 182.292 328.029 183.7 327.053C185.41 325.861 186.226 325.627 186.258 326.553C186.311 328.096 191.214 326.896 193.406 324.76C195.105 323.259 201.193 323.563 203.624 325.333C204.787 326.22 204.99 326.11 204.535 324.89C204.195 323.974 201.796 323.13 198.071 322.641C192.898 321.997 191.976 322.131 191.1 323.604C189.851 326.222 188.294 325.864 188.191 322.881C188.094 320.103 186.526 319.436 185.686 321.937C185.406 322.771 184.494 323.215 183.557 322.938C182.723 322.658 182.007 322.786 182.028 323.403C182.046 323.918 180.205 324.29 177.938 324.266C175.671 324.241 173.83 324.614 173.847 325.129C173.865 325.643 172.489 327.545 170.903 329.351C168.321 332.119 167.942 333.059 168.662 336.021C169.394 339.292 169.298 339.501 166.417 339.601C162.302 339.744 160.258 337.239 159.218 330.992C158.429 326.075 158.617 325.553 161.88 321.629C165.938 316.853 166.112 315.92 162.717 316.038C161.379 316.084 159.705 315.318 159.155 314.307C158.069 312.696 157.866 312.806 155.994 315.24L153.922 317.887L152.194 315.578C149.82 312.467 148.288 312.829 149.133 316.405ZM161.032 317.95C162.086 318.635 161.901 319.259 160.404 320.65C158.911 322.144 157.989 322.279 156.31 321.41C155.054 320.835 154.096 319.941 154.079 319.427C154.018 317.678 158.722 316.691 161.032 317.95ZM154.218 323.439C154.253 324.468 153.586 326.037 152.583 326.792C151.086 328.183 151.082 328.08 152.139 325.881C152.714 324.625 152.969 323.071 152.642 322.567C152.312 321.96 152.504 321.542 153.018 321.524C153.635 321.502 154.178 322.308 154.218 323.439ZM151.673 342.172C153.625 344.989 155.761 347.181 156.275 347.163C156.79 347.145 156.336 345.925 155.147 344.318C151.364 339.195 151.343 338.578 155.086 342.569C159.894 347.553 161.306 346.68 156.803 341.582C152.95 337.389 153.216 336.144 157.597 337.743C159.683 338.495 161.074 339.992 161.767 342.131C162.814 345.597 166.571 347.012 168.657 344.777C170.345 342.967 171.388 343.343 172.513 346.085C173.408 348.114 173.245 349.356 171.978 351.46C170.808 353.355 170.201 353.685 169.861 352.77C169.058 350.428 165.123 346.856 163.374 346.917C161.934 346.967 161.938 347.07 163.307 347.949C167.721 350.475 153.134 357.572 147.507 355.707C146.045 355.14 143.104 353.491 140.985 351.813C138.871 350.238 135.199 348.305 133.006 347.454L128.83 345.847L133.364 342.909C143.732 335.958 146.922 335.847 151.673 342.172ZM178.497 337.431C177.901 338.07 175.659 338.766 173.506 339.046C170.015 339.373 169.908 339.274 171.927 338.071C174.956 336.318 179.987 335.835 178.497 337.431ZM178.562 342.271C178.579 342.785 177.877 343.324 177.054 343.353C176.231 343.381 175.539 344.229 175.571 345.155C175.529 346.908 175.529 346.908 174.44 345.195C173.893 344.286 173.641 342.956 173.932 342.431C174.709 341.065 178.515 340.933 178.562 342.271ZM194.208 347.909C191.825 356.438 191.216 359.652 192.525 358.783C193.028 358.457 193.511 357.513 193.482 356.69C193.457 355.97 194.283 353.057 195.322 350.343L197.212 345.436L206.291 345.842C211.244 346.083 215.586 346.55 216.012 346.948C219.309 349.924 203.049 368.204 196.978 368.414C195.332 368.471 192.778 369.075 191.355 369.639C189.021 370.647 188.294 370.466 186.58 368.569C184.004 365.568 183.983 364.95 187.041 364.02C188.47 363.662 189.577 362.902 189.563 362.491C189.545 361.976 188.005 362.133 186.274 362.708C184.44 363.286 182.808 363.755 182.705 363.759C182.499 363.766 183.269 362.194 184.337 360.303C186.472 356.521 186.808 354.346 185.059 354.406C183.31 354.467 177.113 359.935 177.167 361.478C177.231 363.33 176.305 363.362 173.864 361.284C171.636 359.404 171.483 357.967 172.905 354.415C173.859 352.219 174.465 351.889 177.467 352.3C180.674 352.704 180.979 352.591 180.89 350.018C180.805 347.549 181.106 347.333 185.53 347.18C189.954 347.026 190.266 347.118 189.724 349.3C189.359 350.652 188.944 353.551 188.817 355.821L188.445 359.954L189.622 355.278C190.994 350.286 194.906 341.292 195.545 341.888C195.757 342.087 195.13 344.787 194.208 347.909ZM178.811 349.472C178.829 349.987 178.435 350.515 177.818 350.537C177.303 350.555 176.771 350.058 176.753 349.544C176.732 348.926 177.232 348.497 177.747 348.479C178.364 348.458 178.79 348.855 178.811 349.472ZM184.237 357.422C184.255 357.936 183.187 359.828 181.804 361.524L179.339 364.699L181.549 366.065L183.756 367.327L181.787 369.971C179.524 373.036 177.431 372.079 179.382 368.921C181.031 365.98 179.764 365.096 177.689 367.641C175.71 369.975 170.246 369.855 169.341 367.518C168.774 365.992 169.185 365.978 172.627 367.198C174.919 367.943 175.426 367.719 176.387 365.729C177.345 363.635 183.176 356.532 183.896 356.507C184.102 356.5 184.219 356.908 184.237 357.422ZM174.258 363.742C175.653 365.342 175.553 365.448 173.964 364.164C172.91 363.48 172.058 362.685 172.051 362.479C172.023 361.656 172.863 362.142 174.258 363.742ZM137.185 366.984C137.245 368.733 137.902 369.843 139.353 370.102C140.495 370.371 141.134 370.967 140.843 371.492C140.552 372.017 139.218 372.166 137.767 371.908C135.898 371.457 135.291 371.787 135.334 373.022C135.366 373.948 134.568 374.697 133.642 374.729C132.201 374.779 132.091 374.576 133.198 373.817C134.202 373.061 134.283 372.44 133.297 370.723C132.208 369.01 132.296 368.595 133.634 368.549C134.457 368.52 135.145 367.569 135.106 366.437C135.066 365.306 135.549 364.362 136.063 364.344C136.68 364.323 137.135 365.543 137.185 366.984ZM154.902 366.988C153.714 368.368 152.699 368.815 152.678 368.198C152.624 366.655 155.703 363.355 156.452 364.153C156.771 364.451 156.094 365.71 154.902 366.988ZM159.922 369.183C159.231 370.031 158.972 371.482 159.412 372.291C159.859 373.306 159.363 373.838 158.025 373.884C155.144 373.984 155.215 370.067 158.156 368.729C161.199 367.388 161.302 367.384 159.922 369.183ZM150.677 369.915C150.713 370.944 148.283 372.161 145.814 372.247C144.476 372.293 144.568 371.981 146.172 370.689C148.275 368.968 150.631 368.578 150.677 369.915ZM152.881 374.062C154.247 374.839 154.258 375.148 152.768 376.744C151.179 378.448 151.076 378.451 151.615 376.166C152.058 374.091 151.951 373.992 149.929 375.092C148.72 375.855 147.797 375.99 147.776 375.372C147.747 374.549 149.255 373.467 150.791 373.208C151.1 373.197 152.04 373.576 152.881 374.062ZM141.801 393.193C141.028 394.662 141.053 395.383 142.206 395.961C143.153 396.546 143.274 397.057 142.465 397.497C141.763 398.036 140.695 396.94 139.69 394.709C137.355 389.742 137.536 389.015 140.463 390.253C142.553 391.107 142.776 391.615 141.801 393.193ZM137.015 391.814C137.033 392.329 136.653 393.269 136.164 394.007C135.483 395.163 135.277 395.171 134.72 393.954C134.383 393.141 134.347 392.113 134.645 391.793C135.542 390.938 136.986 390.991 137.015 391.814Z" fill="#181818"></path><path d="M174.647 315.522C173.97 316.782 172.856 317.335 171.611 317.069C170.156 316.708 169.152 317.464 168.103 319.869C167.237 321.65 166.155 323.13 165.641 323.148C165.126 323.166 164.446 324.322 164.187 325.773C163.825 327.228 163.247 328.381 162.733 328.399C162.218 328.417 161.867 330.18 161.939 332.238C162.067 335.941 162.173 336.041 163.117 333.536C163.684 332.074 164.461 330.708 164.759 330.389C165.16 330.066 165.638 329.019 166.018 328.079C166.39 326.933 167.302 326.489 168.654 326.855C169.899 327.12 170.818 326.883 170.793 326.162C170.771 325.545 170.342 325.045 169.725 325.066C167.976 325.127 168.504 322.533 170.6 320.607C171.7 319.642 172.906 318.776 173.318 318.761C173.626 318.751 174.836 317.988 175.829 316.923C177.525 315.32 177.627 315.316 177.681 316.859C177.752 318.917 178.476 318.995 181.803 316.922C183.215 316.049 185.869 315.339 187.82 315.169C193.376 314.976 191.19 314.331 183.038 313.892C176.332 313.61 175.513 313.741 174.647 315.522Z" fill="#181818"></path><path d="M106.797 322.3C106.883 324.77 107.522 328.353 108.108 330.393C109.268 334.164 116.039 342.273 117.135 341.205C117.731 340.566 114.007 328.231 111.317 321.938C108.861 316.461 106.601 316.642 106.797 322.3ZM111.137 328.64C112.536 333.329 112.692 334.869 111.741 334.181C110.577 333.294 107.919 324.94 107.812 321.853C107.719 319.178 109.38 322.52 111.137 328.64Z" fill="#181818"></path><path d="M83.4843 342.165C81.6644 343.155 79.4117 343.542 77.5455 343.195C75.2643 342.759 74.5512 342.99 74.5904 344.121C74.6189 344.944 73.9415 346.204 73.1434 346.953C70.9441 348.883 71.4055 350.309 73.7291 348.993C74.8394 348.336 75.7262 347.172 75.6976 346.349C75.6335 344.497 76.1479 344.479 78.9757 345.824C80.6539 346.692 81.6756 346.451 83.882 344.727C86.0849 342.899 87.3124 342.651 90.6296 343.257C94.777 344.04 96.2067 343.682 94.5071 342.195C92.5946 340.51 86.3116 340.522 83.4843 342.165Z" fill="#181818"></path><path d="M96.1347 371.394C93.9639 374.148 97.1181 375.995 107.276 377.807C112.353 378.661 117.639 379.611 119.09 379.87C120.544 380.231 117.49 378.277 112.246 375.574C100.92 369.786 97.9082 369.067 96.1347 371.394ZM101.882 373.77C105.249 375.817 104.341 376.363 99.9632 374.867C98.505 374.402 97.2383 373.519 97.217 372.902C97.1635 371.358 98.3059 371.628 101.882 373.77Z" fill="#181818"></path><path d="M162.428 387.947C160.442 390.075 158.186 393.347 157.324 395.231C154.739 400.883 155.875 403.934 159.131 399.804C161.898 396.411 167.579 384.987 166.738 384.501C166.316 384.207 164.312 385.821 162.428 387.947Z" fill="#181818"></path><path d="M197.06 388.601C199.3 393.777 200.411 399.095 199.649 400.872C198.982 402.44 198.641 401.525 197.668 397.232C195.797 387.821 194.417 386.632 195.33 395.15C196.389 404.899 197.202 407.549 198.951 407.489C202.449 407.367 203.228 397.143 200.247 391.375C198.263 387.632 195.605 385.252 197.06 388.601Z" fill="#181818"></path><path d="M91.4752 397.409C90.5777 398.264 89.9003 399.523 89.9181 400.038C89.936 400.552 89.0243 400.996 87.8925 401.035C86.6579 401.078 85.8099 400.386 85.7778 399.46C85.7458 398.534 85.1106 398.041 84.504 398.371C83.791 398.602 83.3193 399.854 83.4614 400.983C83.7278 402.724 83.1247 403.157 80.5633 403.555C78.8214 403.821 77.1009 404.705 76.9237 405.535C76.4556 406.891 76.6613 406.884 78.0589 405.599C79.0593 404.74 79.7759 404.612 79.7973 405.23C79.8436 406.567 87.322 405.381 87.7866 403.923C87.9781 403.504 88.7869 403.064 89.61 403.036C90.433 403.007 91.5291 401.939 91.9972 400.584C92.6568 398.81 92.859 398.7 92.9053 400.037C93.051 401.268 93.8954 401.857 95.6445 401.797C97.0848 401.747 98.1987 401.193 98.1809 400.679C98.1595 400.061 99.6885 399.596 101.54 399.532C104.726 399.319 104.726 399.319 102.718 397.843C101.558 397.059 99.5887 396.716 98.3648 397.067C97.1409 397.418 95.7963 397.259 95.4663 396.652C94.4904 395.244 93.2629 395.493 91.4752 397.409Z" fill="#181818"></path><path d="M124.919 408.406C117.959 415.652 114.153 421.758 115.552 423.461C117.155 425.156 117.453 424.837 126.754 413.802C130.606 409.033 133.06 405.549 131.943 406C130.524 406.667 130.208 406.472 130.68 405.219C131.612 402.406 129.491 403.613 124.919 408.406ZM122.39 415.704C122.398 415.91 121.603 416.762 120.702 417.514C119.102 418.908 118.996 418.809 120.276 417.117C121.557 415.424 122.362 414.881 122.39 415.704Z" fill="#181818"></path><path d="M172.888 404.477C172.498 405.109 172.608 405.311 173.314 404.875C174.825 403.895 175.929 406.02 175.965 410.036C175.944 412.406 176.391 413.421 177.42 413.385C178.243 413.356 178.882 413.952 178.8 414.573C178.619 415.301 179.357 415.79 180.379 415.549C181.298 415.311 182.135 415.694 182.157 416.311C182.174 416.826 181.472 417.365 180.649 417.393C178.591 417.465 178.787 420.136 180.873 420.888C181.707 421.168 182.147 421.977 181.856 422.502C180.789 424.393 182.481 428.661 184.23 428.6C185.465 428.557 185.795 429.164 185.348 431.137C184.987 432.591 185.232 433.716 185.849 433.694C187.084 433.652 188.158 428.979 187.182 427.571C186.852 426.964 185.805 426.485 184.879 426.518C183.542 426.564 183.3 425.542 183.64 420.483C183.866 415.119 183.625 414.097 181.606 412.313C180.329 411.121 178.867 410.554 178.367 410.983C177.973 411.512 177.852 411.001 178.125 409.961C179.434 406.105 174.729 401.117 172.888 404.477Z" fill="#181818"></path><path d="M168.533 409.572C168.551 410.087 167.849 410.626 167.026 410.655C164.556 410.74 165.341 412.567 167.927 412.89C169.683 413.035 170.12 413.741 169.975 415.497C169.727 417.257 170.269 418.062 171.93 418.416C173.487 418.774 173.92 419.377 173.449 420.63C172.122 423.972 172.013 426.757 173.166 427.335C173.797 427.725 174.355 428.942 174.397 430.177C174.458 431.926 174.667 432.021 175.969 430.946C177.168 429.875 177.477 429.864 177.527 431.304C177.559 432.23 178.098 432.933 178.715 432.911C180.67 432.844 178.967 428.267 176.565 427.32C174.578 426.462 174.244 425.753 174.293 421.219C174.367 417.405 174.118 416.177 173.097 416.419C172.277 416.55 171.961 416.355 172.252 415.83C172.933 414.673 170.452 408.476 169.321 408.515C168.909 408.529 168.512 408.955 168.533 409.572Z" fill="#181818"></path><path d="M161.53 415.585C158.906 423.092 157.836 430.855 157.788 441.363C157.694 453.522 158.059 452.17 160.124 431.497C160.574 426.64 161.602 420.63 162.343 418.235C163.814 413.137 163.119 410.895 161.53 415.585Z" fill="#181818"></path><path d="M152.108 420.133C151.484 425.923 153.219 449.246 154.476 452.808C155.164 454.844 155.188 449.59 154.317 436.332C153.634 425.54 152.916 416.706 152.806 416.504C152.593 416.305 152.341 417.962 152.108 420.133Z" fill="#181818"></path><path d="M166.339 420.566C163.126 428.918 161.255 440.314 161.25 452.057C161.201 459.578 161.517 462.76 161.964 460.788C162.418 459.021 162.708 455.509 162.722 452.933C162.615 446.859 164.918 430.092 166.01 428.921C166.408 428.496 167.356 435.055 168.063 443.58C169.197 458.477 171.928 474.864 173.521 476.251C173.944 476.545 173.833 473.356 173.276 469.152C169.226 435.506 167.986 426.484 167.521 424.955C167.18 424.04 167.315 421.975 167.879 420.41C169.372 415.929 168.038 416.078 166.339 420.566Z" fill="#181818"></path><path d="M143.795 426.911C144.384 429.053 145.542 438.696 148.026 462.817C148.321 465.382 148.38 461.156 148.219 453.539C147.93 439.231 146.172 427.137 144.153 425.353C143.305 424.662 143.216 425.077 143.795 426.911Z" fill="#181818"></path><path d="M140.236 434.245C139.031 441.086 136.652 470.525 136.826 475.566C137.047 481.945 137.047 481.945 157.851 478.855C176.604 476.043 168.004 474.589 147.8 477.143C141.953 477.861 139.583 477.84 139.243 476.925C139.012 476.212 139.408 466.824 140.272 456.082C141.784 437.282 141.679 425.337 140.236 434.245Z" fill="#181818"></path></svg>