<?xml version="1.0" encoding="UTF-8"?> <svg xmlns="http://www.w3.org/2000/svg" width="70" height="134" viewBox="0 0 70 134" fill="none"><path d="M68.2211 0.605658C65.8528 1.48602 63.5874 3.76459 62.5063 6.2503C61.2191 9.25387 61.0647 16.4003 62.1459 23.0807C63.1241 28.9842 63.1756 35.9753 62.1973 39.5485C60.5498 45.8664 56.8429 51.0449 52.3122 53.4789C48.9657 55.2396 42.6845 59.1235 42.3756 59.6414C42.2211 59.8485 41.2429 60.7289 40.1617 61.6092C37.1756 63.9396 31.8726 70.6199 29.8647 74.5039C25.7973 82.3753 24.3043 88.6414 23.635 101.018C23.2746 107.595 22.9142 109.252 21.3181 112.463C20.134 114.845 16.8389 118.004 15.5003 118.107C15.2944 118.107 14.9855 117.331 14.831 116.399C14.3162 113.757 12.5657 111.841 10.6092 111.79C5.56368 111.634 3.09239 115.466 1.90823 125.357C1.75377 126.911 1.13595 129.034 0.672586 130.07C0.157734 131.054 -0.0996914 132.141 0.106249 132.504C0.31219 132.866 3.86467 133.177 10.5062 133.436C19.5676 133.747 20.7518 133.695 22.5023 132.866C26.3122 131.054 26.93 126.238 23.7894 123.597C21.9874 122.095 19.5162 121.836 17.9201 123.079C16.9934 123.804 17.0963 123.804 19.2072 123.649C22.0389 123.39 23.0686 123.856 24.1498 125.927C25.1795 127.999 24.7676 129.656 22.7597 131.106C21.1637 132.193 20.9063 132.245 11.8449 131.882C6.69635 131.727 2.42308 131.468 2.32011 131.313C2.21714 131.209 2.3716 129.966 2.68051 128.62C2.98942 127.274 3.34981 125.202 3.50427 124.063C3.96764 120.645 4.7914 117.382 5.4607 116.554C6.74783 114.897 9.11615 113.447 10.4548 113.447C12.7201 113.447 13.8013 115.156 13.8013 118.677C13.8013 121.681 14.4706 123.182 15.5518 122.509C15.8607 122.354 16.0152 121.991 15.8607 121.732C15.7063 121.525 16.736 120.438 18.1775 119.402C22.8112 115.984 24.7162 111.375 25.128 102.624C25.7973 89.2628 26.5696 85.586 30.5855 77.4556C35.2191 67.9271 40.934 62.1789 51.334 56.4824C56.5855 53.6342 58.7993 51.5628 60.8072 47.8342C64.1538 41.4128 64.7201 35.7682 63.227 23.8574C62.1459 15.4682 62.4033 10.3932 64.0508 7.07887C65.2865 4.54137 67.3459 2.10744 68.8904 1.1753C70.229 0.450301 69.7142 0.0360157 68.2211 0.605658Z" fill="#7F1023"></path></svg> 