<?xml version="1.0" encoding="UTF-8"?> <svg xmlns="http://www.w3.org/2000/svg" width="100" height="154" viewBox="0 0 100 154" fill="none"><path d="M1.20801 0.73451C5.27609 3.05106 6.12361 3.89858 7.70565 7.17565C8.89217 9.7182 9.40068 11.6957 9.57019 14.5773C9.73969 18.1369 8.60966 28.8156 7.98815 29.8891C7.81865 30.1151 7.42314 32.0927 7.02763 34.2397C6.34962 38.4208 6.34962 38.3643 5.3891 44.6359C3.46806 57.0662 4.76758 70.2875 8.77917 78.5932C13.1863 87.6898 17.8759 91.8144 31.3231 98.4816C38.3858 101.985 42.6234 104.979 46.0135 108.878C48.217 111.477 49.1775 113.172 54.4321 124.359C56.0142 127.636 58.3307 131.478 59.6302 132.947C62.3423 135.942 69.1224 140.349 71.9475 140.97C72.908 141.196 73.7555 141.422 73.7555 141.479C73.7555 141.535 73.247 142.552 72.6255 143.796C69.857 149.22 74.264 154.022 81.4397 153.401C85.9033 153.005 99.6896 149.615 99.9721 148.824C100.311 147.864 88.5023 129.331 85.9598 126.845C83.3607 124.303 80.5357 124.02 78.3321 126.054C76.7501 127.523 76.8631 129.783 78.6146 133.117C80.3097 136.337 84.4343 141.818 85.1123 141.818C86.0728 141.818 85.5643 140.857 82.5132 136.789C78.3321 131.252 78.2756 127.693 82.3437 127.693C84.3213 127.693 85.3948 128.823 89.2369 134.755C90.8189 137.241 93.3614 140.914 94.8305 142.892C96.2995 144.869 97.486 146.677 97.486 146.903C97.486 148.146 95.452 149.107 91.1579 149.898C88.5588 150.406 85.8468 150.971 85.0558 151.141C80.5922 152.214 80.0272 152.158 77.2021 150.35C74.8856 148.824 73.247 146.621 73.9815 145.943C74.0945 145.83 76.1851 144.756 78.6146 143.57L83.0782 141.366L81.3832 140.688C80.4792 140.349 78.7841 140.123 77.6541 140.179C75.1681 140.405 71.7215 138.936 67.8229 136.224C62.2858 132.269 58.2177 127.184 56.0707 121.478C52.2286 111.364 47.4825 104.697 42.0019 101.815C38.3858 99.8941 34.2612 97.7471 31.3796 96.3345C29.9671 95.6 27.9331 94.5265 26.8595 93.8485C25.786 93.227 24.4865 92.4924 24.0345 92.2664C20.7009 90.6844 14.2033 83.7348 11.9997 79.3277C10.0787 75.4856 8.10115 69.553 7.42314 65.4284C6.97113 62.9988 6.97113 50.5121 7.36664 47.1785C7.76215 43.6189 8.32716 40.1723 9.34418 34.1832C12.1692 17.6849 11.9997 11.8087 8.49666 5.87612C6.85813 3.05106 3.01605 -5.02735e-06 1.20801 -5.02735e-06H0.0214844L1.20801 0.73451Z" fill="#7F1023"></path></svg> 