<?xml version="1.0" encoding="UTF-8"?> <svg xmlns="http://www.w3.org/2000/svg" width="117" height="114" viewBox="0 0 117 114" fill="none"><path d="M65.3989 0.88765C65.0089 0.923149 62.4563 1.24267 59.7264 1.56219C53.5576 2.27222 53.6285 2.27222 49.9768 2.94676C44.7298 3.94082 39.5891 5.32539 37.2846 6.39046C36.0438 6.95849 34.9093 7.42001 34.7675 7.42001C34.6257 7.42001 34.2357 7.70403 33.9166 8.05905C33.1366 8.91109 33.1366 10.6507 33.952 11.7158C34.5193 12.4613 34.5547 13.2778 34.5193 18.3546C34.4484 21.5498 34.342 24.248 34.2711 24.3545C34.1648 24.4255 33.7039 24.5675 33.243 24.603C32.1085 24.745 19.0263 28.9697 16.6509 29.9993C15.5874 30.4608 14.3465 30.9223 13.9211 31.0288C12.3257 31.4549 11.0139 35.3601 12.0775 36.4251C12.5738 36.9222 12.5384 42.1409 12.0775 42.7445C11.9002 42.922 11.9357 47.0402 12.113 51.904C12.3257 56.7323 12.3611 60.9215 12.2548 61.2055C12.1484 61.525 11.6166 61.738 10.9075 61.738C9.34761 61.738 5.02234 62.6611 3.49786 63.3001C0.697064 64.5427 0.732517 64.4362 0.484346 71.1461C0.236174 78.9565 1.08705 87.335 2.43426 90.0686C2.75334 90.7432 3.74603 91.9857 4.66781 92.8378C6.51137 94.5774 7.85858 94.8259 10.0567 93.9028C11.9711 93.1218 17.0409 87.7965 18.1754 85.4179C19.3099 83.0747 19.3099 82.3647 18.1754 81.9387C17.1827 81.5837 17.0764 81.6902 14.9137 85.3469C13.1411 88.329 10.3403 90.9917 8.6031 91.4177C5.90867 92.1277 3.85239 88.329 3.32059 81.6547C3.21423 80.1636 2.96606 78.3175 2.7888 77.5364C2.61153 76.7554 2.46972 74.8738 2.46972 73.3117C2.46972 70.8265 2.54062 70.5425 3.10787 70.72C3.42695 70.8265 5.09325 71.3236 6.83045 71.8206C8.53219 72.3176 10.4821 72.7437 11.1557 72.7437C11.7939 72.7437 12.7511 72.8857 13.2475 73.0987C14.5238 73.5602 26.9323 75.2288 29.2368 75.2288C30.2649 75.2288 31.5767 75.4773 32.1085 75.7613C33.0657 76.2584 32.2858 76.2939 23.387 76.1518C18.0336 76.0453 12.6093 75.7968 11.333 75.6193C8.46129 75.1578 7.07862 75.1223 7.07862 75.5483C7.07862 75.8678 7.39769 75.9388 11.5103 76.6489C21.4726 78.424 29.2013 78.992 47.8497 79.347C54.1603 79.4535 59.4428 79.5955 59.5492 79.6665C59.7619 79.773 72.7023 79.0275 80.2892 78.424C83.0191 78.211 87.4153 77.8914 90.0388 77.6784C98.583 77.0394 98.9021 76.9684 98.9021 75.5483C98.9021 74.5543 97.9803 74.2702 95.7822 74.5543C94.6832 74.7318 92.8042 74.8383 91.6342 74.8383C89.1525 74.8383 80.9983 75.4063 76.2121 75.9388C69.1215 76.7199 37.2137 77.0394 37.2137 76.3294C37.2137 76.1518 42.6026 75.9388 49.1969 75.7968C55.7557 75.6903 62.1018 75.5128 63.2717 75.4063C64.4417 75.2998 67.6325 75.0513 70.3624 74.8383C73.0922 74.6608 78.5875 74.2702 82.5937 73.9862C86.5999 73.7022 90.8188 73.3117 92.0242 73.0987C93.1941 72.9212 95.534 72.7437 97.1649 72.7437C98.7957 72.7437 100.781 72.5661 101.561 72.3886C102.341 72.2111 104.752 71.8916 106.95 71.6786C109.113 71.5011 111.346 71.1461 111.878 70.9686C113.544 70.3295 113.686 70.6135 113.367 73.6667C112.658 80.2346 111.984 83.9623 111.382 84.8143C110.992 85.3114 109.68 86.3054 108.439 87.0155C106.56 88.1515 105.851 88.3645 104.185 88.3645C101.738 88.3645 100.285 87.7965 97.9094 85.9149C95.7113 84.1398 94.3286 83.9978 93.6905 85.4179C93.4423 85.9504 93.2296 86.5539 93.2296 86.7669C93.2296 87.5835 91.3506 89.8201 90.1097 90.4591C88.1953 91.4177 87.2026 90.8852 83.8345 87.0155C81.6364 84.4238 80.9628 83.8558 80.4665 84.1043C80.1474 84.2818 78.8002 85.5954 77.5239 87.0865C74.8649 90.0331 72.3123 91.9147 70.8941 91.9147C69.6533 91.9147 66.9234 90.1396 64.2999 87.619C62.2436 85.6664 62.0309 85.5599 61.1091 85.9149C60.5064 86.1279 59.5492 87.051 58.8401 88.116C58.1665 89.1456 56.8193 90.4946 55.862 91.1337C52.0686 93.6543 47.5306 91.9502 44.0207 86.6249C43.2762 85.5244 42.4253 84.6013 42.0708 84.5303C41.4681 84.3883 39.6954 86.0569 39.6954 86.7314C39.6954 86.8734 38.5609 88.187 37.1428 89.6426C34.4129 92.4473 32.1085 93.6898 29.485 93.6898C26.7196 93.6898 22.5716 89.9266 21.2244 86.1634C20.3381 83.7493 19.9481 83.3588 19.6645 84.5658C19.3808 85.7019 19.9835 87.974 21.3662 90.8142C22.1816 92.5183 22.8552 93.3703 24.2379 94.3644C25.2306 95.0744 26.2942 95.6069 26.6487 95.6069C27.0032 95.5714 27.2869 95.7134 27.2869 95.8554C27.2869 96.4235 31.0449 96.175 33.0657 95.5004C35.6538 94.6129 37.7101 93.1573 39.9791 90.6722L41.8226 88.6485L43.6307 90.6367C44.588 91.7017 45.9706 92.9443 46.6442 93.3348C47.8142 94.0803 47.8497 94.1514 47.8497 96.5655V99.0506L46.2897 98.8376C44.588 98.5536 39.27 99.4767 32.6048 101.181C26.0106 102.885 23.7061 105.121 25.1951 108.352C25.6206 109.311 26.4714 109.772 29.4141 110.731C32.0021 111.547 33.4557 111.796 38.1001 112.151C40.2627 112.328 42.5671 112.541 43.2408 112.648C43.9144 112.754 51.6077 113.003 60.2937 113.251C81.3883 113.819 88.6561 113.322 90.4642 111.121C92.8751 108.104 87.6989 103.63 79.4029 101.536C76.1767 100.719 71.2841 100.542 70.646 101.181C69.476 102.352 69.157 100.648 69.4406 95.0389C69.476 94.5419 69.7951 94.4354 71.2487 94.4354C72.7023 94.4709 73.2341 94.2934 74.2976 93.4768C75.0067 92.9088 75.9994 92.1277 76.5312 91.7727C77.0275 91.3822 78.1975 90.3526 79.1193 89.5006L80.7856 87.903L83.09 90.3881C86.0326 93.5478 86.9189 93.9383 89.6134 93.2993C91.1733 92.9443 91.9533 92.4828 93.2296 91.2047C94.1159 90.3171 95.0022 89.3231 95.1795 88.9681C95.4986 88.4 95.7468 88.4355 98.2285 89.7136C100.568 90.8852 101.313 91.0982 103.546 91.1337C105.886 91.2047 106.454 91.0627 108.758 89.9621C110.212 89.2876 111.913 88.7195 112.552 88.7195C113.651 88.7195 113.792 88.613 114.111 87.3705C114.537 85.5954 115.104 81.5126 115.742 74.8738C116.061 71.8561 116.38 68.5544 116.487 67.5959C116.664 65.8918 116.629 65.7498 115.104 64.0102C112.835 61.4895 109.467 60.531 108.333 62.1641C107.624 63.1581 107.836 63.4066 110.034 64.0457C111.984 64.6137 114.324 66.5663 113.863 67.2764C113.154 68.3769 111.133 68.8739 106.241 69.229C103.476 69.4065 100.994 69.6195 100.675 69.726C100.391 69.8325 97.9803 70.0455 95.3568 70.2585C80.7856 71.3236 76.4248 71.6786 73.3759 72.0336C71.5323 72.2111 67.9515 72.4596 65.3989 72.5661C62.8818 72.6727 59.691 72.8502 58.3083 72.9922C56.9611 73.1697 49.7641 73.1697 42.3544 73.0632C29.9104 72.8502 28.4214 72.7792 22.8552 71.8561C19.5581 71.3236 16.2964 70.791 15.6937 70.72L14.5238 70.5425V64.5427C14.5238 61.241 14.6656 58.5429 14.8428 58.5429C15.0201 58.5429 15.4101 58.9334 15.7292 59.4304C16.7573 60.9925 18.2109 61.4895 21.4017 61.2765C22.9616 61.17 25.2306 60.8505 26.4005 60.5665C28.9177 59.9274 36.7174 57.0873 37.8164 56.3772C38.5255 55.9512 38.7028 55.9867 39.7664 57.0163C41.3972 58.5784 42.9926 58.7914 45.1198 57.6908L46.8215 56.8033L49.1614 58.6139C52.104 60.815 52.6713 61.028 55.6493 61.0635C62.2081 61.1345 67.7388 59.5724 70.646 56.8388L71.6387 55.9157L72.7023 57.0518C73.7304 58.1168 73.9077 58.1878 76.3539 58.1878C79.4029 58.1878 80.9628 57.7263 82.3455 56.4482L83.3382 55.5607L85.0754 56.1642C88.1953 57.2648 92.0951 57.6553 95.5695 57.1938C98.6539 56.7678 99.1503 56.5548 102.164 54.2116C102.696 53.7856 103.227 53.5371 103.334 53.6081C103.476 53.7856 103.227 56.7323 102.518 62.3416C102.199 64.9687 102.27 65.2882 103.263 65.2882C104.255 65.2882 104.858 64.3297 105.142 62.3771C105.248 61.525 105.425 60.46 105.496 59.9629C105.993 56.8388 106.312 48.4248 106.312 39.7268L106.276 29.6087L104.433 27.7981C102.554 25.9875 101.667 25.455 98.5121 24.319C96.4558 23.5734 93.1587 23.0409 92.2369 23.2894C91.4924 23.4669 91.0315 24.5675 91.3506 25.384C91.4569 25.7035 92.0596 25.881 92.8751 25.881C94.3995 25.881 99.2921 27.4076 100.852 28.3662C101.419 28.7212 102.376 29.5022 102.944 30.1058C103.83 31.0288 103.901 31.2773 103.511 31.7389C102.128 33.4075 96.1013 35.3246 88.6207 36.5316C85.9972 36.9577 83.1609 37.4192 82.3809 37.6322C81.5655 37.8097 79.0838 38.0937 76.8857 38.3067C69.1215 38.9813 62.1727 39.6913 59.5846 40.0818C55.5784 40.6499 43.2762 40.5079 36.8592 39.7978C24.6279 38.4487 19.9126 37.5612 16.4028 35.9636C13.5311 34.65 13.9211 33.869 18.4591 32.0939C19.6999 31.5969 21.0471 31.0288 21.4371 30.8513C21.8271 30.6738 23.1034 30.2123 24.2734 29.8573C25.4433 29.4667 27.8187 28.5082 29.5204 27.6916C33.7393 25.7035 34.4484 25.5615 35.0865 26.7331C35.6892 27.9047 36.4338 27.9047 36.7174 26.6976C36.8592 26.2006 36.8237 23.0764 36.6465 19.7392C36.4692 16.4375 36.4338 13.5974 36.5401 13.4198C36.6465 13.2068 38.49 13.3133 41.149 13.6684C44.6589 14.1299 47.176 14.2009 53.6994 14.0234C58.202 13.9169 63.3072 13.6684 65.0444 13.4909C72.4541 12.6743 77.2757 11.9998 80.2892 11.3252C82.0619 10.9347 83.5863 10.6152 83.7636 10.6152C83.9054 10.6152 84.0118 12.0708 84.0118 13.8104C84.0118 17.3251 83.5154 19.0647 82.2037 19.9522C81.4592 20.4847 81.3528 20.4847 80.7501 19.9522C80.3601 19.5972 80.1119 18.8872 80.1119 17.9996C80.1119 16.7215 80.041 16.6505 79.0484 16.6505C78.4457 16.6505 77.9139 16.8635 77.843 17.0766C77.772 17.3251 77.5239 18.2126 77.3112 19.0292C77.063 19.9167 76.673 20.5557 76.3894 20.5557C75.7867 20.5557 75.1485 19.4907 75.1485 18.5321C75.1485 18.1416 74.9358 17.5736 74.6876 17.2186C74.014 16.26 72.6668 17.0411 72.6668 18.3546C72.6668 19.4552 71.9577 20.9818 71.4259 21.0528C71.2487 21.0528 71.0005 20.3782 70.8941 19.4907C70.7523 18.1061 70.6105 17.8931 69.866 17.8931C69.157 17.8931 68.9442 18.1771 68.5188 19.5617C68.1643 20.8043 67.8452 21.2658 67.3843 21.2658C66.6043 21.2658 66.2852 20.5912 66.2852 19.1002C66.2852 18.1771 66.1434 18.0706 65.2217 18.0706C64.3353 18.0706 64.1581 18.2126 64.1581 18.9582C64.1581 20.0232 63.4845 21.5143 62.9172 21.7628C62.1372 22.0468 61.57 21.3368 61.6054 20.0587C61.6409 19.1357 61.4636 18.7096 60.9673 18.4256C60.1164 17.9641 59.9037 17.9641 59.9037 18.4966C59.9037 19.0647 58.2374 21.1948 57.3156 21.7983C56.1811 22.5439 55.153 22.1178 54.2667 20.5202C53.8412 19.7747 53.4158 19.1357 53.3449 19.1357C52.9549 19.1357 51.7495 20.7688 51.8913 21.1238C52.1395 21.7628 51.6431 22.2243 50.2959 22.4729C49.3032 22.6504 48.9132 22.5439 48.3815 21.9758C47.8497 21.4078 47.8142 21.0528 48.1333 19.8812C48.3815 18.8161 48.346 18.2836 48.0624 17.8576C47.3533 16.899 46.2543 17.5736 45.3679 19.5262C44.907 20.5202 44.0562 21.6563 43.5244 22.0468C42.5671 22.7214 42.4253 22.7214 41.2908 22.1888C39.9436 21.5498 38.9509 20.4137 38.2773 18.8161C37.6392 17.1831 37.2492 17.8221 37.7101 19.7392C38.4546 23.0054 40.7236 25.029 42.9926 24.461C43.6307 24.2835 44.6234 23.9639 45.2261 23.7154C46.2188 23.3249 46.4315 23.3604 47.3179 24.0349C48.5587 25.029 50.4377 25.029 51.7849 24.0704C52.7776 23.3604 52.9194 23.3604 54.2667 23.8929C56.0748 24.6385 56.5357 24.603 58.3792 23.7154C59.7973 23.0409 60.0101 23.0054 61.2509 23.5024C62.6336 24.0349 63.2717 23.9639 64.229 23.1474C64.7253 22.7214 64.938 22.7214 65.6471 23.1119C66.8525 23.7864 72.3123 23.8219 73.0922 23.1119C73.5531 22.7214 74.0495 22.6859 75.0422 22.8634C76.673 23.2184 77.2757 23.1474 78.0202 22.4729C78.552 22.0113 78.7647 22.0113 79.8992 22.5439C81.1046 23.1474 81.2464 23.1474 82.4164 22.5794C84.1181 21.7628 84.3663 21.7983 84.3663 22.9344C84.3663 24.5675 84.7563 25.526 85.4299 25.526C86.6708 25.526 86.9544 24.603 86.7062 21.5143C86.5999 19.9167 86.3162 16.686 86.139 14.3429C85.7135 8.62708 85.3945 7.66853 83.1609 5.50291C81.1401 3.51479 78.3038 2.20123 73.8368 1.24267C71.5678 0.745644 67.4552 0.56813 65.3989 0.88765ZM74.5104 4.01183C77.9139 4.82837 82.4873 7.27801 81.8492 7.95255C81.4946 8.27206 77.9493 9.19511 77.0275 9.19511C76.0348 9.19511 75.9639 8.62708 76.9212 8.30756C77.3112 8.20106 77.6302 7.95255 77.6302 7.77503C77.6302 7.207 75.4676 7.02949 70.5396 7.13599C66.5334 7.207 65.5053 7.13599 64.1581 6.56796C62.7399 5.99993 61.8536 5.92893 56.5357 6.10644C50.8277 6.28395 44.9425 7.06499 43.5244 7.81053C42.6381 8.27206 42.709 9.05311 43.7016 9.69214C44.3398 10.1182 46.3606 10.2247 54.7276 10.2957C62.4209 10.3312 64.7962 10.4377 64.2999 10.7572C62.5272 11.7868 39.6245 11.2897 37.4619 10.1892C35.0511 8.9466 44.1625 6.03544 55.4721 4.40234C62.2081 3.44379 71.2841 3.26628 74.5104 4.01183ZM104.575 35.0406C104.575 35.1826 104.433 35.8216 104.22 36.4961C104.043 37.1707 103.866 40.9694 103.83 44.9456C103.83 48.8863 103.653 52.1525 103.511 52.1525C103.334 52.1525 102.944 51.7975 102.66 51.407C102.164 50.6969 102.057 50.6614 101.313 51.1585C100.852 51.478 99.9302 52.2235 99.2566 52.827C97.2003 54.6376 91.8469 55.6672 87.6989 55.0282C85.1108 54.6376 84.2954 54.0341 84.6145 52.827C84.8981 51.7975 85.4654 51.691 88.1953 52.1525C92.1305 52.7915 94.2932 52.7915 96.4204 52.0815C98.7248 51.336 100.887 50.1999 102.022 49.2058C102.873 48.4248 102.979 47.9988 102.483 47.2177C102.235 46.8627 101.419 47.1467 98.583 48.5313C96.6331 49.5254 95.0022 50.2709 95.0022 50.1999C95.0022 50.0934 94.5768 50.2354 94.045 50.4484C92.8042 50.9454 86.1744 51.123 85.359 50.6969C84.969 50.4839 84.7208 49.9514 84.7208 49.3478C84.7208 47.0402 81.5655 45.1231 78.5166 45.5491C76.3894 45.8332 75.7867 46.1527 74.4395 47.8923C73.4822 49.0993 73.4113 49.3478 73.9077 49.5254C74.1913 49.6674 75.4321 49.3123 76.6021 48.7798C79.1193 47.6793 80.6083 47.7503 81.8846 49.1348C82.9482 50.2709 82.7 52.5075 81.3174 53.9631C80.2892 55.0282 77.772 56.0577 76.1767 56.0577C74.0849 56.0577 71.745 52.7915 72.6668 51.0874C73.0568 50.3419 72.8795 49.6674 72.3123 49.6674C71.8514 49.6674 70.8232 51.762 71.0714 52.1525C71.1778 52.3655 71.1069 52.5075 70.9296 52.5075C70.7169 52.5075 70.5396 52.3655 70.5396 52.188C70.5396 51.6555 69.476 50.7324 68.9088 50.7324C68.6252 50.7324 68.1288 51.0519 67.7743 51.478C65.3989 54.3181 56.2166 56.3772 53.0613 54.7797C51.4304 53.9631 50.4377 52.9336 48.9841 50.7324C47.6369 48.6023 46.8924 47.9278 45.0843 47.2887C43.0989 46.5432 40.759 47.8568 40.759 49.7739C40.759 50.6259 40.8654 50.7679 41.3972 50.5549C43.2762 49.7739 44.0562 49.7029 45.0134 50.1999C46.7861 51.123 46.8924 52.6495 45.3325 54.4601C43.8789 56.0932 42.8862 56.3417 41.2908 55.3477C40.1918 54.6731 40.05 54.4246 40.05 53.0046C40.05 51.265 39.6954 51.0519 38.7382 52.2235C38.0292 53.1111 34.732 54.9927 33.9875 54.9927C33.7039 54.9927 34.0939 54.6021 34.8384 54.1406C36.4692 53.1466 37.9228 51.7975 37.9228 51.336C37.9228 50.7324 36.7883 49.6674 36.1856 49.6674C35.902 49.6674 35.2638 50.0579 34.7675 50.5194C33.3139 51.8685 29.4495 53.8211 26.7196 54.5666C23.1034 55.5607 16.5446 56.2707 15.481 55.8092C14.6656 55.4187 14.6301 55.2767 14.382 49.0638C14.2047 45.5846 14.0274 41.6794 13.9565 40.3659L13.8147 37.9517L16.0482 38.8038C17.2536 39.2298 18.9554 39.7268 19.8417 39.8688C20.7281 40.0108 22.3943 40.2949 23.5643 40.4724C24.7342 40.6854 26.7196 40.9694 27.9959 41.1114C29.2722 41.2889 31.6476 41.6439 33.3139 41.9634C36.292 42.496 55.6848 43.5255 56.252 43.1705C56.4293 43.064 59.7619 42.709 63.6263 42.3895C67.5261 42.1054 71.1069 41.7504 71.6032 41.6439C72.4186 41.4309 75.574 41.0759 80.4665 40.5789C81.5301 40.5079 83.5509 40.1883 84.969 39.9043C86.3871 39.6203 87.9825 39.3718 88.5498 39.3718C89.117 39.3718 90.0388 39.2298 90.6061 39.0523C91.1733 38.8748 92.7687 38.5553 94.1159 38.3067C96.9876 37.7742 101.455 36.3541 102.979 35.3956C104.114 34.721 104.575 34.6145 104.575 35.0406ZM49.7996 55.3477C50.9341 56.5903 52.9194 57.6198 54.5503 57.8328C55.4366 57.9393 56.1811 58.2233 56.2875 58.5074C56.5711 59.3594 52.5649 58.7559 50.5086 57.6553C48.0269 56.3417 47.6015 55.8802 48.2042 55.2057C48.7714 54.4601 49.0196 54.4956 49.7996 55.3477ZM65.7535 56.7678C65.6471 56.9453 65.2571 57.1228 64.938 57.1228C64.4062 57.1228 64.4062 57.0518 64.8671 56.7678C65.5762 56.3062 66.0371 56.3062 65.7535 56.7678ZM61.1446 58.1878C61.0382 58.3654 60.7191 58.5429 60.4355 58.5429C60.1519 58.5429 59.8328 58.3654 59.7264 58.1878C59.5846 57.9748 59.9037 57.8328 60.4355 57.8328C60.9673 57.8328 61.2864 57.9748 61.1446 58.1878ZM23.5288 58.5429C22.997 59.0754 17.8564 59.1819 17.3246 58.6494C17.0409 58.3654 17.7854 58.2589 20.409 58.2233C22.8552 58.1878 23.777 58.2943 23.5288 58.5429ZM12.0775 66.3888C12.0066 68.2349 11.9002 69.797 11.8293 69.868C11.723 69.9745 8.10676 69.3 5.30596 68.6254C4.10056 68.3059 3.17878 67.4539 3.17878 66.6373C3.17878 66.1403 3.78148 65.6788 5.23506 65.0042C7.36224 64.0457 11.2621 62.8386 11.8648 62.9806C12.0775 63.0161 12.1839 64.3297 12.0775 66.3888ZM62.5981 90.1751C62.9527 90.6012 64.1226 91.4177 65.1507 91.9857C66.1434 92.5893 66.9943 93.2993 67.0298 93.6188C67.0298 93.9738 67.0298 96.743 66.9943 99.8317L66.9589 105.441L67.9515 105.334C68.6961 105.263 68.9797 104.979 69.2279 104.092L69.5469 102.956L72.0996 103.133C77.063 103.488 81.1755 104.553 84.8981 106.435C86.6353 107.287 88.3371 108.885 88.1598 109.417C88.0889 109.666 87.238 109.95 86.2453 110.056C85.2526 110.198 84.26 110.411 84.0472 110.518C83.4445 110.908 59.6555 110.802 52.6358 110.411C49.126 110.198 44.3398 110.021 41.9999 109.985C39.66 109.985 37.1783 109.843 36.5047 109.666C35.8311 109.488 34.1648 109.169 32.8176 108.956C29.8395 108.459 27.535 107.394 27.7123 106.542C27.8896 105.583 31.0803 104.092 35.0865 103.098C37.1428 102.601 39.1991 102.21 39.6954 102.21C40.1918 102.21 41.4326 101.997 42.4253 101.713C43.4535 101.429 45.0843 101.11 46.0061 100.968L47.7433 100.719L48.0269 102.104C48.3105 103.772 49.126 104.695 50.225 104.695C51.1822 104.695 51.2177 104.305 50.5441 101.536C50.2605 100.435 49.9414 98.5536 49.835 97.382L49.5869 95.2164L52.0331 95.0389C55.0466 94.8259 57.5992 93.5478 59.9037 91.1337C60.79 90.2106 61.6054 89.4651 61.7118 89.4651C61.8182 89.4296 62.2081 89.7846 62.5981 90.1751Z" fill="#272727"></path><path d="M114.856 13.1005C114.573 13.278 114.431 13.5265 114.537 13.633C114.679 13.7395 114.963 13.5975 115.211 13.278C115.707 12.6744 115.601 12.6034 114.856 13.1005Z" fill="#272727"></path><path d="M83.1263 26.4138C82.559 26.5913 81.8854 26.8753 81.6372 27.0528C81.4245 27.1949 81.1054 27.1239 80.9991 26.9108C80.8573 26.6978 80.3964 26.6268 79.9709 26.7333C76.9929 27.4789 56.5365 29.5735 55.9338 29.2185C55.7565 29.112 55.4374 29.183 55.1892 29.3605C54.5156 29.893 45.9005 29.609 42.3552 28.97C40.618 28.6504 38.8099 28.3664 38.3845 28.3664C37.2145 28.3664 37.3209 29.538 38.5263 30.4255C39.8381 31.3841 39.4126 31.7036 37.6045 31.2066C36.7891 30.9936 35.9737 30.9226 35.7964 31.0291C35.3001 31.3486 35.3355 32.6267 35.8319 32.6267C36.08 32.6267 36.4346 32.8752 36.6473 33.1237C36.8955 33.4432 38.5263 33.8692 40.7598 34.2242C51.0058 35.8218 58.4864 35.9993 65.2225 34.8633C67.6687 34.4373 70.8595 33.9757 72.3131 33.8692C76.6384 33.4787 86.6361 30.1415 85.8562 29.3605C85.3953 28.899 81.46 29.467 77.2765 30.603C76.2129 30.8871 74.2276 31.2421 72.8449 31.3841C71.4977 31.4906 67.9878 31.9166 65.0807 32.3071C59.6918 33.0172 52.8493 33.1592 51.573 32.6267C50.9349 32.3426 50.9349 32.3071 51.7503 32.2361C52.2466 32.2006 54.232 32.1296 56.1819 32.0586C65.0807 31.7746 85.0762 27.8694 85.0762 26.4493C85.0762 25.9168 84.5444 25.9168 83.1263 26.4138Z" fill="#272727"></path></svg> 