<?xml version="1.0" encoding="UTF-8"?> <svg xmlns="http://www.w3.org/2000/svg" width="85" height="155" viewBox="0 0 85 155" fill="none"><path d="M39.8128 14.3461C39.0308 14.571 37.4295 15.0584 36.2751 15.3957C33.6311 16.1455 32.7746 17.0452 32.4394 19.2944C32.1415 21.4686 31.5457 23.8303 31.0988 24.6925C30.2423 26.342 31.2478 31.3277 32.8118 33.1646C33.8545 34.3642 34.3014 34.1767 33.5938 32.8272C32.8491 31.4027 32.1043 26.9417 32.5139 26.3794C32.9608 25.7796 33.5938 23.7553 34.1524 21.1313C34.7483 18.3197 36.0516 17.1201 38.3977 17.1201C40.6693 17.1201 41.9354 17.6824 41.9354 18.6571C41.9354 19.3319 42.0844 19.4443 43.0154 19.2569C44.1698 19.032 44.5422 19.5568 44.5422 21.5061C44.5422 22.5558 43.574 22.6307 43.3133 21.6186C43.2016 21.2062 42.9409 20.8688 42.7175 20.8688C42.4568 20.8688 42.3078 22.3308 42.3078 25.2173C42.3078 29.4159 42.643 30.9903 43.4995 30.9903C43.7229 30.9903 44.0953 31.2902 44.356 31.6276C45.138 32.6773 46.851 31.8525 47.4096 30.2406C47.9682 28.6287 48.0055 23.7179 47.5213 20.6814C47.1862 18.6946 46.9628 18.2448 45.0635 16.3329C42.7175 13.9712 41.9354 13.6339 39.8128 14.3461Z" fill="#272727"></path><path d="M35.5683 21.5055C34.116 23.2674 33.7808 29.3028 35.0097 31.1772C35.9407 32.6017 36.9089 32.2643 36.8344 30.6149C36.8344 29.9026 36.7227 27.7284 36.611 25.8165C36.5365 23.9047 36.611 22.2552 36.7972 22.1428C37.2813 21.8429 37.1323 20.8682 36.611 20.8682C36.3131 20.8682 35.8662 21.1681 35.5683 21.5055Z" fill="#272727"></path><path d="M20.0378 30.3155C19.8144 31.3276 19.3303 31.7775 17.6173 32.7147C12.9996 35.1888 9.61082 39.9871 9.31291 44.4856C9.16395 46.5474 9.20119 46.7723 9.98321 47.0722C15.9043 49.3964 17.1704 49.7338 19.5165 49.7338C22.086 49.7338 26.9271 48.7216 29.3104 47.7095C30.0552 47.4096 30.7627 47.2221 30.8745 47.3721C30.9862 47.4845 29.1987 49.4714 26.8899 51.7581C23.0542 55.5817 19.8889 59.4804 20.5964 59.4804C20.7454 59.4804 21.7508 58.5057 22.8308 57.3436C25.0279 54.8695 25.4003 55.1319 23.5756 57.831C22.4211 59.5554 21.0805 62.4419 21.0805 63.2291C21.0805 63.454 21.304 63.604 21.6019 63.604C21.8998 63.604 23.2776 61.8796 24.6555 59.7803C27.374 55.5442 32.4758 48.984 33.0343 48.984C33.5929 48.984 33.444 49.4714 31.7682 52.8077C30.018 56.294 27.8581 61.5797 27.8581 62.4793C27.8581 62.7792 27.4857 64.8785 27.0761 67.0902C26.1451 72.0385 25.2513 73.7629 21.7136 77.4741L19.0324 80.2857L18.8462 76.8369C18.66 73.8379 18.5483 73.2756 17.8035 72.5633C16.0905 70.9889 10.3184 71.2513 6.07309 73.0507C5.10486 73.5005 4.21112 73.7254 4.0994 73.6505C3.80149 73.3131 5.44002 70.7265 7.71162 67.915C10.2439 64.7661 16.1649 58.9556 19.8144 56.0316C25.2886 51.6456 26.3313 50.2211 23.799 50.7084C22.0115 51.0458 21.0433 51.7206 16.0532 56.144C5.66345 65.4033 -0.145879 73.5755 2.27468 75.5998C2.90774 76.1246 6.03585 75.5623 7.86057 74.6251C9.38738 73.8379 15.2712 73.463 16.0532 74.1003C16.7608 74.7001 16.7608 76.7244 16.0532 80.9604C15.5319 83.8469 15.5319 84.2968 16.016 84.7841C17.0214 85.8338 17.9897 85.3839 20.2985 82.8348C21.5646 81.4853 22.6818 80.4356 22.7935 80.5481C23.0542 80.8105 22.3467 88.3079 21.8626 90.6696C21.4157 92.6939 21.2667 99.1042 21.6391 100.041C21.7881 100.379 21.6764 101.016 21.4529 101.466C21.155 102.028 21.0433 106.901 21.0433 117.773C21.0433 134.342 21.304 137.191 22.9797 140.49C24.4321 143.376 27.7464 146.375 30.018 146.938C30.5393 147.05 32.5502 147.575 34.4867 148.137C37.6148 149.037 38.434 149.112 41.5621 148.924C43.4986 148.774 46.6267 148.587 48.4514 148.437C50.3134 148.325 52.0636 148.025 52.3615 147.8C52.6595 147.537 53.4042 147.125 53.9628 146.825C56.3462 145.626 57.0165 144.276 58.0964 138.728C58.8784 134.567 59.0274 132.842 58.8784 130.143C58.7667 128.269 58.6178 123.246 58.506 118.897C58.1709 106.752 57.6868 97.0424 57.2771 94.3433C57.0537 92.9938 56.793 90.6321 56.6441 89.0951C56.3834 85.9087 56.011 84.8966 55.3035 85.6088C54.7076 86.2086 54.8566 89.8074 55.7131 95.9178C56.16 98.8417 56.4579 101.953 56.3834 102.778L56.2344 104.277L53.6649 104.24C41.8973 104.09 24.3576 103.528 24.2086 103.265C24.0969 103.115 24.0224 97.5297 24.0597 90.932L24.0969 78.8612L25.8844 76.7619C26.8899 75.5998 28.0443 73.9504 28.4911 73.0882C29.2359 71.6262 29.3477 71.5137 30.2414 71.8511C30.7627 72.076 31.3586 72.151 31.5075 72.0385C31.6937 71.9261 32.9226 72.3384 34.2632 72.9757C35.6039 73.5755 37.1679 74.1003 37.7265 74.1003C39.5512 74.0628 41.9345 73.3506 43.089 72.5259C43.7593 72.001 44.9882 71.5887 46.1426 71.4762C48.4514 71.2513 48.5631 70.6515 46.4033 70.2392C44.9137 69.9393 44.8764 69.8643 45.1371 68.9271C45.3233 68.3648 45.4723 66.8278 45.4723 65.5158C45.4723 63.1541 45.9191 62.3294 46.6267 63.3041C47.148 64.0163 49.1962 69.3395 50.1272 72.4134C50.5741 73.8379 51.2071 75.7123 51.5795 76.537C51.9519 77.3617 52.4733 78.5988 52.7339 79.2735C53.8884 82.235 55.6014 83.1347 57.0909 81.4853C58.0219 80.4356 59.6977 73.538 59.9584 69.4144C60.1073 67.8025 60.3308 66.303 60.5542 66.0781C60.9638 65.6657 64.3154 67.6525 67.8903 70.3891C70.646 72.5259 72.2101 72.9757 73.29 71.9636C75.7478 69.7518 71.4653 59.8178 65.3208 53.4075C64.0175 52.0954 62.0065 49.9212 60.8521 48.6091C59.6605 47.2971 58.6178 46.3224 58.506 46.4349C58.3943 46.5474 59.586 48.3842 61.1873 50.521C64.2781 54.6446 66.9221 58.5807 68.4489 61.3547C70.013 64.1663 71.8005 69.302 71.4281 69.6768C71.0557 70.0517 69.4544 69.1145 65.656 66.1906C63.1982 64.3162 61.15 63.7164 59.9956 64.5036C58.6922 65.3658 58.3571 66.1906 58.0964 69.302C57.8357 72.4509 56.16 80.0982 55.7131 80.0982C55.2662 80.0982 53.6277 76.387 52.9201 73.7254C52.585 72.3759 51.9892 70.614 51.6168 69.7518C51.2444 68.9271 50.6485 67.2402 50.3134 66.0031C49.2707 62.4793 44.2806 51.4207 42.9772 49.8462C42.4559 49.1715 41.9345 49.5838 41.9345 50.7084C41.9345 52.0954 44.1317 57.606 44.653 57.4936C44.9137 57.4561 45.0999 57.8684 45.1371 58.5432C45.1371 59.143 45.3233 60.0427 45.584 60.4925C45.8447 60.9424 46.0309 61.4672 46.0309 61.6921C46.0309 62.1795 44.2806 62.2544 44.0199 61.7671C43.6475 61.1673 40.4822 59.8553 39.4023 59.8553C37.801 59.8553 35.939 60.5675 34.375 61.8046C33.2578 62.6668 32.7364 62.8542 31.8799 62.6668C31.2841 62.5168 30.6883 62.2544 30.5393 62.067C30.3159 61.6546 31.3213 58.5432 33.444 53.295C35.157 49.134 35.6783 48.1593 37.019 46.6598C37.9499 45.6477 37.9872 45.6477 39.0299 46.285C40.0726 46.8847 40.1471 46.8847 40.5939 46.285C40.8918 45.8726 41.3387 45.7226 41.8601 45.8726C42.9028 46.135 42.9028 45.7226 41.7483 44.0357C41.227 43.286 40.8174 42.3113 40.8174 41.899C40.8174 40.8868 40.1471 40.8868 39.7747 41.899C39.514 42.6112 39.4395 42.6112 38.9926 42.0864C38.583 41.5991 38.583 41.3367 39.1044 40.5494C40.0353 39.1249 39.8491 38.7875 38.3968 39.3873L37.0562 39.9496L34.9335 38.0378C33.7791 36.9507 32.4385 35.6012 31.9544 35.0388C29.4594 32.0399 24.3576 29.1534 21.5646 29.1159C20.5219 29.1159 20.3357 29.2658 20.0378 30.3155ZM21.0433 33.127C21.2295 33.5019 22.3839 34.5515 23.65 35.4887C24.8789 36.4259 25.8844 37.3256 25.9216 37.4755C25.9216 37.6629 25.5865 37.8879 25.1396 38.0003C24.6555 38.1503 24.4321 38.4502 24.5065 39.0125C24.581 39.6123 25.2513 39.9871 27.5602 40.7369C29.1987 41.2992 30.5765 41.899 30.651 42.1239C30.7255 42.3488 29.869 42.6487 28.6401 42.7987C27.4484 42.9486 26.0334 43.286 25.4748 43.5859C24.9162 43.8858 24.3576 44.1107 24.2459 44.1107C23.4638 44.0732 23.3149 44.1482 23.3149 44.5231C23.3149 44.9354 24.9534 44.8604 29.1987 44.2607C30.1297 44.1107 30.9862 44.1857 31.2096 44.4106C31.8054 45.0104 22.086 47.9719 19.591 47.9719C17.2821 47.9344 13.7444 46.7348 12.2548 45.4602L11.2866 44.6355L12.0686 42.5362C13.2603 39.3873 15.5691 35.9385 17.8035 34.1392C20.0006 32.3398 20.5219 32.1898 21.0433 33.127ZM26.7409 33.8767C28.0443 34.8514 28.4911 35.3387 28.0815 35.4137C27.4112 35.5262 24.581 33.7268 24.2831 32.9396C23.948 32.1523 24.73 32.4522 26.7409 33.8767ZM37.8382 45.0104C37.8382 45.0854 36.7583 45.7226 35.4177 46.3599C34.1143 46.9972 32.2151 48.2718 31.2096 49.1715C30.2042 50.1086 29.2732 50.7459 29.1615 50.6334C28.8263 50.2961 32.8854 46.6223 34.2632 46.0225C34.8963 45.7601 35.6783 45.3853 35.9762 45.1978C36.5721 44.8979 37.8382 44.748 37.8382 45.0104ZM32.0661 64.4287C31.9172 65.1034 31.7682 66.7154 31.731 67.9899C31.6937 70.614 31.5075 70.9139 30.3159 70.614C29.4966 70.3891 29.4594 70.2392 29.5711 67.4651C29.7573 64.0163 30.0924 63.2291 31.3586 63.2291C32.2523 63.2291 32.3268 63.3041 32.0661 64.4287ZM43.5358 66.6779C43.3124 66.9403 43.0517 67.6151 42.9028 68.1774C42.7538 68.8521 42.3442 69.302 41.7111 69.4519C40.1843 69.8268 40.2215 69.302 41.7483 67.7275C43.089 66.3405 44.3923 65.5908 43.5358 66.6779ZM35.9762 67.1652C35.9762 67.4651 35.8273 67.7275 35.6039 67.7275C35.4177 67.7275 35.2315 67.4651 35.2315 67.1652C35.2315 66.8653 35.4177 66.6029 35.6039 66.6029C35.8273 66.6029 35.9762 66.8653 35.9762 67.1652ZM26.8526 105.215C30.6883 106.189 53.8884 107.276 55.9365 106.564C56.7185 106.339 56.7558 106.414 57.0165 112.562C57.1654 115.973 57.1654 121.671 56.9792 125.195C56.8303 128.756 56.6813 131.943 56.6813 132.318C56.6441 132.955 56.1972 133.03 50.3134 132.992C46.8501 132.955 41.4877 133.105 38.3968 133.33C23.7245 134.417 24.6927 134.417 23.9852 133.63C23.5011 133.067 23.4638 132.767 23.799 131.868C24.0969 131.081 24.0969 128.981 23.8362 124.633C23.65 121.259 23.5383 115.448 23.6128 111.662C23.7245 103.94 23.5011 104.39 26.8526 105.215ZM41.9718 135.579H56.0855V137.041C56.0855 137.828 55.7503 139.59 55.3407 140.94C54.7076 142.926 54.298 143.639 53.0319 144.613C51.505 145.85 51.4678 145.85 45.8819 146.15C40.1098 146.488 36.721 146.3 35.4177 145.588C35.008 145.401 34.1515 145.213 33.4812 145.251C31.9544 145.326 31.5448 144.688 32.7737 144.201C34.1515 143.676 34.1143 142.064 32.7364 141.727C32.1406 141.614 31.5075 141.464 31.2841 141.39C31.0607 141.315 30.4276 140.302 29.869 139.14C29.1615 137.603 28.7146 137.079 28.2305 137.153C27.4484 137.303 27.1505 140.002 27.7836 141.202C28.4911 142.514 27.7836 142.589 26.6664 141.352C25.512 140.04 23.9107 136.104 24.2831 135.504C24.4321 135.279 25.1768 135.204 26.2196 135.354C27.1505 135.467 34.226 135.579 41.9718 135.579Z" fill="#272727"></path><path d="M52.1765 31.6646C49.458 33.1641 47.2237 34.8135 44.9521 36.9128C43.388 38.3748 43.0156 38.9746 43.2391 39.4994C43.388 39.8742 43.537 40.624 43.5742 41.1863C43.6115 41.936 43.9466 42.4234 44.8031 42.8732C47.2609 44.2227 51.4317 48.8336 55.3046 54.4942C56.0494 55.5813 57.2038 55.8812 57.2038 54.944C57.2038 53.1072 51.5062 46.322 47.8195 43.7729C46.814 43.1356 46.032 42.4234 46.032 42.1984C46.032 41.4112 53.2937 42.6108 55.528 43.7729C56.3473 44.2227 58.6189 45.4223 60.5553 46.472C62.4918 47.4841 64.54 48.5712 65.1358 48.8711C67.6308 50.1832 68.2639 48.3838 66.6998 44.2602C66.1412 42.8357 65.4709 40.8864 65.2103 39.9117C64.6517 37.9624 61.8587 34.701 58.4699 32.077C56.1611 30.2776 54.8205 30.2026 52.1765 31.6646ZM56.9059 33.6139C57.8369 34.2512 59.6988 35.7882 61.0395 37.1002C62.9759 38.9371 63.4973 39.7243 63.7207 40.9239C63.8696 41.7486 64.3538 43.2481 64.8379 44.2977C65.7689 46.397 66.253 47.859 66.0295 47.859C65.955 47.859 63.7579 46.5844 61.1139 45.0475C58.5072 43.5105 55.4536 42.011 54.3736 41.6736C51.9903 40.9989 51.7296 40.474 53.8523 40.6615C54.6715 40.7364 55.3418 40.6615 55.3418 40.4366C55.3418 39.9492 54.0385 39.6118 51.9158 39.6118C50.9476 39.6118 50.0911 39.4619 49.9421 39.237C49.8304 39.0495 51.0966 38.8621 53.182 38.7871C55.9749 38.7122 56.6452 38.5622 56.6452 38.1124C56.6452 37.625 55.8632 37.5501 51.8413 37.5875C47.6705 37.5875 47.112 37.5126 47.745 37.1002C49.1229 36.0881 54.7833 32.4893 55.0067 32.4893C55.1184 32.4893 55.9749 33.0141 56.9059 33.6139ZM47.745 40.0617L48.4526 40.8489L47.1864 40.624C46.5161 40.474 45.4362 40.3616 44.8031 40.3616C43.0156 40.3616 44.4307 39.4244 46.4416 39.2745C46.7768 39.2745 47.3354 39.6118 47.745 40.0617Z" fill="#272727"></path><path d="M44.1699 44.0725C44.1699 44.2599 44.5796 44.8972 45.0264 45.497C46.3298 47.0715 48.2662 50.2579 50.3144 54.119C52.0647 57.5303 52.4743 57.9802 52.9212 57.2304C53.6287 56.1058 47.0001 45.2346 44.8775 44.11C44.4678 43.8476 44.1699 43.8476 44.1699 44.0725Z" fill="#272727"></path><path d="M26.3703 80.3975C26.1468 80.9973 25.9606 85.1208 25.9606 89.5818C25.8862 98.5787 26.0724 99.5908 27.8226 99.5908H28.9026L28.7164 96.1045C28.6046 94.2302 28.344 90.369 28.1205 87.595C27.8971 84.8209 27.6737 81.8595 27.6364 81.0722C27.5619 79.2729 26.8916 78.9355 26.3703 80.3975Z" fill="#272727"></path><path d="M29.3123 85.2337C29.3123 87.0706 29.4613 89.9571 29.6475 91.719C29.7965 93.4809 29.7965 95.0928 29.6103 95.2803C29.4613 95.5052 29.4613 95.9175 29.6475 96.2174C29.8709 96.5173 30.0199 97.3046 30.0199 97.9418C30.0199 98.6166 30.355 99.5163 30.7274 100.004L31.435 100.903L31.8819 99.7787C32.366 98.5791 31.9936 93.8558 30.9136 87.0331C30.1688 82.4222 30.0571 81.9724 29.6475 81.9724C29.4241 81.9724 29.2751 83.3594 29.3123 85.2337Z" fill="#272727"></path><path d="M2.94569 114.623C2.27539 115.073 1.7168 115.486 1.7168 115.56C1.7168 115.785 3.72772 114.848 4.32355 114.323C5.14281 113.574 4.28631 113.761 2.94569 114.623Z" fill="#272727"></path></svg> 