<?xml version="1.0" encoding="UTF-8"?> <svg xmlns="http://www.w3.org/2000/svg" width="165" height="188" viewBox="0 0 165 188" fill="none"><path d="M56.9751 35.7184C57.0579 35.7478 57.2964 35.813 57.5189 35.6469C57.7311 35.4883 57.7444 35.2535 57.7449 35.1739C57.7454 35.0711 57.7244 34.9715 57.7031 34.8928C57.6197 34.5841 57.3918 34.0975 57.0602 33.4778C56.7211 32.844 56.2494 32.0286 55.6491 31.0403C54.4644 29.0124 53.0721 26.2419 52.4928 24.8325C52.2409 24.1483 51.9738 23.564 51.71 23.0985C51.4492 22.6384 51.1728 22.2598 50.8933 22.0261C50.7546 21.9103 50.5774 21.7985 50.3703 21.7603C50.1364 21.7173 49.8977 21.7768 49.7107 21.9471C49.5462 22.0972 49.4587 22.2992 49.4085 22.4845C49.3565 22.6767 49.3316 22.9018 49.3261 23.1502L49.3257 23.1546C49.3176 23.7863 49.4988 24.5539 49.8045 25.387C50.1131 26.2284 50.5624 27.1722 51.1208 28.1672C52.2376 30.1571 53.8087 32.3822 55.6254 34.4493C56.0927 34.9985 56.4648 35.39 56.7216 35.5774C56.7871 35.6252 56.8746 35.6826 56.9751 35.7184Z" fill="#272727" stroke="#272727"></path><path d="M85.6074 28.42C85.7776 28.4113 85.8946 28.3256 85.9551 28.2675C86.0596 28.167 86.1093 28.0396 86.1301 27.9848C86.1837 27.8438 86.2299 27.6451 86.2746 27.4231C86.2959 27.3177 86.3036 27.171 86.3067 27.0286C86.3101 26.8724 86.3095 26.6754 86.3054 26.4466C86.2973 25.9879 86.2748 25.3845 86.2427 24.6877C86.1784 23.2929 86.0722 21.5097 85.9503 19.7281C85.8285 17.9466 85.6909 16.1628 85.5627 14.7671C85.4987 14.0699 85.4364 13.4662 85.3798 13.0066C85.3515 12.7771 85.3247 12.5789 85.2984 12.4217C85.2744 12.2783 85.2455 12.1302 85.2068 12.0246C85.1531 11.8782 85.0631 11.7279 84.9169 11.6171C84.7641 11.5015 84.5872 11.4577 84.4187 11.467C84.1155 11.4839 83.8625 11.6666 83.6918 11.8304C83.3301 12.1777 83.0087 12.7602 82.9238 13.375L82.9235 13.3771C82.8745 13.747 82.8816 14.2966 82.9234 14.9448C82.9658 15.6035 83.0459 16.3979 83.1558 17.2738C83.3755 19.0262 83.7146 21.1229 84.1079 23.1501L84.1083 23.1511C84.2796 24.1354 84.5001 25.3529 84.6748 26.2521L84.8311 27.0269C84.8767 27.3173 84.9185 27.5552 84.96 27.7327C84.9812 27.8232 85.0055 27.9117 85.0341 27.9885C85.0537 28.0412 85.1068 28.1803 85.2261 28.2852C85.3 28.35 85.431 28.4289 85.6074 28.42Z" fill="#272727" stroke="#272727"></path><path d="M36.292 56.745C36.3634 56.7032 36.5232 56.5891 36.5646 56.3652C36.6073 56.134 36.4912 55.9679 36.4311 55.8992C36.3214 55.774 36.162 55.698 36.0661 55.6556C35.6188 55.4577 34.6228 55.1936 33.1494 54.8646C31.6537 54.5306 29.6147 54.1187 27.0404 53.6314L27.0386 53.6321C22.7994 52.8427 20.1988 52.4218 18.9715 52.3693C18.6712 52.3565 18.3982 52.3621 18.1939 52.4132C18.0998 52.4368 17.9358 52.489 17.8102 52.6289C17.7393 52.7078 17.6845 52.8113 17.666 52.9335C17.6482 53.0519 17.6695 53.1569 17.6992 53.2365C17.7533 53.3815 17.8522 53.4886 17.9222 53.5552C18.0007 53.6298 18.0954 53.701 18.1952 53.7692C18.3954 53.9058 18.6627 54.0587 18.9824 54.2251C21.2383 55.4649 25.0206 56.1516 31.529 56.6771C33.3588 56.8313 34.6512 56.9037 35.393 56.8917C35.5796 56.8887 35.7427 56.8803 35.876 56.8643C35.9844 56.8513 36.1536 56.8259 36.292 56.745Z" fill="#272727" stroke="#272727"></path><mask id="path-4-outside-1_3202_1407" maskUnits="userSpaceOnUse" x="30.2706" y="26.3931" width="135.494" height="154.515" fill="black"><rect fill="white" x="30.2706" y="26.3931" width="135.494" height="154.515"></rect><path d="M72.7988 46.2037C71.0574 47.1604 65.742 50.1275 60.9444 52.7776C56.1673 55.4837 51.6992 57.8221 51.0286 58.0681C49.7639 58.5957 49.3124 61.6858 49.73 67.318C49.8527 68.8624 49.8431 70.3918 49.687 70.8305C49.3395 71.7844 50.0532 73.5571 50.7238 73.3111C51.0591 73.188 51.327 72.7083 51.3302 72.1985C51.3629 71.4236 51.5865 71.3416 53.042 71.507C53.9683 71.6122 56.9533 71.2801 59.7237 70.7088L64.741 69.6947L71.904 76.6034C75.8455 80.4343 79.0168 83.7213 78.9108 83.9509C78.8049 84.1805 76.5547 85.1331 73.9076 86.0406C70.9253 87.0711 69.6457 87.7312 70.5868 87.7039C75.4744 87.3731 84.5577 82.5787 90.8654 76.9588C92.204 75.7684 93.7366 74.7611 94.2601 74.6326C94.8042 74.5602 92.7006 76.6034 89.6116 79.0717C84.2455 83.4561 83.7278 83.7732 76.91 86.2743C72.9422 87.7298 69.8185 89.0665 69.8802 89.2346C69.9419 89.4027 70.7564 89.5489 71.7739 89.5571L73.5088 89.62L71.7411 90.3321C70.5881 90.8186 69.6265 90.7899 69.0445 90.2405C68.3508 89.7321 68.0303 89.7225 67.9153 90.2733C67.7798 90.768 66.8587 92.0596 65.82 93.2035C61.0269 98.4585 58.0416 111.061 58.5114 123.922C58.9697 136.405 61.8437 145.968 67.0925 152.498C75.5562 163.126 92.4154 168.639 109.261 166.338C111.249 166.053 116.178 164.626 120.146 163.171C126.014 161.018 128.167 159.974 131.262 157.694C137.213 153.35 141.094 149.065 144.546 143.094C148.034 137.046 150.011 130.854 150.811 123.185C151.657 115.119 151.138 111.113 148.066 103.085C145.723 96.6968 145.165 95.6936 142.058 92.065C133.735 82.3395 123.169 76.8699 110.783 75.946C108.498 75.767 106.408 75.7711 106.113 76.0062C105.875 76.2207 107.616 76.4722 110.068 76.5898C122.931 77.0845 136.701 85.0661 143.706 96.038C149.682 105.416 151.513 119.049 148.396 130.429C144.204 145.445 133.903 156.598 119.038 162.052C106.408 166.685 93.0223 166.318 81.2358 160.979C74.7031 158.035 72.0604 156.016 68.2018 151.201C62.8149 144.467 60.0911 134.277 60.051 120.687C60.0078 113.137 60.566 108.609 62.0008 103.187C63.0349 99.4385 65.4757 93.6477 65.0717 95.8303C64.8328 97.2531 66.4419 96.2813 67.6809 94.301C68.6316 92.7443 68.7787 92.6268 68.7517 93.5903C68.7247 94.5538 68.9335 94.6044 69.872 93.8787C70.4603 93.4085 71.3281 92.8359 71.7546 92.6158C72.2576 92.4313 72.846 91.9612 73.0991 91.614C73.3521 91.2669 73.7844 91.2354 74.0401 91.5867C74.2752 91.8819 74.7634 91.83 75.0165 91.4828C75.3254 91.1152 79.1756 89.512 83.5904 87.8925C90.5759 85.3299 91.8554 84.6698 93.5737 82.9586C94.6682 81.7942 96.2303 80.5218 97.1393 80.0612C99.2718 78.961 100.388 75.4363 98.3763 76.1743C97.8734 76.3588 97.3531 75.9775 97.0447 75.137C96.5514 73.7921 94.6083 72.4705 93.7141 72.7985C93.4347 72.901 93.2298 71.1325 93.2014 68.9813C93.1866 63.5828 91.5072 52.4373 90.5199 50.9557C89.6148 49.6984 77.2463 43.8092 76.4492 44.2288C76.1903 44.3873 74.5401 45.247 72.7988 46.2037ZM79.7766 47.077C81.6876 47.9654 84.4131 49 85.8391 49.4305C88.7059 50.159 89.4054 50.856 87.8407 51.43C86.6113 51.881 80.5965 59.6822 80.8637 60.4107C81.2337 61.4193 82.4811 60.3259 84.6972 57.0335C88.7702 51.0254 90.4383 49.5234 90.0163 52.3484C89.8866 53.0318 90.3492 57.0581 91.0469 61.3796C93.0198 73.4983 93.0287 73.1771 90.1896 75.808C85.6117 80.094 86.2791 80.3578 83.8271 73.501C82.5938 70.1389 81.3167 65.9663 80.9441 64.2593C80.152 60.5446 80.3961 60.5186 72.2037 65.4948C69.1886 67.3002 66.5383 68.7175 66.3854 68.6465C66.2325 68.5754 65.2079 65.2638 64.1602 61.1979C62.2259 54.024 62.2612 53.9475 63.6468 53.0578C64.3675 52.6026 65.6059 51.8305 66.3619 51.2988C67.2856 50.7056 67.7738 50.6537 67.9588 51.158C68.5138 52.671 79.482 59.5824 79.8706 58.7405C79.9972 58.567 77.5633 56.5989 74.4825 54.4231C71.4577 52.2268 68.8915 50.2437 68.8298 50.0756C68.7065 49.7394 73.1424 46.9677 75.5191 45.8415C76.022 45.657 77.9215 46.1682 79.7766 47.077ZM61.2104 55.9224C61.3717 56.8804 62.2023 60.0088 63.1035 62.9842C64.0048 65.9595 64.7416 68.4866 64.6504 68.5836C64.5798 68.7367 52.1369 70.2496 51.6635 70.169C51.643 70.1129 51.3648 67.7991 51.0898 64.9755L50.6278 59.741L53.3045 58.5683C55.4428 57.6567 59.8139 55.2267 60.7877 54.4245C60.8789 54.3274 61.0697 55.0204 61.2104 55.9224ZM80.2896 67.4875C81.0322 70.2031 82.4506 74.0696 83.4553 76.1169C85.4087 80.2321 85.3439 80.5737 82.0641 82.3491C80.1197 83.4438 79.9463 83.3167 74.3475 77.0422C72.4371 74.9456 70.1034 72.5593 69.1187 71.7762C68.1898 70.9726 67.3374 70.2045 67.3168 70.1485C67.2757 70.0364 68.5347 69.3202 70.0731 68.5016C71.5762 67.7595 74.2001 66.0975 75.8182 64.8046C77.4568 63.5678 78.8012 62.566 78.8776 62.6015C78.8982 62.6575 79.5676 64.8279 80.2896 67.4875ZM95.5853 76.6895C94.6482 80.53 91.7121 83.0693 85.5444 85.2684L81.9119 86.6009L85.545 84.0602C87.5748 82.6798 89.5782 81.0548 90.0696 80.4931C90.6169 79.9109 91.7699 79.4243 92.6139 79.3054C93.8344 79.1756 94.0727 78.961 93.6995 78.4622C93.1117 77.7241 93.9801 75.9433 95.189 75.4363C95.8037 75.2108 95.8859 75.4349 95.5853 76.6895Z"></path></mask><path d="M72.7988 46.2037C71.0574 47.1604 65.742 50.1275 60.9444 52.7776C56.1673 55.4837 51.6992 57.8221 51.0286 58.0681C49.7639 58.5957 49.3124 61.6858 49.73 67.318C49.8527 68.8624 49.8431 70.3918 49.687 70.8305C49.3395 71.7844 50.0532 73.5571 50.7238 73.3111C51.0591 73.188 51.327 72.7083 51.3302 72.1985C51.3629 71.4236 51.5865 71.3416 53.042 71.507C53.9683 71.6122 56.9533 71.2801 59.7237 70.7088L64.741 69.6947L71.904 76.6034C75.8455 80.4343 79.0168 83.7213 78.9108 83.9509C78.8049 84.1805 76.5547 85.1331 73.9076 86.0406C70.9253 87.0711 69.6457 87.7312 70.5868 87.7039C75.4744 87.3731 84.5577 82.5787 90.8654 76.9588C92.204 75.7684 93.7366 74.7611 94.2601 74.6326C94.8042 74.5602 92.7006 76.6034 89.6116 79.0717C84.2455 83.4561 83.7278 83.7732 76.91 86.2743C72.9422 87.7298 69.8185 89.0665 69.8802 89.2346C69.9419 89.4027 70.7564 89.5489 71.7739 89.5571L73.5088 89.62L71.7411 90.3321C70.5881 90.8186 69.6265 90.7899 69.0445 90.2405C68.3508 89.7321 68.0303 89.7225 67.9153 90.2733C67.7798 90.768 66.8587 92.0596 65.82 93.2035C61.0269 98.4585 58.0416 111.061 58.5114 123.922C58.9697 136.405 61.8437 145.968 67.0925 152.498C75.5562 163.126 92.4154 168.639 109.261 166.338C111.249 166.053 116.178 164.626 120.146 163.171C126.014 161.018 128.167 159.974 131.262 157.694C137.213 153.35 141.094 149.065 144.546 143.094C148.034 137.046 150.011 130.854 150.811 123.185C151.657 115.119 151.138 111.113 148.066 103.085C145.723 96.6968 145.165 95.6936 142.058 92.065C133.735 82.3395 123.169 76.8699 110.783 75.946C108.498 75.767 106.408 75.7711 106.113 76.0062C105.875 76.2207 107.616 76.4722 110.068 76.5898C122.931 77.0845 136.701 85.0661 143.706 96.038C149.682 105.416 151.513 119.049 148.396 130.429C144.204 145.445 133.903 156.598 119.038 162.052C106.408 166.685 93.0223 166.318 81.2358 160.979C74.7031 158.035 72.0604 156.016 68.2018 151.201C62.8149 144.467 60.0911 134.277 60.051 120.687C60.0078 113.137 60.566 108.609 62.0008 103.187C63.0349 99.4385 65.4757 93.6477 65.0717 95.8303C64.8328 97.2531 66.4419 96.2813 67.6809 94.301C68.6316 92.7443 68.7787 92.6268 68.7517 93.5903C68.7247 94.5538 68.9335 94.6044 69.872 93.8787C70.4603 93.4085 71.3281 92.8359 71.7546 92.6158C72.2576 92.4313 72.846 91.9612 73.0991 91.614C73.3521 91.2669 73.7844 91.2354 74.0401 91.5867C74.2752 91.8819 74.7634 91.83 75.0165 91.4828C75.3254 91.1152 79.1756 89.512 83.5904 87.8925C90.5759 85.3299 91.8554 84.6698 93.5737 82.9586C94.6682 81.7942 96.2303 80.5218 97.1393 80.0612C99.2718 78.961 100.388 75.4363 98.3763 76.1743C97.8734 76.3588 97.3531 75.9775 97.0447 75.137C96.5514 73.7921 94.6083 72.4705 93.7141 72.7985C93.4347 72.901 93.2298 71.1325 93.2014 68.9813C93.1866 63.5828 91.5072 52.4373 90.5199 50.9557C89.6148 49.6984 77.2463 43.8092 76.4492 44.2288C76.1903 44.3873 74.5401 45.247 72.7988 46.2037ZM79.7766 47.077C81.6876 47.9654 84.4131 49 85.8391 49.4305C88.7059 50.159 89.4054 50.856 87.8407 51.43C86.6113 51.881 80.5965 59.6822 80.8637 60.4107C81.2337 61.4193 82.4811 60.3259 84.6972 57.0335C88.7702 51.0254 90.4383 49.5234 90.0163 52.3484C89.8866 53.0318 90.3492 57.0581 91.0469 61.3796C93.0198 73.4983 93.0287 73.1771 90.1896 75.808C85.6117 80.094 86.2791 80.3578 83.8271 73.501C82.5938 70.1389 81.3167 65.9663 80.9441 64.2593C80.152 60.5446 80.3961 60.5186 72.2037 65.4948C69.1886 67.3002 66.5383 68.7175 66.3854 68.6465C66.2325 68.5754 65.2079 65.2638 64.1602 61.1979C62.2259 54.024 62.2612 53.9475 63.6468 53.0578C64.3675 52.6026 65.6059 51.8305 66.3619 51.2988C67.2856 50.7056 67.7738 50.6537 67.9588 51.158C68.5138 52.671 79.482 59.5824 79.8706 58.7405C79.9972 58.567 77.5633 56.5989 74.4825 54.4231C71.4577 52.2268 68.8915 50.2437 68.8298 50.0756C68.7065 49.7394 73.1424 46.9677 75.5191 45.8415C76.022 45.657 77.9215 46.1682 79.7766 47.077ZM61.2104 55.9224C61.3717 56.8804 62.2023 60.0088 63.1035 62.9842C64.0048 65.9595 64.7416 68.4866 64.6504 68.5836C64.5798 68.7367 52.1369 70.2496 51.6635 70.169C51.643 70.1129 51.3648 67.7991 51.0898 64.9755L50.6278 59.741L53.3045 58.5683C55.4428 57.6567 59.8139 55.2267 60.7877 54.4245C60.8789 54.3274 61.0697 55.0204 61.2104 55.9224ZM80.2896 67.4875C81.0322 70.2031 82.4506 74.0696 83.4553 76.1169C85.4087 80.2321 85.3439 80.5737 82.0641 82.3491C80.1197 83.4438 79.9463 83.3167 74.3475 77.0422C72.4371 74.9456 70.1034 72.5593 69.1187 71.7762C68.1898 70.9726 67.3374 70.2045 67.3168 70.1485C67.2757 70.0364 68.5347 69.3202 70.0731 68.5016C71.5762 67.7595 74.2001 66.0975 75.8182 64.8046C77.4568 63.5678 78.8012 62.566 78.8776 62.6015C78.8982 62.6575 79.5676 64.8279 80.2896 67.4875ZM95.5853 76.6895C94.6482 80.53 91.7121 83.0693 85.5444 85.2684L81.9119 86.6009L85.545 84.0602C87.5748 82.6798 89.5782 81.0548 90.0696 80.4931C90.6169 79.9109 91.7699 79.4243 92.6139 79.3054C93.8344 79.1756 94.0727 78.961 93.6995 78.4622C93.1117 77.7241 93.9801 75.9433 95.189 75.4363C95.8037 75.2108 95.8859 75.4349 95.5853 76.6895Z" fill="#272727"></path><path d="M72.7988 46.2037C71.0574 47.1604 65.742 50.1275 60.9444 52.7776C56.1673 55.4837 51.6992 57.8221 51.0286 58.0681C49.7639 58.5957 49.3124 61.6858 49.73 67.318C49.8527 68.8624 49.8431 70.3918 49.687 70.8305C49.3395 71.7844 50.0532 73.5571 50.7238 73.3111C51.0591 73.188 51.327 72.7083 51.3302 72.1985C51.3629 71.4236 51.5865 71.3416 53.042 71.507C53.9683 71.6122 56.9533 71.2801 59.7237 70.7088L64.741 69.6947L71.904 76.6034C75.8455 80.4343 79.0168 83.7213 78.9108 83.9509C78.8049 84.1805 76.5547 85.1331 73.9076 86.0406C70.9253 87.0711 69.6457 87.7312 70.5868 87.7039C75.4744 87.3731 84.5577 82.5787 90.8654 76.9588C92.204 75.7684 93.7366 74.7611 94.2601 74.6326C94.8042 74.5602 92.7006 76.6034 89.6116 79.0717C84.2455 83.4561 83.7278 83.7732 76.91 86.2743C72.9422 87.7298 69.8185 89.0665 69.8802 89.2346C69.9419 89.4027 70.7564 89.5489 71.7739 89.5571L73.5088 89.62L71.7411 90.3321C70.5881 90.8186 69.6265 90.7899 69.0445 90.2405C68.3508 89.7321 68.0303 89.7225 67.9153 90.2733C67.7798 90.768 66.8587 92.0596 65.82 93.2035C61.0269 98.4585 58.0416 111.061 58.5114 123.922C58.9697 136.405 61.8437 145.968 67.0925 152.498C75.5562 163.126 92.4154 168.639 109.261 166.338C111.249 166.053 116.178 164.626 120.146 163.171C126.014 161.018 128.167 159.974 131.262 157.694C137.213 153.35 141.094 149.065 144.546 143.094C148.034 137.046 150.011 130.854 150.811 123.185C151.657 115.119 151.138 111.113 148.066 103.085C145.723 96.6968 145.165 95.6936 142.058 92.065C133.735 82.3395 123.169 76.8699 110.783 75.946C108.498 75.767 106.408 75.7711 106.113 76.0062C105.875 76.2207 107.616 76.4722 110.068 76.5898C122.931 77.0845 136.701 85.0661 143.706 96.038C149.682 105.416 151.513 119.049 148.396 130.429C144.204 145.445 133.903 156.598 119.038 162.052C106.408 166.685 93.0223 166.318 81.2358 160.979C74.7031 158.035 72.0604 156.016 68.2018 151.201C62.8149 144.467 60.0911 134.277 60.051 120.687C60.0078 113.137 60.566 108.609 62.0008 103.187C63.0349 99.4385 65.4757 93.6477 65.0717 95.8303C64.8328 97.2531 66.4419 96.2813 67.6809 94.301C68.6316 92.7443 68.7787 92.6268 68.7517 93.5903C68.7247 94.5538 68.9335 94.6044 69.872 93.8787C70.4603 93.4085 71.3281 92.8359 71.7546 92.6158C72.2576 92.4313 72.846 91.9612 73.0991 91.614C73.3521 91.2669 73.7844 91.2354 74.0401 91.5867C74.2752 91.8819 74.7634 91.83 75.0165 91.4828C75.3254 91.1152 79.1756 89.512 83.5904 87.8925C90.5759 85.3299 91.8554 84.6698 93.5737 82.9586C94.6682 81.7942 96.2303 80.5218 97.1393 80.0612C99.2718 78.961 100.388 75.4363 98.3763 76.1743C97.8734 76.3588 97.3531 75.9775 97.0447 75.137C96.5514 73.7921 94.6083 72.4705 93.7141 72.7985C93.4347 72.901 93.2298 71.1325 93.2014 68.9813C93.1866 63.5828 91.5072 52.4373 90.5199 50.9557C89.6148 49.6984 77.2463 43.8092 76.4492 44.2288C76.1903 44.3873 74.5401 45.247 72.7988 46.2037ZM79.7766 47.077C81.6876 47.9654 84.4131 49 85.8391 49.4305C88.7059 50.159 89.4054 50.856 87.8407 51.43C86.6113 51.881 80.5965 59.6822 80.8637 60.4107C81.2337 61.4193 82.4811 60.3259 84.6972 57.0335C88.7702 51.0254 90.4383 49.5234 90.0163 52.3484C89.8866 53.0318 90.3492 57.0581 91.0469 61.3796C93.0198 73.4983 93.0287 73.1771 90.1896 75.808C85.6117 80.094 86.2791 80.3578 83.8271 73.501C82.5938 70.1389 81.3167 65.9663 80.9441 64.2593C80.152 60.5446 80.3961 60.5186 72.2037 65.4948C69.1886 67.3002 66.5383 68.7175 66.3854 68.6465C66.2325 68.5754 65.2079 65.2638 64.1602 61.1979C62.2259 54.024 62.2612 53.9475 63.6468 53.0578C64.3675 52.6026 65.6059 51.8305 66.3619 51.2988C67.2856 50.7056 67.7738 50.6537 67.9588 51.158C68.5138 52.671 79.482 59.5824 79.8706 58.7405C79.9972 58.567 77.5633 56.5989 74.4825 54.4231C71.4577 52.2268 68.8915 50.2437 68.8298 50.0756C68.7065 49.7394 73.1424 46.9677 75.5191 45.8415C76.022 45.657 77.9215 46.1682 79.7766 47.077ZM61.2104 55.9224C61.3717 56.8804 62.2023 60.0088 63.1035 62.9842C64.0048 65.9595 64.7416 68.4866 64.6504 68.5836C64.5798 68.7367 52.1369 70.2496 51.6635 70.169C51.643 70.1129 51.3648 67.7991 51.0898 64.9755L50.6278 59.741L53.3045 58.5683C55.4428 57.6567 59.8139 55.2267 60.7877 54.4245C60.8789 54.3274 61.0697 55.0204 61.2104 55.9224ZM80.2896 67.4875C81.0322 70.2031 82.4506 74.0696 83.4553 76.1169C85.4087 80.2321 85.3439 80.5737 82.0641 82.3491C80.1197 83.4438 79.9463 83.3167 74.3475 77.0422C72.4371 74.9456 70.1034 72.5593 69.1187 71.7762C68.1898 70.9726 67.3374 70.2045 67.3168 70.1485C67.2757 70.0364 68.5347 69.3202 70.0731 68.5016C71.5762 67.7595 74.2001 66.0975 75.8182 64.8046C77.4568 63.5678 78.8012 62.566 78.8776 62.6015C78.8982 62.6575 79.5676 64.8279 80.2896 67.4875ZM95.5853 76.6895C94.6482 80.53 91.7121 83.0693 85.5444 85.2684L81.9119 86.6009L85.545 84.0602C87.5748 82.6798 89.5782 81.0548 90.0696 80.4931C90.6169 79.9109 91.7699 79.4243 92.6139 79.3054C93.8344 79.1756 94.0727 78.961 93.6995 78.4622C93.1117 77.7241 93.9801 75.9433 95.189 75.4363C95.8037 75.2108 95.8859 75.4349 95.5853 76.6895Z" stroke="#272727" stroke-width="2" mask="url(#path-4-outside-1_3202_1407)"></path><path d="M103.3 39.7619C103.828 39.6421 104.436 39.4221 105.069 39.089L105.071 39.088C106.067 38.557 108.654 36.719 111.019 34.9496C112.209 34.0587 113.358 33.1741 114.241 32.4642C114.682 32.1097 115.06 31.7962 115.345 31.5452C115.488 31.4199 115.611 31.3068 115.708 31.2102C115.796 31.1239 115.889 31.0238 115.951 30.9286L115.952 30.9283C115.999 30.8576 116.044 30.7827 116.079 30.7061C116.11 30.6366 116.151 30.5274 116.152 30.3993C116.154 30.25 116.099 30.0564 115.92 29.9248C115.772 29.8158 115.611 29.8065 115.526 29.8084C115.353 29.8124 115.163 29.8746 114.998 29.9397C114.816 30.0112 114.598 30.1131 114.345 30.2425C113.341 30.7575 111.649 31.7819 109.185 33.3527C106.102 35.309 103.012 37.2693 102.343 37.7069L102.343 37.7078C102.071 37.8751 101.848 38.0389 101.677 38.1997C101.509 38.3575 101.36 38.5394 101.284 38.7466C101.2 38.9761 101.205 39.2489 101.378 39.4797C101.528 39.6803 101.75 39.7731 101.932 39.8185C102.3 39.9106 102.786 39.8783 103.3 39.7619Z" fill="#272727" stroke="#272727"></path><path d="M22.4356 86.6878C24.0539 86.1171 26.0199 85.3658 27.8994 84.6085C29.7781 83.8517 31.5782 83.0856 32.8642 82.4845C33.5041 82.1854 34.0311 81.9208 34.3783 81.7148C34.5433 81.6169 34.7044 81.5112 34.814 81.4052C34.8543 81.3662 34.9694 81.2523 35.0094 81.0787C35.0343 80.9702 35.0312 80.8281 34.9536 80.6914C34.8814 80.5642 34.7761 80.4974 34.7049 80.4643C34.5927 80.4122 34.4766 80.3953 34.3922 80.3887C34.3002 80.3814 34.2007 80.383 34.1011 80.3893C33.902 80.402 33.6607 80.437 33.391 80.4865C32.849 80.586 32.1457 80.7546 31.3447 80.9709C29.7398 81.4044 27.7048 82.0373 25.7027 82.712C23.7009 83.3866 21.7221 84.1069 20.2289 84.7159C19.4839 85.0196 18.8494 85.2995 18.391 85.5357C18.1637 85.6529 17.9656 85.7671 17.815 85.8739C17.7404 85.9268 17.6636 85.9872 17.5986 86.0552C17.5441 86.1123 17.4432 86.2296 17.4092 86.3983L17.4055 86.4194L17.4031 86.4411C17.3562 86.8616 17.5718 87.1983 17.8684 87.4032C18.1517 87.5988 18.5217 87.6917 18.9052 87.7031L18.9293 87.7036L18.9537 87.702C19.2572 87.6812 19.7442 87.559 20.3139 87.3892C20.9011 87.2141 21.6272 86.9729 22.4356 86.6878Z" fill="#272727" stroke="#272727"></path><path d="M68.2827 88.7605C68.5526 88.6214 68.5985 88.3553 68.5981 88.2194C68.5976 88.0858 68.5601 87.957 68.5252 87.8591C68.4873 87.7526 68.4349 87.6367 68.3741 87.5152C68.2521 87.2714 68.0776 86.971 67.8618 86.6234L67.8614 86.6224C67.3246 85.762 66.1602 84.5016 64.7386 83.1287C63.3041 81.7433 61.5684 80.2061 59.8525 78.784C58.1376 77.3626 56.4337 76.0492 55.0629 75.1133C54.3792 74.6465 53.767 74.2658 53.2715 74.0125C53.0246 73.8864 52.7928 73.784 52.5871 73.7206C52.4025 73.6637 52.1531 73.6104 51.9175 73.676C51.7975 73.7055 51.654 73.7762 51.5597 73.9342C51.4557 74.1084 51.4757 74.2835 51.4946 74.3721C51.5319 74.547 51.6361 74.7089 51.7222 74.8253C51.914 75.0845 52.2269 75.3948 52.6058 75.6943L52.6163 75.7029L52.6277 75.7112C52.9852 75.9639 54.024 76.8528 55.4407 78.1026C56.1426 78.7218 56.9303 79.4229 57.7614 80.1669L60.3432 82.4892C63.8773 85.7525 66.0209 87.6577 67.0697 88.3972C67.3228 88.5757 67.5655 88.7257 67.771 88.7891C67.8586 88.816 68.0697 88.8702 68.2827 88.7605Z" fill="#272727" stroke="#272727"></path><path d="M101.327 77.5941L101.347 77.5849C101.597 77.4683 101.812 77.2767 101.904 77.001C101.995 76.7257 101.932 76.4572 101.813 76.2511C101.582 75.8532 101.101 75.5961 100.579 75.573L100.55 75.572L100.521 75.5735C100.217 75.5956 99.8523 75.727 99.6904 76.0778C99.5212 76.4443 99.6836 76.7941 99.9004 77.016C100.068 77.2341 100.275 77.4077 100.493 77.5174C100.707 77.6247 101.011 77.71 101.308 77.6011L101.327 77.5941Z" fill="#272727" stroke="#272727"></path><path d="M95.2002 83.936C95.5 83.9449 95.7611 83.7915 95.9419 83.5817L95.9432 83.5823C96.1235 83.3904 96.257 83.1712 96.3374 82.9613C96.4072 82.779 96.475 82.5033 96.3809 82.2463C96.3103 82.0539 96.1626 81.9482 96.0519 81.8968C95.9408 81.8451 95.8258 81.8262 95.7287 81.8209C95.5319 81.8102 95.3129 81.8507 95.0985 81.9293C94.5308 82.1376 94.261 82.827 94.4681 83.3922C94.584 83.7081 94.8593 83.9258 95.2002 83.936Z" fill="#272727" stroke="#272727"></path><path d="M136.513 128.042C136.664 127.993 136.753 127.893 136.792 127.842C136.837 127.785 136.869 127.725 136.891 127.677C136.972 127.5 137.037 127.229 137.095 126.911C137.217 126.247 137.342 125.174 137.456 123.669L137.55 122.476C137.941 116.583 137.172 111.747 135.332 107.895L135.331 107.892C133.609 104.344 130.617 100.487 127.208 97.1399C123.801 93.794 119.94 90.9234 116.459 89.3759L116.459 89.3747C110.971 86.9183 103.806 86.3731 98.4207 87.9586L98.4103 87.9614C97.4188 88.2775 96.6645 88.518 96.1349 88.6973C95.8706 88.7867 95.6555 88.8635 95.4914 88.9281C95.3467 88.9851 95.1866 89.0527 95.0777 89.1329C95.0469 89.1556 94.9964 89.1965 94.9504 89.2566C94.907 89.3133 94.8275 89.4405 94.8407 89.6183C94.8552 89.8123 94.9689 89.9366 95.0494 89.9973C95.1234 90.0531 95.1967 90.0787 95.2354 90.0903C95.3703 90.1308 95.5461 90.133 95.6772 90.1321C95.9854 90.1301 96.4763 90.0977 97.1036 90.0562L97.1177 90.0551C97.7859 89.9909 98.5511 90.0002 99.2392 90.0622C99.9392 90.1253 100.51 90.2385 100.812 90.36C101.044 90.4533 101.453 90.557 101.953 90.6633C102.466 90.7725 103.114 90.8923 103.848 91.0146C105.318 91.2593 107.15 91.5149 108.974 91.7086C110.809 91.9173 112.665 92.2275 114.171 92.5545C114.925 92.7181 115.586 92.8855 116.11 93.0437C116.648 93.2064 116.999 93.3476 117.164 93.4497C117.64 93.7446 118.131 93.9864 118.54 94.1452C118.744 94.2242 118.937 94.2866 119.105 94.3239C119.188 94.3425 119.276 94.3574 119.36 94.3623C119.436 94.3666 119.555 94.3656 119.678 94.3207C119.621 94.3414 119.628 94.3141 119.765 94.3551C119.887 94.3914 120.055 94.4644 120.27 94.5842C120.697 94.8224 121.247 95.2086 121.882 95.7184C123.15 96.7355 124.708 98.2052 126.225 99.8547C127.748 101.586 129.425 103.39 129.939 103.913C134.237 108.4 136.184 114.329 135.736 122.144L135.736 122.145C135.647 123.726 135.62 124.994 135.635 125.911C135.643 126.368 135.662 126.746 135.691 127.035C135.705 127.179 135.724 127.309 135.745 127.418C135.765 127.518 135.794 127.639 135.848 127.744C135.874 127.794 135.928 127.886 136.027 127.96C136.149 128.051 136.326 128.101 136.513 128.042Z" fill="#272727" stroke="#272727"></path><path d="M84.8628 95.5688C85.0897 95.4665 85.3723 95.2844 85.5015 95.0047L85.499 95.0036C85.5724 94.8627 85.6519 94.6151 85.484 94.3672C85.3204 94.126 85.0508 94.0947 84.94 94.0894C84.6733 94.0767 84.3474 94.1712 84.0271 94.3202C83.8632 94.3813 83.7162 94.4467 83.5965 94.5188C83.4981 94.5781 83.3254 94.6944 83.2376 94.8845C83.1832 95.0024 83.1507 95.176 83.2307 95.3561C83.3037 95.5202 83.4335 95.6059 83.5175 95.6473C83.6753 95.725 83.8593 95.7398 84.0022 95.7409L84.0019 95.74C84.3122 95.7526 84.617 95.6795 84.8628 95.5688Z" fill="#272727" stroke="#272727"></path><path d="M103.053 152.871L113.651 148.92L113.649 148.919C119.446 146.793 122.7 145.522 125.053 144.074C127.434 142.609 128.882 140.97 131.1 138.181L131.099 138.181C132.483 136.47 133.386 134.886 133.966 132.873C134.469 131.125 134.723 129.07 134.855 126.356L134.905 125.15L134.905 125.144C135.045 118.546 133.463 111.389 130.781 107.091C124.622 97.149 114.249 91.347 101.708 90.9266C99.5695 90.8345 96.7488 91.0658 94.0901 91.4732C91.4368 91.8797 88.8935 92.469 87.3222 93.1113L87.3085 93.1163C87.1985 93.1652 87.0963 93.2159 87.0146 93.2679C86.9748 93.2931 86.922 93.3296 86.8729 93.3781C86.8384 93.4123 86.7272 93.5269 86.7065 93.7127C86.678 93.969 86.8323 94.1403 86.9489 94.2146C87.0437 94.275 87.1386 94.294 87.1826 94.3015C87.2824 94.3185 87.3941 94.3175 87.4894 94.3128C87.8819 94.2934 88.6055 94.1758 89.5466 93.9887L89.5506 93.9883C99.845 91.8528 107.679 92.4377 115.125 95.8989L115.126 95.9004C125.122 100.502 131.292 108.855 132.35 119.207L132.404 119.805C132.657 122.802 132.556 125.913 132.164 128.644C131.745 131.574 131.002 134 130.058 135.387L130.057 135.389C126.617 140.491 118.444 145.649 109.072 148.455L109.071 148.455C103.793 150.045 99.0593 150.37 94.8041 149.447C90.5531 148.525 86.7447 146.351 83.3247 142.889L83.3244 142.888C74.1405 133.607 72.4264 118.883 78.8523 102.764L78.8537 102.76C79.2204 101.814 79.5045 101.066 79.7066 100.503C79.904 99.9527 80.0367 99.5431 80.0828 99.2965C80.0945 99.2338 80.1054 99.1552 80.1037 99.0756C80.1028 99.0356 80.0985 98.9747 80.0782 98.907C80.0585 98.8412 80.0127 98.7298 79.9013 98.6401C79.6314 98.4229 79.3468 98.5707 79.2939 98.6008C79.2105 98.6483 79.1454 98.7111 79.106 98.7519C78.9465 98.9168 78.7224 99.2381 78.4557 99.6447C77.7475 100.705 76.7941 102.778 75.8484 105.167C75.5 106.046 75.1509 106.975 74.8121 107.919C74.8188 107.848 74.8269 107.779 74.8322 107.71C74.8545 107.42 74.8642 107.148 74.8565 106.912C74.8492 106.689 74.8255 106.453 74.7559 106.263C74.7606 106.276 74.742 106.202 74.7581 105.974C74.7723 105.774 74.8083 105.513 74.865 105.208C74.9781 104.599 75.1657 103.848 75.3924 103.11L75.3927 103.108C75.6072 102.401 75.7602 101.812 75.8566 101.336C75.9513 100.868 75.9984 100.479 75.9817 100.185C75.9735 100.041 75.9476 99.8767 75.8735 99.7286C75.7912 99.5642 75.6319 99.3955 75.3801 99.3562C75.163 99.3225 74.9781 99.4026 74.8632 99.4699C74.7397 99.5423 74.6235 99.642 74.5172 99.7487C74.1012 100.166 73.571 100.965 72.9845 102.036C72.3899 103.121 71.7158 104.527 71.0173 106.192L71.0161 106.195C69.0434 110.978 68.5294 113.641 68.4018 119.399C68.3777 120.461 68.3873 121.256 68.4271 121.776C68.4463 122.028 68.4753 122.249 68.5223 122.41C68.541 122.474 68.5852 122.614 68.6949 122.727C68.7596 122.794 68.8746 122.879 69.0397 122.893C69.2058 122.907 69.3343 122.842 69.4109 122.785C69.5392 122.689 69.6047 122.555 69.6325 122.496C69.6699 122.415 69.7023 122.322 69.731 122.225C69.7889 122.031 69.847 121.773 69.9055 121.459C70.0231 120.828 70.1507 119.927 70.2804 118.764L70.424 117.601C70.4679 117.266 70.5083 116.98 70.5499 116.736C70.6357 116.234 70.714 115.98 70.7822 115.859C70.7861 115.852 70.7903 115.846 70.7935 115.841C70.8791 115.85 71.031 115.899 71.3345 116.028C72.0233 116.394 72.3209 116.893 72.3106 117.263L72.3109 117.264C71.9345 125.985 73.5433 133.388 77.0767 138.966L77.0773 138.968C82.1884 146.959 88.6391 151.304 97.0774 152.332L97.9006 152.421L102.83 152.9L102.946 152.911L103.053 152.871Z" fill="#272727" stroke="#272727"></path><path d="M78.0972 141.763C78.2147 141.728 78.3146 141.657 78.3857 141.562L78.4469 141.46L78.4746 141.385C78.4952 141.313 78.4962 141.252 78.4952 141.217C78.4938 141.165 78.4858 141.121 78.4788 141.09C78.4647 141.029 78.4434 140.971 78.4244 140.925C78.3853 140.83 78.3279 140.718 78.262 140.598C78.1284 140.355 77.9306 140.03 77.6872 139.65C77.1989 138.887 76.5083 137.876 75.7276 136.789C73.8848 134.174 72.8578 132.163 72.5688 130.733L72.5679 130.733C72.4346 130.056 72.2614 129.512 72.0618 129.118C71.9622 128.922 71.8473 128.745 71.7128 128.607C71.5821 128.473 71.3952 128.337 71.1547 128.31C70.8911 128.28 70.668 128.391 70.512 128.546C70.3672 128.69 70.2705 128.879 70.2026 129.069C70.0658 129.452 69.9944 129.987 69.9902 130.648L69.9915 130.649C69.9779 131.201 70.0997 131.894 70.2897 132.568C70.4827 133.252 70.7569 133.955 71.0677 134.524L71.0713 134.531C71.6414 135.535 73.2396 137.45 74.6928 139.018C75.4255 139.809 76.1401 140.532 76.6924 141.027C76.9645 141.27 77.2159 141.476 77.4193 141.605C77.5135 141.664 77.6405 141.736 77.7767 141.768C77.8457 141.784 77.9641 141.802 78.0972 141.763Z" fill="#272727" stroke="#272727"></path></svg> 